<svg version="1.1" xmlns="http://www.w3.org/2000/svg" viewBox="0 0 1041.4976534850416 332.43743069035486" width="1041.4976534850416" height="332.43743069035486">
  <!-- svg-source:excalidraw -->
  
  <defs>
    <style class="style-fonts">
      @font-face {
        font-family: "Virgil";
        src: url("https://excalidraw.com/Virgil.woff2");
      }
      @font-face {
        font-family: "Cascadia";
        src: url("https://excalidraw.com/Cascadia.woff2");
      }
    </style>
    
  </defs>
  <g stroke-linecap="round" transform="translate(99.69806125130435 279.43060137545586) rotate(0 65.64200263852968 21.503414657449497)"><path d="M82.99 1.12 C93.14 1.8, 104.67 3.72, 112.42 6.23 C120.17 8.75, 126.73 12.85, 129.48 16.23 C132.23 19.6, 132.03 23.11, 128.94 26.47 C125.85 29.82, 118.64 33.78, 110.94 36.37 C103.24 38.97, 93.21 41.15, 82.74 42.01 C72.27 42.87, 58.73 42.3, 48.13 41.53 C37.52 40.76, 26.78 39.79, 19.1 37.38 C11.43 34.97, 5.01 30.54, 2.09 27.06 C-0.82 23.58, -1.33 19.99, 1.6 16.51 C4.53 13.03, 11.67 8.92, 19.69 6.18 C27.72 3.43, 38.16 0.67, 49.75 0.04 C61.34 -0.59, 81.72 2.06, 89.23 2.4 C96.74 2.73, 95.19 1.86, 94.82 2.05 M51.21 1.82 C60.86 0.61, 73.14 0.63, 83.24 1.55 C93.34 2.46, 103.95 4.9, 111.81 7.33 C119.66 9.75, 127.64 12.85, 130.39 16.09 C133.13 19.33, 131.76 23.45, 128.27 26.78 C124.77 30.11, 117.2 33.57, 109.42 36.08 C101.64 38.6, 92.21 40.9, 81.59 41.87 C70.97 42.84, 56.15 42.75, 45.71 41.91 C35.26 41.07, 26.22 39.63, 18.89 36.85 C11.57 34.08, 4.66 28.94, 1.73 25.28 C-1.19 21.61, -1.85 18.28, 1.33 14.85 C4.51 11.42, 12.44 7.31, 20.82 4.71 C29.2 2.11, 46.81 0.09, 51.63 -0.75 C56.44 -1.6, 49.69 -0.72, 49.72 -0.37" stroke="none" stroke-width="0" fill="#343a40"></path><path d="M80.39 1.09 C90.79 1.8, 103.12 4.06, 111.08 6.46 C119.04 8.85, 125.19 12.15, 128.13 15.45 C131.08 18.74, 131.1 22.91, 128.74 26.23 C126.39 29.56, 121.34 32.69, 114 35.41 C106.65 38.14, 95.21 41.51, 84.68 42.59 C74.15 43.67, 61.38 42.63, 50.83 41.88 C40.29 41.13, 29.46 40.48, 21.42 38.09 C13.38 35.7, 5.95 30.98, 2.59 27.54 C-0.77 24.1, -1.4 21.03, 1.26 17.47 C3.92 13.9, 10.86 8.74, 18.54 6.13 C26.23 3.51, 36.67 2.64, 47.36 1.78 C58.05 0.92, 76.6 1.19, 82.68 0.96 C88.77 0.74, 84.23 0.01, 83.85 0.46 M84.37 1.1 C94.71 1.65, 106.07 4.77, 113.71 7.43 C121.35 10.09, 127.96 13.92, 130.23 17.07 C132.5 20.23, 130.53 22.85, 127.35 26.36 C124.17 29.86, 118.7 35.41, 111.14 38.13 C103.57 40.84, 92.75 42.03, 81.94 42.65 C71.13 43.27, 57.04 43, 46.29 41.86 C35.54 40.72, 24.81 38.58, 17.45 35.82 C10.09 33.06, 4.85 28.7, 2.13 25.3 C-0.59 21.91, -2.07 18.72, 1.1 15.44 C4.27 12.16, 12.87 7.9, 21.15 5.62 C29.44 3.33, 40.38 2.65, 50.82 1.74 C61.27 0.82, 78.56 0.27, 83.82 0.13 C89.08 -0.01, 82.87 0.46, 82.36 0.89" stroke="#343a40" stroke-width="2" fill="none"></path></g><g stroke-linecap="round" transform="translate(40.70538040034262 108.51476207803262) rotate(0 100 100)"><path d="M107.68 -1.17 C120.07 -2.2, 134.39 4.24, 145.41 9.88 C156.42 15.52, 165.62 23.17, 173.78 32.64 C181.93 42.12, 189.71 54.41, 194.34 66.71 C198.97 79.01, 202.5 93.67, 201.58 106.45 C200.65 119.23, 194.44 132.02, 188.8 143.38 C183.16 154.74, 176.92 166.3, 167.74 174.62 C158.55 182.95, 146.23 188.93, 133.68 193.32 C121.13 197.7, 105.23 201.6, 92.44 200.92 C79.65 200.24, 68.05 194.71, 56.96 189.24 C45.86 183.76, 34.68 177.84, 25.86 168.06 C17.04 158.28, 8.12 143.19, 4.02 130.54 C-0.07 117.9, 0.39 104.68, 1.29 92.2 C2.2 79.72, 4.08 66.81, 9.46 55.68 C14.85 44.55, 24.22 33.98, 33.59 25.44 C42.96 16.89, 45.87 5.9, 65.68 4.42 C85.48 2.95, 132.54 8.46, 152.42 16.59 C172.3 24.73, 185.26 51.72, 184.95 53.25 M29.5 28.75 C37.84 18.87, 53.35 11.74, 64.86 6.68 C76.37 1.63, 85.92 -2.18, 98.56 -1.58 C111.19 -0.99, 128.65 4.95, 140.65 10.26 C152.66 15.57, 161.62 21.38, 170.57 30.29 C179.52 39.19, 188.98 52.16, 194.33 63.68 C199.68 75.2, 203.07 86.67, 202.65 99.41 C202.23 112.14, 197.39 128.47, 191.8 140.08 C186.21 151.69, 178.21 160.33, 169.09 169.07 C159.97 177.8, 148.86 187.3, 137.06 192.47 C125.27 197.64, 110.64 199.66, 98.31 200.08 C85.99 200.51, 74.52 199.69, 63.1 195.02 C51.67 190.34, 38.57 181.12, 29.76 172.04 C20.96 162.96, 15.43 152.19, 10.24 140.56 C5.05 128.92, -1.18 115.43, -1.4 102.25 C-1.61 89.08, 3.29 74.11, 8.93 61.51 C14.58 48.9, 28.46 31.69, 32.48 26.65 C36.51 21.6, 32.04 29.23, 33.1 31.23" stroke="none" stroke-width="0" fill="#1e1e1e"></path><path d="M73.71 4.28 C84.75 -0.49, 99.49 -0.26, 112.02 0.98 C124.54 2.21, 138.14 5.35, 148.85 11.69 C159.56 18.04, 168.37 28.94, 176.27 39.04 C184.17 49.15, 192.5 60.56, 196.27 72.33 C200.05 84.1, 200.61 97.33, 198.94 109.66 C197.28 122, 192.48 135.07, 186.29 146.35 C180.1 157.63, 171.25 168.79, 161.77 177.33 C152.3 185.88, 141.95 193.76, 129.47 197.63 C116.99 201.51, 99.86 202.55, 86.9 200.59 C73.94 198.63, 62.49 192.45, 51.69 185.85 C40.9 179.26, 30.13 170.5, 22.12 161.01 C14.12 151.51, 7.06 140.96, 3.66 128.88 C0.26 116.79, 0.21 101.66, 1.72 88.48 C3.23 75.31, 6.78 60.82, 12.73 49.83 C18.68 38.84, 20.23 30.86, 37.42 22.53 C54.61 14.21, 95.97 0.42, 115.86 -0.14 C135.75 -0.7, 157.07 17.45, 156.74 19.17 M169.38 23.85 C179.37 31.27, 188.61 44.88, 193.24 57.15 C197.87 69.42, 196.58 84.57, 197.16 97.48 C197.74 110.39, 200.63 122.73, 196.72 134.6 C192.81 146.47, 182.44 159.05, 173.72 168.69 C165 178.32, 155.97 187.21, 144.42 192.4 C132.86 197.58, 117.44 199.85, 104.4 199.78 C91.36 199.72, 77.97 196.36, 66.19 192 C54.41 187.65, 43.12 182.35, 33.72 173.66 C24.32 164.97, 15.31 151.83, 9.79 139.87 C4.27 127.91, 1.3 113.94, 0.6 101.91 C-0.1 89.87, 0.94 79.49, 5.61 67.65 C10.28 55.81, 20.18 40.23, 28.63 30.86 C37.08 21.5, 45.42 16.12, 56.3 11.45 C67.19 6.79, 81.23 3.66, 93.94 2.86 C106.66 2.06, 120.37 2.38, 132.58 6.65 C144.79 10.92, 162.04 24.69, 167.19 28.5 C172.33 32.31, 164.81 28.48, 163.45 29.5" stroke="#f2c02c" stroke-width="4" fill="none"></path></g><g stroke-linecap="round" transform="translate(100.70538040034262 168.51476207803262) rotate(0 40 40)"><path d="M21.06 4.85 C26.73 0.91, 36.84 -1.98, 44.17 -1.67 C51.49 -1.35, 59.36 2.18, 65.02 6.74 C70.67 11.29, 75.46 18.71, 78.11 25.65 C80.76 32.6, 82.49 41.11, 80.93 48.38 C79.36 55.65, 73.85 64.41, 68.73 69.29 C63.6 74.17, 57.01 76.33, 50.17 77.66 C43.33 78.99, 34.9 79.71, 27.69 77.26 C20.48 74.81, 11.55 68.8, 6.91 62.97 C2.28 57.13, -0.08 49.18, -0.14 42.23 C-0.2 35.27, -0.3 28.37, 6.55 21.24 C13.4 14.11, 31.41 1.77, 40.96 -0.54 C50.52 -2.85, 63.53 6.83, 63.88 7.38 M14.88 9.48 C20.18 4.3, 32.79 -1.42, 39.66 -1.93 C46.52 -2.45, 50.56 2.81, 56.05 6.37 C61.54 9.93, 68.73 13.47, 72.62 19.43 C76.51 25.38, 79.36 35.21, 79.4 42.1 C79.45 49, 77.31 55.35, 72.88 60.82 C68.46 66.28, 59.51 72.22, 52.85 74.92 C46.2 77.61, 39.89 77.58, 32.95 76.99 C26.01 76.4, 16.18 76.45, 11.23 71.37 C6.27 66.29, 5.04 53.9, 3.21 46.51 C1.38 39.11, -1.85 33.45, 0.24 27.01 C2.33 20.58, 12.59 11.04, 15.73 7.88 C18.86 4.71, 18.95 7.7, 19.06 8.02" stroke="none" stroke-width="0" fill="#ffffff"></path><path d="M25.22 2.96 C31.61 -0.61, 40.19 -1.8, 47.03 -0.79 C53.87 0.21, 61.07 3.91, 66.27 8.99 C71.47 14.06, 76.02 22.04, 78.24 29.64 C80.46 37.23, 82.14 47.37, 79.58 54.53 C77.02 61.69, 68.81 68.65, 62.87 72.59 C56.93 76.52, 50.75 77.84, 43.95 78.12 C37.14 78.39, 28.52 77.04, 22.05 74.23 C15.59 71.42, 8.64 67.32, 5.15 61.25 C1.67 55.19, 0.73 45.55, 1.14 37.85 C1.55 30.15, -0.01 21.14, 7.62 15.05 C15.25 8.97, 37.05 2.22, 46.91 1.33 C56.77 0.44, 66.53 9.1, 66.78 9.72 M39.93 -2.68 C47.27 -4.47, 54.9 -1.22, 61.22 2.64 C67.54 6.51, 75.19 13.45, 77.85 20.5 C80.5 27.56, 77.69 37.63, 77.16 44.99 C76.62 52.34, 78.55 58.99, 74.64 64.63 C70.74 70.26, 60.62 76.06, 53.74 78.77 C46.86 81.49, 40.42 82.68, 33.38 80.9 C26.34 79.12, 16.87 73.85, 11.49 68.09 C6.12 62.33, 2.41 53.42, 1.12 46.36 C-0.18 39.3, 1.16 32.56, 3.72 25.73 C6.27 18.9, 10.79 10.07, 16.47 5.36 C22.14 0.65, 34.35 -2.07, 37.76 -2.54 C41.18 -3, 36.58 1.76, 36.96 2.58" stroke="#f2c02c" stroke-width="4" fill="none"></path></g><g stroke-linecap="round"><g transform="translate(495.57570913608834 96.40082381070576) rotate(0 -11.280349926270901 -0.2547685900465524)" fill-rule="evenodd"><path d="M1.96 -1.46 L20.51 -1.91 L26.21 -0.2 L27.2 3.66 L29.5 11.54 L23.75 25.15 L12.55 40.08 L-0.06 50.96 L-11.67 51.01 L-24.17 47.29 L-40.21 37.08 L-49.54 24.6 L-52.47 18.65 L-49.23 -0.82 L-52.41 -18.01 L-48.27 -26.07 L-38.54 -37.8 L-23.15 -51.03 L-19.51 -51.23 L-2.76 -50.07 L1.95 -50.17 L3.29 -43.32 L3.29 -30.76 L0.15 -24.32 L-6.92 -21.67 L-20.44 -25.17 L-26.48 -24.38 L-27 -22.15 L-26.28 -1.25 L-25.12 18.24 L-26.48 24.74 L-20.95 28.18 L-11.03 27.04 L-4.21 28.45 L1.77 26.27 L3.73 19.56 L1.91 0.48" stroke="none" stroke-width="0" fill="#1e1e1e" fill-rule="evenodd"></path><path d="M0.82 1.09 C5.07 0.8, 21.49 -4.73, 25.59 -0.8 C29.68 3.13, 29.49 16.15, 25.39 24.68 C21.29 33.2, 9.3 46.36, 0.97 50.35 C-7.36 54.33, -16.19 52.96, -24.59 48.6 C-32.99 44.24, -45.39 32.36, -49.43 24.2 C-53.47 16.03, -49.04 7.59, -48.84 -0.4 C-48.64 -8.39, -52.21 -15.77, -48.24 -23.75 C-44.26 -31.73, -33.22 -43.92, -25.01 -48.27 C-16.81 -52.63, -3.11 -53.74, 1.01 -49.87 C5.14 -46.01, 4 -29.34, -0.26 -25.06 C-4.52 -20.79, -20.31 -28.52, -24.56 -24.24 C-28.81 -19.97, -25.9 -7.52, -25.75 0.58 C-25.6 8.68, -27.86 20.29, -23.66 24.36 C-19.46 28.44, -4.61 29.18, -0.55 25.02 C3.51 20.87, 0.62 3.64, 0.69 -0.58 M-0.21 0.61 C3.97 0.37, 20.94 -3.92, 25.14 0.31 C29.35 4.55, 28.93 18.02, 25.02 26.03 C21.12 34.03, 10.23 44.59, 1.72 48.37 C-6.79 52.14, -17.73 52.89, -26.04 48.65 C-34.34 44.41, -44.45 30.76, -48.11 22.93 C-51.77 15.11, -47.88 9.47, -47.98 1.71 C-48.08 -6.05, -52.85 -15.16, -48.73 -23.63 C-44.61 -32.11, -31.13 -44.64, -23.23 -49.15 C-15.33 -53.65, -5.2 -54.8, -1.35 -50.66 C2.51 -46.52, 4.02 -28.68, -0.07 -24.31 C-4.17 -19.95, -21.6 -28.53, -25.94 -24.47 C-30.28 -20.4, -26.46 -8.02, -26.11 0.06 C-25.76 8.15, -28.13 19.93, -23.86 24.04 C-19.59 28.14, -4.22 28.62, -0.51 24.68 C3.21 20.73, -1.42 4.43, -1.58 0.37" stroke="#000000" stroke-width="4" fill="none"></path></g></g><mask></mask><g stroke-linecap="round"><g transform="translate(536.7996028274524 45.36993217148313) rotate(0 36.785639194434225 50.43030293565211)" fill-rule="evenodd"><path d="M-0.2 -0.5 L16.22 -3.16 L19.69 0.38 L30.65 30.81 L37.34 34.67 L43.12 35.59 L44.09 32.64 L50.03 8.52 L54.18 2.27 L59.73 -3.26 L65.64 -4.16 L72.42 0.27 L72.2 11.58 L63.08 30.74 L60.66 36.78 L47.14 50.6 L46.96 55.17 L49.99 95.79 L50.72 96.71 L42.83 102.78 L38.72 105.32 L31.56 101.62 L25.6 99.42 L24.54 89.11 L26.47 65.88 L24.09 56.79 L22.15 48.18 L7.58 30.35 L-0.65 -1.95" stroke="none" stroke-width="0" fill="#1e1e1e" fill-rule="evenodd"></path><path d="M0.96 -0.8 C4.08 -0.88, 14.72 -4.87, 19.56 0.61 C24.41 6.09, 25.79 26.96, 30.03 32.1 C34.27 37.25, 41 36.79, 45 31.46 C49.01 26.14, 49.14 5.16, 54.06 0.13 C58.99 -4.9, 72.15 -2.73, 74.56 1.27 C76.96 5.26, 70.89 17.86, 68.5 24.08 C66.12 30.3, 63.84 33.25, 60.26 38.57 C56.67 43.89, 48.87 46.08, 46.99 55.99 C45.12 65.9, 52.71 90.91, 48.99 98.06 C45.27 105.2, 28.7 105.96, 24.69 98.88 C20.67 91.8, 27.27 67.07, 24.89 55.57 C22.51 44.06, 14.63 39.04, 10.4 29.84 C6.16 20.65, 1.07 5.47, -0.55 0.4 M0.01 1.39 C2.97 2.03, 14.05 -2.65, 19.01 2.18 C23.98 7, 25.4 25.33, 29.78 30.34 C34.15 35.34, 41.48 37.23, 45.27 32.23 C49.05 27.22, 47.95 5.66, 52.5 0.3 C57.04 -5.07, 70.27 -3.8, 72.52 0.02 C74.78 3.83, 68.27 16.74, 66.02 23.19 C63.77 29.65, 62.39 32.95, 59.02 38.74 C55.66 44.53, 47.42 48.16, 45.85 57.94 C44.29 67.71, 53.09 90.35, 49.62 97.37 C46.15 104.39, 28.89 107.05, 25.04 100.06 C21.19 93.08, 28.86 67.31, 26.54 55.45 C24.23 43.58, 15.81 38.05, 11.13 28.88 C6.45 19.71, 0.09 5.47, -1.54 0.42" stroke="#000000" stroke-width="4" fill="none"></path></g></g><mask></mask><g stroke-linecap="round"><g transform="translate(633.5121144979744 151.8894417898643) rotate(0 50.18345053928806 -53.1588819852158)" fill-rule="evenodd"><path d="M-0.91 0.67 L-0.59 -79.46 L-0.2 -99 L6.39 -108.04 L11.66 -107.91 L19.47 -104.47 L24.89 -99.26 L32.58 -86.57 L42.22 -55.27 L44.87 -49.42 L49.18 -47.53 L52.97 -52.34 L55.85 -57.74 L65.99 -88.74 L73.58 -98.52 L79.12 -104.09 L87.74 -108.55 L92.64 -106.12 L99.48 -99.94 L100.74 -76.66 L102.86 -32.23 L96.88 0.32 L98.26 1.9 L96.02 -4.57 L78.1 -44.69 L74.85 -50.38 L70.95 -49.06 L65.8 -45.33 L54.59 -28.44 L47.39 -24.38 L42.45 -31 L29.13 -48.38 L28.94 -51.32 L22.77 -49.13 L16.56 -39.73 L1.28 -0.66" stroke="none" stroke-width="0" fill="#1e1e1e" fill-rule="evenodd"></path><path d="M0.76 0.06 C0.77 -16.04, -3.01 -80.86, 0.97 -97.4 C4.95 -113.93, 16.65 -107.1, 24.66 -99.15 C32.68 -91.19, 40.8 -49.72, 49.07 -49.67 C57.34 -49.63, 65.87 -90.9, 74.28 -98.89 C82.69 -106.89, 95.54 -114.27, 99.51 -97.62 C103.48 -80.98, 102.21 -6.98, 98.1 0.97 C94 8.93, 83.07 -45.53, 74.89 -49.87 C66.7 -54.21, 57.36 -25.23, 48.99 -25.06 C40.62 -24.9, 33.04 -53.14, 24.69 -48.87 C16.33 -44.59, 2.83 -7.52, -1.12 0.58 M-0.29 -0.96 C-0.45 -17.3, -3.51 -82.74, 0.53 -98.94 C4.56 -115.15, 15.8 -106.53, 23.92 -98.17 C32.03 -89.81, 41.03 -48.7, 49.22 -48.79 C57.4 -48.88, 64.93 -90.48, 73.02 -98.71 C81.12 -106.95, 93.54 -114.68, 97.79 -98.2 C102.04 -81.73, 102.44 -7.8, 98.54 0.14 C94.64 8.08, 82.34 -46.68, 74.39 -50.54 C66.44 -54.4, 58.99 -23.26, 50.84 -23.02 C42.69 -22.78, 34.19 -52.66, 25.49 -49.12 C16.78 -45.58, 2.84 -9.84, -1.39 -1.79" stroke="#000000" stroke-width="4" fill="none"></path></g></g><mask></mask><g transform="translate(62.86908481413502 135.51894767329878) rotate(0 -21.300377138998783 -53.88237695240819)" stroke="none"><path fill="#000000" d="M -3.85,2.80 Q -3.85,2.80 -4.30,2.30 -4.75,1.81 -6.02,0.09 -7.29,-1.61 -9.01,-3.77 -10.73,-5.93 -12.21,-7.72 -13.69,-9.52 -15.29,-11.56 -16.88,-13.60 -18.36,-15.61 -19.84,-17.62 -21.04,-19.64 -22.24,-21.65 -23.69,-23.94 -25.14,-26.23 -26.18,-28.09 -27.21,-29.95 -28.29,-32.43 -29.37,-34.92 -30.43,-37.44 -31.49,-39.96 -32.19,-42.19 -32.88,-44.41 -33.74,-46.76 -34.60,-49.10 -36.02,-51.34 -37.44,-53.58 -38.67,-55.43 -39.90,-57.29 -41.03,-59.41 -42.17,-61.53 -43.15,-63.55 -44.13,-65.58 -44.90,-67.69 -45.66,-69.81 -46.23,-72.14 -46.79,-74.47 -47.30,-77.35 -47.80,-80.24 -48.48,-82.36 -49.16,-84.48 -49.71,-87.01 -50.26,-89.53 -50.17,-92.60 -50.07,-95.66 -49.39,-97.73 -48.71,-99.79 -47.31,-101.63 -45.91,-103.47 -43.91,-104.64 -41.91,-105.81 -39.46,-106.49 -37.00,-107.17 -34.41,-107.17 -31.82,-107.18 -34.27,-106.08 -36.72,-104.99 -34.81,-106.12 -32.89,-107.25 -30.61,-107.74 -28.32,-108.22 -26.19,-108.96 -24.07,-109.69 -21.71,-110.85 -19.35,-112.00 -16.47,-112.99 -13.60,-113.97 -11.49,-114.36 -9.38,-114.75 -8.70,-115.03 -8.02,-115.31 -6.75,-115.51 -5.48,-115.70 -4.22,-115.48 -2.95,-115.27 -1.82,-114.65 -0.69,-114.04 0.18,-113.10 1.05,-112.16 1.58,-110.99 2.11,-109.82 2.24,-108.54 2.37,-107.26 2.08,-106.01 1.79,-104.76 1.12,-103.66 0.45,-102.57 -0.53,-101.74 -1.52,-100.92 -2.71,-100.45 -3.91,-99.99 -5.19,-99.93 -6.48,-99.87 -7.71,-100.23 -8.95,-100.58 -10.01,-101.31 -11.06,-102.04 -11.83,-103.07 -12.60,-104.10 -13.00,-105.32 -13.40,-106.54 -13.39,-107.83 -13.38,-109.11 -12.96,-110.33 -12.54,-111.54 -11.75,-112.56 -10.96,-113.57 -9.89,-114.29 -8.82,-115.00 -7.58,-115.33 -6.34,-115.66 -5.06,-115.58 -3.78,-115.50 -2.59,-115.02 -1.40,-114.53 -0.42,-113.69 0.54,-112.85 1.19,-111.74 1.84,-110.63 2.11,-109.38 2.37,-108.12 2.22,-106.84 2.07,-105.57 1.52,-104.41 0.97,-103.24 0.08,-102.32 -0.80,-101.39 -1.94,-100.80 -3.08,-100.21 -3.08,-100.21 -3.08,-100.21 -4.41,-100.01 -5.74,-99.80 -8.22,-99.05 -10.70,-98.30 -12.71,-97.49 -14.71,-96.69 -16.89,-95.92 -19.06,-95.15 -21.32,-94.32 -23.57,-93.49 -21.35,-94.79 -19.12,-96.09 -21.78,-94.57 -24.44,-93.04 -26.86,-92.87 -29.28,-92.70 -31.95,-93.16 -34.62,-93.63 -34.43,-91.43 -34.25,-89.23 -33.57,-86.89 -32.90,-84.56 -32.44,-82.47 -31.98,-80.37 -31.62,-77.98 -31.25,-75.58 -30.53,-73.49 -29.82,-71.39 -28.80,-69.32 -27.78,-67.24 -26.73,-65.30 -25.68,-63.35 -24.36,-61.55 -23.04,-59.74 -21.87,-57.43 -20.70,-55.11 -19.97,-53.10 -19.23,-51.09 -18.40,-48.31 -17.57,-45.52 -16.79,-43.31 -16.01,-41.09 -15.23,-38.99 -14.45,-36.88 -13.43,-34.71 -12.41,-32.54 -11.09,-30.24 -9.77,-27.93 -8.76,-25.92 -7.75,-23.91 -6.60,-21.96 -5.46,-20.00 -4.28,-18.16 -3.10,-16.32 -1.97,-14.46 -0.83,-12.61 0.09,-10.55 1.03,-8.48 2.11,-6.21 3.20,-3.94 3.52,-3.37 3.85,-2.80 4.12,-2.29 4.40,-1.79 4.55,-1.24 4.71,-0.69 4.72,-0.11 4.73,0.45 4.61,1.01 4.49,1.57 4.23,2.09 3.98,2.60 3.61,3.04 3.24,3.48 2.77,3.82 2.31,4.16 1.78,4.37 1.25,4.59 0.68,4.67 0.11,4.75 -0.45,4.70 -1.02,4.64 -1.56,4.45 -2.10,4.26 -2.58,3.95 -3.06,3.64 -3.45,3.22 -3.85,2.79 -3.85,2.80 L -3.85,2.80 Z"></path></g><g transform="translate(32.39186535042927 41.22478800658445) rotate(0 -1.8522067077390147 12.965446954173217)" stroke="none"><path fill="#000000" d="M 3.85,2.75 Q 3.85,2.75 3.44,3.48 3.03,4.21 2.33,6.76 1.63,9.31 2.24,11.36 2.86,13.42 3.51,15.67 4.16,17.93 4.46,20.13 4.76,22.34 4.86,24.13 4.96,25.93 4.78,27.01 4.60,28.10 4.09,29.08 3.57,30.05 2.77,30.81 1.97,31.57 0.97,32.03 -0.02,32.50 -1.12,32.62 -2.22,32.73 -3.29,32.50 -4.37,32.26 -5.32,31.69 -6.26,31.12 -6.98,30.28 -7.69,29.44 -8.10,28.42 -8.51,27.39 -8.57,26.29 -8.63,25.19 -8.33,24.12 -8.04,23.06 -7.42,22.15 -6.80,21.24 -5.92,20.57 -5.04,19.90 -3.99,19.55 -2.95,19.20 -1.85,19.20 -0.74,19.20 0.29,19.55 1.34,19.90 2.22,20.57 3.09,21.24 3.71,22.15 4.33,23.06 4.63,24.13 4.92,25.19 4.86,26.29 4.80,27.39 4.39,28.42 3.98,29.44 3.27,30.28 2.56,31.12 1.61,31.69 0.67,32.26 -0.40,32.50 -1.48,32.73 -2.58,32.62 -3.67,32.50 -4.67,32.03 -5.68,31.57 -6.48,30.81 -7.28,30.05 -7.79,29.08 -8.31,28.10 -8.49,27.01 -8.67,25.92 -8.67,25.92 -8.67,25.93 -8.70,24.41 -8.74,22.89 -8.73,20.51 -8.71,18.13 -8.95,15.57 -9.19,13.00 -9.30,10.22 -9.41,7.43 -8.34,4.92 -7.28,2.40 -6.12,0.45 -4.97,-1.50 -4.41,-2.12 -3.85,-2.75 -3.46,-3.17 -3.08,-3.59 -2.60,-3.91 -2.13,-4.22 -1.59,-4.42 -1.05,-4.61 -0.49,-4.67 0.07,-4.73 0.64,-4.65 1.20,-4.58 1.73,-4.37 2.26,-4.15 2.73,-3.82 3.19,-3.49 3.57,-3.06 3.94,-2.62 4.19,-2.11 4.45,-1.60 4.58,-1.05 4.71,-0.49 4.70,0.07 4.69,0.64 4.54,1.19 4.40,1.75 4.12,2.25 3.85,2.75 3.85,2.75 L 3.85,2.75 Z"></path></g><g transform="translate(19.594800824232152 61.09391450778497) rotate(0 -0.5893384979169696 -8.755886254766324)" stroke="none"><path fill="#000000" d="M -4.24,2.23 Q -4.24,2.23 -4.82,1.36 -5.39,0.48 -6.52,-1.73 -7.65,-3.96 -7.93,-6.69 -8.22,-9.43 -7.69,-11.56 -7.16,-13.69 -5.81,-16.65 -4.45,-19.60 -3.96,-20.50 -3.47,-21.40 -2.72,-22.09 -1.97,-22.79 -1.03,-23.21 -0.10,-23.63 0.91,-23.72 1.93,-23.82 2.93,-23.59 3.93,-23.36 4.80,-22.82 5.67,-22.28 6.32,-21.49 6.97,-20.70 7.34,-19.75 7.71,-18.79 7.75,-17.77 7.79,-16.75 7.51,-15.76 7.22,-14.78 6.64,-13.94 6.05,-13.10 5.23,-12.49 4.41,-11.88 3.43,-11.56 2.46,-11.25 1.43,-11.26 0.41,-11.27 -0.55,-11.61 -1.51,-11.95 -2.32,-12.58 -3.13,-13.21 -3.69,-14.07 -4.26,-14.92 -4.52,-15.91 -4.78,-16.90 -4.71,-17.92 -4.64,-18.94 -4.25,-19.89 -3.86,-20.84 -3.19,-21.61 -2.52,-22.38 -1.63,-22.90 -0.75,-23.42 0.24,-23.62 1.25,-23.83 2.26,-23.71 3.28,-23.58 4.20,-23.14 5.13,-22.70 5.86,-21.99 6.60,-21.27 7.07,-20.36 7.53,-19.45 7.69,-18.44 7.84,-17.43 7.66,-16.42 7.48,-15.41 7.48,-15.41 7.48,-15.41 6.74,-13.69 5.99,-11.97 4.21,-10.34 2.44,-8.71 2.94,-6.44 3.45,-4.16 3.85,-3.20 4.24,-2.23 4.45,-1.69 4.66,-1.15 4.73,-0.58 4.80,-0.00 4.73,0.56 4.66,1.14 4.45,1.68 4.25,2.22 3.92,2.70 3.59,3.18 3.16,3.56 2.73,3.94 2.21,4.21 1.70,4.48 1.14,4.62 0.58,4.76 0.00,4.76 -0.57,4.76 -1.13,4.62 -1.69,4.49 -2.21,4.22 -2.72,3.95 -3.15,3.57 -3.59,3.18 -3.92,2.71 -4.24,2.23 -4.24,2.23 L -4.24,2.23 Z"></path></g><g transform="translate(60.174965966515174 29.43801804824517) rotate(0 99.9349710039196 1.6838242797627458)" stroke="none"><path fill="#000000" d="M -0.58,-4.87 Q -0.58,-4.87 0.61,-5.11 1.81,-5.36 4.29,-5.88 6.78,-6.41 9.03,-6.61 11.28,-6.80 13.59,-7.20 15.90,-7.60 18.60,-8.08 21.30,-8.55 23.80,-8.87 26.30,-9.19 28.50,-9.55 30.70,-9.92 33.24,-10.45 35.78,-10.98 38.16,-11.49 40.54,-12.01 43.23,-12.43 45.92,-12.86 48.32,-13.04 50.72,-13.23 52.85,-13.36 54.98,-13.48 57.56,-13.58 60.14,-13.69 62.69,-13.73 65.24,-13.77 68.17,-13.74 71.10,-13.70 73.24,-13.62 75.39,-13.54 78.26,-13.40 81.14,-13.26 83.37,-13.25 85.61,-13.24 88.34,-13.11 91.08,-12.97 93.45,-12.89 95.82,-12.80 98.05,-12.73 100.29,-12.65 102.85,-12.59 105.41,-12.53 107.61,-12.45 109.81,-12.38 112.21,-12.19 114.62,-12.01 116.92,-11.80 119.22,-11.59 121.58,-11.44 123.95,-11.29 126.25,-11.03 128.55,-10.77 130.71,-10.46 132.87,-10.15 135.19,-9.96 137.52,-9.78 140.19,-9.53 142.87,-9.28 145.32,-9.01 147.77,-8.74 150.10,-8.40 152.42,-8.07 154.61,-7.63 156.80,-7.19 159.41,-6.89 162.03,-6.58 164.21,-6.32 166.38,-6.06 168.53,-5.73 170.68,-5.40 172.92,-4.95 175.17,-4.50 177.40,-3.94 179.64,-3.38 182.27,-2.65 184.90,-1.91 187.66,-0.93 190.41,0.04 192.74,0.66 195.06,1.27 197.91,1.85 200.77,2.42 198.08,2.88 195.40,3.35 193.78,5.60 192.16,7.86 192.57,10.19 192.99,12.53 190.85,12.66 188.70,12.80 186.33,12.15 183.97,11.50 181.56,10.88 179.16,10.26 177.00,9.70 174.85,9.14 172.60,8.52 170.34,7.90 168.21,7.50 166.09,7.10 163.14,6.75 160.20,6.40 157.88,6.30 155.56,6.20 153.27,6.10 150.98,6.00 148.74,5.94 146.50,5.88 144.22,5.78 141.95,5.69 139.80,5.60 137.66,5.51 135.22,5.29 132.78,5.06 130.19,4.80 127.59,4.54 125.29,4.20 122.98,3.86 120.75,3.50 118.51,3.15 116.15,2.97 113.79,2.79 111.62,2.62 109.45,2.46 107.50,2.40 105.54,2.35 104.34,2.12 103.13,1.89 102.07,1.29 101.00,0.69 100.18,-0.21 99.36,-1.13 98.87,-2.25 98.39,-3.38 98.29,-4.60 98.18,-5.82 98.48,-7.01 98.77,-8.20 99.43,-9.24 100.09,-10.27 101.05,-11.04 102.00,-11.81 103.15,-12.23 104.30,-12.66 105.53,-12.69 106.76,-12.73 107.93,-12.37 109.10,-12.01 110.10,-11.29 111.09,-10.58 111.81,-9.58 112.53,-8.59 112.89,-7.42 113.25,-6.24 113.22,-5.02 113.18,-3.79 112.76,-2.64 112.34,-1.49 111.57,-0.53 110.81,0.41 109.77,1.07 108.74,1.73 107.55,2.03 106.36,2.33 105.14,2.23 103.92,2.13 102.79,1.65 101.66,1.16 100.75,0.35 99.84,-0.46 99.23,-1.53 98.63,-2.60 98.40,-3.80 98.16,-5.00 98.33,-6.22 98.49,-7.43 99.04,-8.53 99.58,-9.63 100.45,-10.50 101.31,-11.37 102.41,-11.91 103.51,-12.46 104.72,-12.62 105.94,-12.79 105.94,-12.79 105.94,-12.79 110.15,-12.62 114.37,-12.46 116.58,-12.28 118.79,-12.11 121.16,-11.83 123.53,-11.54 125.95,-11.22 128.38,-10.89 130.53,-10.60 132.69,-10.32 135.23,-10.10 137.77,-9.88 139.96,-9.79 142.14,-9.70 144.66,-9.61 147.19,-9.52 149.99,-9.36 152.79,-9.20 154.94,-9.14 157.09,-9.08 159.37,-8.98 161.65,-8.88 164.08,-8.62 166.51,-8.37 168.81,-8.06 171.10,-7.75 173.45,-7.20 175.79,-6.65 177.91,-6.12 180.02,-5.59 182.08,-5.03 184.14,-4.47 186.83,-3.78 189.53,-3.09 191.60,-2.56 193.67,-2.02 196.27,-1.28 198.88,-0.54 201.02,0.43 203.17,1.41 205.21,3.96 207.26,6.52 207.39,8.70 207.53,10.88 205.80,13.43 204.08,15.98 200.81,16.68 197.55,17.37 195.21,17.00 192.87,16.63 189.92,15.96 186.96,15.29 184.87,14.52 182.78,13.74 180.46,12.96 178.13,12.18 175.98,11.60 173.84,11.02 171.57,10.51 169.30,10.01 166.62,9.62 163.93,9.23 161.75,8.95 159.56,8.67 157.20,8.40 154.84,8.14 152.38,7.65 149.93,7.16 147.66,6.82 145.39,6.49 142.93,6.23 140.48,5.97 137.75,5.76 135.03,5.55 132.90,5.37 130.77,5.20 128.35,4.83 125.93,4.47 123.42,4.23 120.91,3.98 118.56,3.82 116.21,3.66 114.10,3.37 111.98,3.07 109.68,2.91 107.38,2.75 105.07,2.65 102.75,2.56 100.44,2.53 98.13,2.50 95.38,2.32 92.62,2.15 90.25,2.04 87.87,1.94 85.31,1.85 82.75,1.77 80.48,1.67 78.20,1.57 75.49,1.38 72.77,1.19 70.33,1.10 67.88,1.00 65.39,0.98 62.91,0.96 60.42,1.01 57.93,1.07 55.52,1.07 53.12,1.07 50.52,1.20 47.92,1.32 45.41,1.62 42.91,1.92 40.69,2.32 38.48,2.72 35.84,3.18 33.19,3.63 30.33,3.98 27.47,4.32 24.51,4.44 21.56,4.55 19.20,4.83 16.85,5.12 14.55,5.15 12.25,5.19 9.92,5.00 7.59,4.80 5.31,4.79 3.02,4.78 1.80,4.82 0.58,4.87 -0.00,4.87 -0.59,4.87 -1.17,4.72 -1.74,4.58 -2.27,4.31 -2.79,4.03 -3.23,3.64 -3.67,3.24 -4.01,2.76 -4.34,2.27 -4.55,1.72 -4.76,1.16 -4.83,0.58 -4.90,-0.00 -4.83,-0.59 -4.76,-1.18 -4.55,-1.73 -4.34,-2.28 -4.00,-2.77 -3.66,-3.25 -3.22,-3.65 -2.78,-4.04 -2.25,-4.31 -1.73,-4.59 -1.15,-4.73 -0.58,-4.87 -0.58,-4.87 L -0.58,-4.87 Z"></path></g><g transform="translate(50.40878514389124 25.73360463276711) rotate(0 19.953317715188632 -1.515441851786484)" stroke="none"><path fill="#000000" d="M 0,-5.11 Q 0,-5.11 2.03,-5.18 4.06,-5.25 6.47,-5.41 8.87,-5.57 11.21,-5.97 13.55,-6.38 15.95,-6.91 18.35,-7.44 20.95,-8.09 23.55,-8.74 26.05,-9.19 28.55,-9.64 31.06,-9.74 33.58,-9.85 39.64,-7.99 45.70,-6.13 46.20,-5.09 46.70,-4.06 46.85,-2.92 47.00,-1.78 46.78,-0.65 46.55,0.46 45.98,1.46 45.41,2.46 44.55,3.22 43.69,3.98 42.63,4.43 41.57,4.88 40.43,4.96 39.28,5.05 38.17,4.77 37.06,4.48 36.09,3.86 35.13,3.23 34.41,2.33 33.70,1.43 33.31,0.35 32.92,-0.72 32.89,-1.87 32.87,-3.02 33.21,-4.11 33.56,-5.21 34.23,-6.14 34.91,-7.07 35.85,-7.73 36.78,-8.40 37.88,-8.73 38.99,-9.06 40.13,-9.02 41.28,-8.98 42.36,-8.58 43.44,-8.18 44.33,-7.45 45.22,-6.73 45.83,-5.75 46.44,-4.78 46.71,-3.67 46.99,-2.55 46.88,-1.40 46.78,-0.26 46.32,0.78 45.86,1.84 45.09,2.69 44.32,3.54 43.31,4.10 42.31,4.66 41.18,4.87 40.05,5.08 38.91,4.91 37.77,4.75 36.75,4.23 35.72,3.72 34.91,2.90 34.11,2.08 34.11,2.08 34.11,2.08 35.12,3.15 36.13,4.21 33.81,4.05 31.48,3.90 29.18,4.03 26.88,4.16 24.63,4.46 22.38,4.76 20.01,4.76 17.63,4.75 15.38,5.24 13.13,5.72 11.00,5.64 8.87,5.57 6.47,5.41 4.06,5.25 2.03,5.18 0,5.11 -0.61,5.03 -1.22,4.96 -1.80,4.74 -2.37,4.52 -2.88,4.17 -3.39,3.82 -3.79,3.36 -4.20,2.90 -4.49,2.35 -4.78,1.81 -4.92,1.21 -5.07,0.61 -5.07,-0.00 -5.07,-0.61 -4.92,-1.21 -4.78,-1.81 -4.49,-2.35 -4.20,-2.90 -3.79,-3.36 -3.39,-3.82 -2.88,-4.17 -2.37,-4.52 -1.79,-4.74 -1.22,-4.96 -0.61,-5.03 0.00,-5.11 0.00,-5.11 L 0,-5.11 Z"></path></g><g transform="translate(235.62945591779453 38.19390430301149) rotate(0 10.018754464588483 29.045968825907536)" stroke="none"><path fill="#000000" d="M 2.10,-4.57 Q 2.10,-4.57 3.40,-4.07 4.70,-3.58 7.08,-2.09 9.46,-0.60 11.30,1.02 13.14,2.65 14.88,4.49 16.63,6.34 18.05,7.94 19.46,9.54 21.06,11.51 22.65,13.49 23.49,15.56 24.34,17.63 25.11,20.16 25.88,22.68 26.37,25.00 26.87,27.31 27.05,29.44 27.24,31.58 26.85,34.17 26.45,36.77 25.57,39.03 24.69,41.29 23.47,43.50 22.25,45.70 20.95,47.89 19.65,50.07 18.45,52.00 17.26,53.93 15.70,56.28 14.14,58.64 13.36,59.97 12.57,61.31 11.87,62.32 11.18,63.33 10.20,64.06 9.22,64.80 8.06,65.18 6.90,65.56 5.67,65.56 4.45,65.55 3.29,65.15 2.13,64.75 1.16,64.00 0.19,63.26 -0.48,62.24 -1.16,61.22 -1.48,60.04 -1.80,58.86 -1.72,57.63 -1.65,56.41 -1.19,55.28 -0.73,54.14 0.06,53.21 0.86,52.29 1.91,51.66 2.97,51.04 4.16,50.78 5.36,50.53 6.58,50.67 7.79,50.81 8.90,51.33 10.01,51.85 10.89,52.70 11.78,53.55 12.34,54.63 12.91,55.72 13.10,56.93 13.29,58.14 13.08,59.34 12.88,60.55 12.29,61.63 11.71,62.71 10.82,63.54 9.92,64.38 8.81,64.89 7.70,65.39 6.48,65.52 5.26,65.64 4.06,65.37 2.87,65.10 1.83,64.46 0.78,63.82 -0.00,62.88 -0.78,61.94 -1.23,60.80 -1.67,59.66 -1.73,58.44 -1.79,57.22 -1.45,56.04 -1.12,54.86 -1.12,54.86 -1.12,54.86 0.13,52.70 1.38,50.54 2.70,48.64 4.02,46.73 5.31,44.71 6.61,42.69 7.82,40.81 9.03,38.93 10.29,36.82 11.55,34.72 12.24,32.38 12.93,30.04 12.54,27.76 12.16,25.47 11.72,23.29 11.29,21.11 10.18,19.26 9.07,17.41 7.57,15.46 6.07,13.51 4.67,11.49 3.27,9.47 1.80,7.69 0.32,5.90 -0.89,5.23 -2.10,4.57 -2.62,4.25 -3.14,3.93 -3.56,3.50 -3.99,3.06 -4.30,2.54 -4.61,2.02 -4.78,1.44 -4.96,0.86 -4.99,0.25 -5.02,-0.35 -4.90,-0.94 -4.79,-1.54 -4.53,-2.09 -4.28,-2.64 -3.90,-3.11 -3.52,-3.59 -3.04,-3.96 -2.56,-4.33 -2.00,-4.57 -1.45,-4.82 -0.85,-4.92 -0.25,-5.02 0.34,-4.98 0.95,-4.94 1.53,-4.75 2.11,-4.57 2.11,-4.57 L 2.10,-4.57 Z"></path></g><g transform="translate(216.43385912849863 131.14100454591562) rotate(0 11.786769958339164 -17.76434615149708)" stroke="none"><path fill="#000000" d="M -4.23,-2.54 Q -4.23,-2.54 -3.87,-3.31 -3.50,-4.08 -2.31,-6.05 -1.11,-8.03 0.37,-9.86 1.86,-11.70 3.21,-13.91 4.56,-16.12 5.59,-17.98 6.62,-19.85 7.85,-21.83 9.07,-23.81 10.46,-25.97 11.85,-28.13 12.87,-30.07 13.89,-32.01 14.91,-34.10 15.93,-36.20 16.44,-37.18 16.94,-38.16 17.54,-39.15 18.13,-40.14 19.01,-40.88 19.89,-41.63 20.96,-42.06 22.03,-42.49 23.19,-42.55 24.34,-42.61 25.45,-42.30 26.56,-41.99 27.52,-41.35 28.47,-40.70 29.17,-39.78 29.87,-38.86 30.23,-37.77 30.60,-36.68 30.60,-35.53 30.60,-34.37 30.24,-33.28 29.87,-32.19 29.17,-31.27 28.47,-30.35 27.52,-29.70 26.56,-29.05 25.45,-28.75 24.34,-28.44 23.19,-28.50 22.04,-28.56 20.97,-28.99 19.89,-29.41 19.01,-30.16 18.14,-30.91 17.54,-31.90 16.95,-32.88 16.70,-34.01 16.45,-35.14 16.57,-36.28 16.70,-37.43 17.18,-38.48 17.67,-39.52 18.46,-40.36 19.25,-41.20 20.27,-41.74 21.29,-42.28 22.43,-42.47 23.57,-42.65 24.71,-42.47 25.84,-42.28 26.86,-41.74 27.88,-41.20 28.68,-40.36 29.47,-39.52 29.95,-38.48 30.44,-37.43 30.56,-36.28 30.69,-35.14 30.44,-34.01 30.19,-32.88 30.19,-32.89 30.19,-32.89 28.58,-29.89 26.97,-26.89 25.92,-24.89 24.87,-22.90 23.64,-21.07 22.41,-19.23 20.75,-16.98 19.10,-14.73 17.60,-12.73 16.11,-10.73 14.45,-8.42 12.79,-6.11 10.76,-4.12 8.72,-2.13 6.98,-0.47 5.25,1.17 4.74,1.85 4.23,2.54 3.87,3.01 3.50,3.48 3.03,3.85 2.56,4.21 2.02,4.46 1.48,4.71 0.89,4.82 0.31,4.93 -0.28,4.89 -0.87,4.86 -1.44,4.68 -2.01,4.51 -2.52,4.20 -3.03,3.89 -3.45,3.47 -3.87,3.05 -4.18,2.55 -4.49,2.04 -4.67,1.47 -4.85,0.90 -4.89,0.31 -4.93,-0.28 -4.82,-0.86 -4.72,-1.45 -4.47,-1.99 -4.23,-2.54 -4.23,-2.54 L -4.23,-2.54 Z"></path></g><g transform="translate(257.5191715547098 52.33802825301862) rotate(0 -1.3470594238101512 7.9981653288731)" stroke="none"><path fill="#000000" d="M -4.63,1.60 Q -4.63,1.60 -5.16,0.38 -5.69,-0.83 -3.42,-0.05 -1.16,0.71 -0.52,-1.98 0.12,-4.68 -2.37,-5.99 -4.86,-7.30 -4.32,-4.88 -3.78,-2.46 -1.62,-1.80 0.53,-1.14 0.97,-3.76 1.40,-6.37 -1.15,-8.24 -3.71,-10.10 -2.21,-11.92 -0.71,-13.74 -0.21,-13.97 0.27,-14.20 0.86,-14.80 1.44,-15.41 2.16,-15.86 2.87,-16.31 3.67,-16.57 4.47,-16.83 5.31,-16.90 6.15,-16.96 6.99,-16.83 7.82,-16.69 8.59,-16.35 9.37,-16.02 10.04,-15.51 10.71,-15.00 11.24,-14.35 11.78,-13.69 12.13,-12.93 12.49,-12.17 12.66,-11.34 12.82,-10.51 12.79,-9.67 12.75,-8.83 12.51,-8.02 12.28,-7.21 11.85,-6.48 11.43,-5.75 12.09,-8.44 12.75,-11.14 12.96,-8.66 13.16,-6.19 13.14,-3.82 13.12,-1.46 12.83,1.28 12.55,4.03 12.13,6.20 11.72,8.37 10.93,10.52 10.15,12.68 9.65,15.06 9.15,17.44 8.50,19.86 7.85,22.28 5.82,24.41 3.80,26.54 1.90,27.68 0.01,28.83 -1.79,30.29 -3.59,31.75 -3.58,31.72 -3.57,31.68 -4.34,32.20 -5.10,32.73 -5.97,33.05 -6.84,33.37 -7.76,33.48 -8.68,33.59 -9.60,33.47 -10.52,33.35 -11.39,33.02 -12.25,32.69 -13.01,32.16 -13.77,31.62 -14.38,30.93 -14.99,30.23 -15.42,29.41 -15.84,28.58 -16.06,27.68 -16.28,26.78 -16.27,25.85 -16.27,24.93 -16.04,24.03 -15.81,23.13 -15.38,22.31 -14.94,21.49 -14.32,20.80 -13.70,20.11 -13.63,17.32 -13.55,14.53 -13.59,14.63 -13.62,14.73 -13.46,13.81 -13.29,12.89 -12.91,12.04 -12.53,11.19 -11.96,10.45 -11.38,9.72 -10.65,9.14 -9.92,8.56 -9.07,8.18 -8.22,7.79 -7.30,7.62 -6.38,7.45 -5.45,7.50 -4.52,7.56 -3.63,7.83 -2.74,8.11 -1.94,8.59 -1.14,9.07 -0.48,9.73 0.18,10.38 0.66,11.18 1.15,11.98 1.43,12.87 1.71,13.76 1.77,14.69 1.82,15.62 1.60,17.90 1.37,20.17 1.10,22.06 0.83,23.94 0.57,25.17 0.30,26.39 -0.33,27.47 -0.97,28.55 -1.92,29.37 -2.87,30.18 -4.03,30.65 -5.19,31.12 -6.44,31.20 -7.69,31.27 -8.90,30.94 -10.11,30.62 -11.15,29.92 -12.19,29.22 -12.96,28.23 -13.72,27.23 -14.13,26.05 -14.54,24.86 -14.54,23.61 -14.55,22.36 -14.16,21.17 -13.76,19.98 -13.01,18.98 -12.26,17.97 -11.22,17.27 -10.19,16.56 -8.98,16.21 -7.78,15.87 -6.53,15.93 -5.28,15.99 -4.11,16.45 -2.94,16.91 -1.98,17.72 -1.02,18.52 -0.37,19.59 0.27,20.66 0.55,21.88 0.82,23.11 0.69,24.35 0.57,25.60 0.05,26.74 -0.46,27.88 -1.32,28.79 -2.18,29.71 -3.28,30.30 -4.39,30.90 -5.62,31.10 -6.86,31.31 -8.09,31.12 -9.33,30.92 -10.44,30.34 -11.55,29.76 -12.42,28.85 -13.29,27.95 -13.82,26.82 -14.35,25.68 -14.49,24.44 -14.64,23.19 -14.64,23.19 -14.64,23.19 -14.13,18.96 -13.62,14.73 -13.46,13.81 -13.29,12.89 -12.91,12.04 -12.53,11.19 -11.96,10.45 -11.38,9.72 -10.65,9.14 -9.92,8.56 -9.07,8.18 -8.22,7.79 -7.30,7.62 -6.38,7.45 -5.45,7.50 -4.52,7.56 -3.63,7.83 -2.74,8.11 -1.94,8.59 -1.14,9.07 -0.48,9.73 0.18,10.38 0.66,11.18 1.15,11.98 1.43,12.87 1.71,13.76 1.77,14.69 1.82,15.62 1.72,16.80 1.62,17.97 1.11,20.35 0.61,22.73 -0.22,25.04 -1.06,27.35 -2.31,29.51 -3.57,31.68 -4.34,32.20 -5.10,32.73 -5.97,33.05 -6.84,33.37 -7.76,33.48 -8.68,33.59 -9.60,33.47 -10.52,33.35 -11.38,33.02 -12.25,32.69 -13.01,32.16 -13.77,31.62 -14.38,30.93 -14.99,30.23 -15.42,29.41 -15.84,28.58 -16.06,27.68 -16.28,26.78 -16.27,25.86 -16.27,24.93 -16.04,24.03 -15.81,23.13 -15.38,22.31 -14.94,21.49 -14.32,20.80 -13.70,20.11 -13.37,19.91 -13.04,19.71 -11.18,18.16 -9.33,16.60 -7.45,15.40 -5.56,14.21 -5.07,12.12 -4.57,10.03 -3.80,7.94 -3.04,5.86 -2.44,3.76 -1.84,1.66 -1.47,-1.13 -1.10,-3.94 -1.05,-6.25 -0.99,-8.57 -0.36,-11.38 0.27,-14.20 0.86,-14.80 1.44,-15.41 2.16,-15.86 2.87,-16.30 3.67,-16.57 4.47,-16.83 5.31,-16.90 6.15,-16.96 6.99,-16.83 7.82,-16.69 8.59,-16.35 9.37,-16.02 10.04,-15.51 10.71,-15.00 11.24,-14.35 11.77,-13.69 12.13,-12.93 12.49,-12.17 12.66,-11.34 12.82,-10.51 12.79,-9.67 12.75,-8.83 12.51,-8.02 12.28,-7.21 11.85,-6.48 11.43,-5.75 11.74,-6.30 12.06,-6.85 10.20,-4.80 8.35,-2.76 6.40,-1.70 4.45,-0.64 2.62,0.64 0.79,1.93 -2.60,2.04 -6.01,2.15 -7.64,0.44 -9.28,-1.27 -9.28,-4.88 -9.27,-8.49 -6.79,-10.60 -4.31,-12.71 -1.16,-12.18 1.99,-11.64 3.59,-9.98 5.19,-8.32 5.11,-5.94 5.03,-3.56 3.96,-1.50 2.89,0.56 0.84,2.02 -1.20,3.48 -4.34,2.22 -7.49,0.96 -7.81,-2.43 -8.13,-5.83 -6.12,-7.33 -4.10,-8.83 -1.92,-8.73 0.26,-8.64 2.10,-6.42 3.95,-4.20 4.29,-2.90 4.63,-1.60 4.76,-1.02 4.88,-0.44 4.86,0.14 4.85,0.73 4.69,1.30 4.53,1.87 4.24,2.38 3.95,2.90 3.54,3.33 3.14,3.76 2.64,4.08 2.15,4.40 1.59,4.60 1.03,4.79 0.44,4.84 -0.14,4.90 -0.72,4.81 -1.31,4.72 -1.85,4.50 -2.40,4.27 -2.88,3.92 -3.35,3.57 -3.73,3.12 -4.11,2.66 -4.37,2.13 -4.63,1.60 -4.63,1.60 L -4.63,1.60 Z"></path></g><g transform="translate(222.1588616796921 132.99321125365464) rotate(0 14.98603608988833 -26.09927633632273)" stroke="none"><path fill="#000000" d="M 4.20,2.10 Q 4.20,2.10 3.98,2.71 3.76,3.33 2.69,1.16 1.62,-1.00 -0.44,0.12 -2.50,1.26 -2.78,-0.87 -3.06,-3.00 -2.06,-5.25 -1.07,-7.49 0.26,-9.67 1.59,-11.84 2.52,-13.76 3.45,-15.67 4.32,-17.86 5.19,-20.05 6.13,-22.21 7.07,-24.38 7.93,-26.41 8.78,-28.45 9.63,-30.51 10.49,-32.57 11.60,-34.83 12.71,-37.10 13.63,-39.08 14.55,-41.07 15.88,-43.79 17.22,-46.51 18.56,-48.88 19.90,-51.25 20.84,-53.56 21.77,-55.86 22.83,-57.70 23.88,-59.55 24.49,-60.64 25.10,-61.73 26.03,-62.57 26.96,-63.41 28.11,-63.90 29.25,-64.40 30.50,-64.51 31.74,-64.61 32.96,-64.32 34.17,-64.02 35.23,-63.35 36.29,-62.68 37.07,-61.71 37.86,-60.74 38.30,-59.56 38.73,-58.39 38.77,-57.14 38.81,-55.89 38.45,-54.70 38.08,-53.50 37.36,-52.48 36.63,-51.46 35.62,-50.73 34.60,-50.00 33.41,-49.62 32.22,-49.25 30.97,-49.28 29.72,-49.31 28.54,-49.74 27.37,-50.17 26.39,-50.95 25.41,-51.73 24.73,-52.78 24.06,-53.83 23.75,-55.04 23.44,-56.25 23.54,-57.50 23.64,-58.75 24.13,-59.90 24.62,-61.05 25.45,-61.98 26.28,-62.92 27.37,-63.53 28.45,-64.15 29.68,-64.39 30.91,-64.63 32.15,-64.47 33.39,-64.30 34.51,-63.75 35.63,-63.20 36.52,-62.32 37.41,-61.44 37.97,-60.32 38.53,-59.20 38.70,-57.96 38.87,-56.73 38.64,-55.50 38.41,-54.27 38.41,-54.27 38.41,-54.27 37.14,-51.96 35.87,-49.64 34.89,-47.37 33.91,-45.09 32.86,-43.11 31.82,-41.12 30.61,-39.12 29.40,-37.13 28.26,-34.84 27.12,-32.56 26.14,-30.59 25.16,-28.63 23.94,-26.22 22.72,-23.82 21.76,-21.76 20.80,-19.70 19.74,-17.77 18.69,-15.83 17.67,-13.61 16.66,-11.40 15.49,-9.25 14.32,-7.10 12.98,-5.40 11.64,-3.70 10.02,-1.78 8.40,0.13 7.56,2.36 6.72,4.59 5.37,6.34 4.01,8.09 0.26,7.89 -3.48,7.68 -4.77,5.72 -6.05,3.75 -5.49,1.37 -4.92,-1.01 -4.56,-1.55 -4.20,-2.10 -3.89,-2.57 -3.58,-3.05 -3.16,-3.43 -2.74,-3.81 -2.25,-4.09 -1.75,-4.36 -1.20,-4.51 -0.65,-4.65 -0.09,-4.67 0.47,-4.68 1.02,-4.55 1.58,-4.43 2.08,-4.17 2.59,-3.92 3.02,-3.55 3.46,-3.18 3.79,-2.72 4.12,-2.26 4.33,-1.74 4.54,-1.21 4.62,-0.65 4.70,-0.09 4.64,0.47 4.59,1.03 4.39,1.57 4.20,2.10 4.20,2.10 L 4.20,2.10 Z"></path></g><g transform="translate(228.89415879874286 128.61526812627147) rotate(0 -3.030883703572954 4.798899197323863)" stroke="none"><path fill="#000000" d="M 4.11,2.51 Q 4.11,2.51 3.66,3.43 3.22,4.36 2.33,6.53 1.44,8.70 -0.08,10.82 -1.60,12.94 -2.12,13.40 -2.64,13.85 -3.26,14.17 -3.88,14.49 -4.56,14.65 -5.23,14.81 -5.93,14.81 -6.62,14.81 -7.29,14.63 -7.97,14.46 -8.58,14.14 -9.19,13.81 -9.71,13.35 -10.23,12.88 -10.62,12.31 -11.01,11.73 -11.25,11.08 -11.49,10.43 -11.57,9.74 -11.65,9.05 -11.56,8.36 -11.48,7.67 -11.23,7.02 -10.97,6.37 -10.58,5.81 -10.18,5.24 -9.84,4.92 -9.51,4.60 -8.69,4.14 -7.88,3.68 -6.97,3.50 -6.05,3.33 -5.13,3.45 -4.20,3.57 -3.37,3.99 -2.53,4.40 -1.87,5.06 -1.21,5.72 -0.79,6.55 -0.38,7.39 -0.25,8.31 -0.13,9.24 -0.30,10.15 -0.47,11.07 -0.93,11.88 -1.39,12.69 -2.08,13.32 -2.78,13.94 -3.63,14.31 -4.49,14.68 -5.42,14.76 -6.35,14.83 -7.26,14.61 -8.16,14.39 -8.95,13.88 -9.73,13.38 -10.32,12.66 -10.90,11.93 -11.23,11.06 -11.55,10.18 -11.58,9.25 -11.60,8.32 -11.33,7.42 -11.06,6.53 -10.51,5.77 -9.97,5.02 -9.21,4.47 -8.46,3.93 -7.56,3.65 -6.67,3.38 -5.74,3.40 -4.81,3.42 -3.93,3.75 -3.06,4.07 -2.33,4.65 -1.60,5.23 -1.10,6.02 -0.59,6.80 -0.37,7.71 -0.14,8.61 -0.22,9.54 -0.29,10.47 -0.66,11.33 -1.03,12.19 -1.31,12.56 -1.60,12.94 -2.12,13.40 -2.64,13.85 -3.26,14.17 -3.88,14.49 -4.56,14.65 -5.23,14.81 -5.93,14.81 -6.62,14.81 -7.29,14.64 -7.97,14.46 -8.58,14.14 -9.19,13.81 -9.71,13.35 -10.23,12.88 -10.62,12.31 -11.01,11.73 -11.25,11.08 -11.49,10.43 -11.57,9.74 -11.65,9.05 -11.56,8.36 -11.48,7.67 -11.23,7.02 -10.98,6.37 -10.58,5.81 -10.18,5.24 -8.97,4.05 -7.76,2.86 -6.56,0.99 -5.35,-0.87 -4.73,-1.69 -4.11,-2.51 -3.75,-2.97 -3.39,-3.42 -2.93,-3.78 -2.47,-4.14 -1.94,-4.37 -1.41,-4.61 -0.84,-4.71 -0.26,-4.81 0.31,-4.78 0.89,-4.74 1.44,-4.56 2.00,-4.39 2.49,-4.08 2.99,-3.78 3.40,-3.37 3.81,-2.95 4.11,-2.45 4.41,-1.95 4.58,-1.40 4.75,-0.84 4.78,-0.26 4.81,0.31 4.70,0.88 4.60,1.45 4.35,1.98 4.11,2.51 4.11,2.51 L 4.11,2.51 Z"></path></g><g transform="translate(35.1520913800241 39.02288742901206) rotate(0 -0.7897087135002039 2.665266908063032)" stroke="none"><path d="M3.55 -2.29 L1.59 -3.77 L1.04 0.13 L-4.83 -2.09 L-5.17 -0.36 L-4.91 1.9 L-4.99 0.22 L-3.25 1.97 L0.1 0.23 L2.19 0.65 L0.45 4.77 L-0.11 4.63 L-0.53 6.11 L0.37 6.76 L0.39 3.68 L1.19 3.44 L-4.52 5.88" stroke="none" stroke-width="0" fill="#1e1e1e" fill-rule="evenodd"></path><path fill="#000000" d="M 4.41,1.85 Q 4.41,1.85 4.05,2.97 3.69,4.09 3.67,4.69 3.64,5.30 3.51,6.10 3.38,6.90 3.01,7.62 2.63,8.34 2.04,8.91 1.46,9.47 0.72,9.81 -0.01,10.16 -0.81,10.25 -1.62,10.34 -2.42,10.17 -3.21,10.00 -3.91,9.59 -4.61,9.17 -5.14,8.56 -5.67,7.94 -5.97,7.19 -6.28,6.43 -6.33,5.62 -6.37,4.81 -6.16,4.03 -5.95,3.24 -5.50,2.57 -5.04,1.89 -4.40,1.40 -3.76,0.90 -2.99,0.64 -2.22,0.37 -1.40,0.37 -0.59,0.36 0.17,0.62 0.94,0.87 1.59,1.36 2.24,1.85 2.70,2.52 3.16,3.19 3.38,3.97 3.60,4.75 3.56,5.57 3.53,6.38 3.23,7.13 2.93,7.89 2.41,8.51 1.89,9.14 1.19,9.56 0.50,9.98 -0.28,10.16 -1.08,10.34 -1.89,10.26 -2.69,10.17 -3.43,9.84 -4.17,9.50 -4.77,8.94 -5.36,8.39 -5.74,7.67 -6.13,6.96 -6.26,6.15 -6.40,5.35 -6.40,5.35 -6.40,5.35 -5.96,2.78 -5.51,0.21 -4.96,-0.82 -4.41,-1.85 -4.12,-2.35 -3.84,-2.86 -3.44,-3.27 -3.04,-3.69 -2.55,-4.00 -2.07,-4.31 -1.52,-4.50 -0.97,-4.68 -0.40,-4.73 0.17,-4.78 0.74,-4.69 1.31,-4.60 1.84,-4.38 2.37,-4.15 2.84,-3.81 3.30,-3.46 3.67,-3.02 4.03,-2.57 4.28,-2.05 4.53,-1.53 4.65,-0.97 4.77,-0.40 4.75,0.17 4.73,0.74 4.57,1.30 4.41,1.85 4.41,1.85 L 4.41,1.85 Z"></path></g><g transform="translate(32.980392417898656 36.65376128851159) rotate(0 -2.9614076756254235 0.8884223026876725)" stroke="none"><path d="M-0.6 -2.24 L-3.54 -1.39 L-2.91 0.94 L-1.04 3.49 L-2.59 -2.96 L-1.81 -2.06 L-2.24 0.73 L-1.75 4.23 L-5.23 1.84 L-9.7 1.37 L-9.71 -0.04 L-5.09 1.93 L-6.76 2.26" stroke="none" stroke-width="0" fill="#1e1e1e" fill-rule="evenodd"></path><path fill="#000000" d="M 1.11,4.65 Q 1.11,4.65 -0.27,5.10 -1.66,5.54 -1.99,5.41 -2.31,5.28 -2.97,5.77 -3.62,6.25 -4.40,6.50 -5.17,6.75 -5.98,6.74 -6.80,6.73 -7.57,6.46 -8.33,6.19 -8.98,5.69 -9.62,5.18 -10.07,4.50 -10.51,3.82 -10.72,3.04 -10.93,2.25 -10.87,1.44 -10.82,0.62 -10.51,-0.12 -10.20,-0.87 -9.66,-1.48 -9.12,-2.10 -8.42,-2.51 -7.72,-2.92 -6.92,-3.08 -6.12,-3.25 -5.31,-3.15 -4.51,-3.05 -3.77,-2.70 -3.04,-2.35 -2.45,-1.78 -1.87,-1.21 -1.50,-0.49 -1.13,0.23 -1.01,1.03 -0.89,1.84 -1.03,2.64 -1.17,3.44 -1.56,4.16 -1.95,4.87 -2.55,5.42 -3.15,5.98 -3.89,6.31 -4.64,6.64 -5.45,6.72 -6.26,6.79 -7.05,6.61 -7.84,6.42 -8.54,5.99 -9.23,5.56 -9.75,4.94 -10.27,4.31 -10.56,3.55 -10.85,2.79 -10.88,1.97 -10.91,1.16 -10.68,0.38 -10.46,-0.39 -9.99,-1.06 -9.52,-1.73 -9.52,-1.73 -9.53,-1.73 -6.76,-2.95 -4.00,-4.18 -2.56,-4.42 -1.11,-4.65 -0.54,-4.72 0.02,-4.78 0.60,-4.71 1.17,-4.64 1.71,-4.43 2.25,-4.22 2.72,-3.89 3.19,-3.56 3.57,-3.12 3.95,-2.69 4.22,-2.18 4.48,-1.66 4.62,-1.10 4.75,-0.54 4.75,0.02 4.74,0.60 4.60,1.16 4.46,1.72 4.19,2.23 3.92,2.74 3.53,3.17 3.15,3.60 2.67,3.92 2.19,4.25 1.65,4.45 1.11,4.65 1.11,4.65 L 1.11,4.65 Z"></path></g><g stroke-linecap="round"><g transform="translate(60.70538040034262 148.51476207803262) rotate(0 79.56892737301382 -67.39809171130545)"><path d="M-0.79 2.67 C-7.25 -17.45, -73.61 -97.75, -40.06 -118 C-6.51 -138.24, 167.08 -138.59, 200.5 -118.8 C233.93 -99.01, 167.43 -18.64, 160.5 0.72 M3.98 1.65 C-2.75 -18.05, -74.83 -101.04, -42.33 -121.92 C-9.83 -142.81, 165.02 -144.62, 198.97 -123.68 C232.91 -102.74, 167.26 -16.37, 161.35 3.72" stroke="#f2c02c" stroke-width="4" fill="none"></path></g></g><mask></mask><g stroke-linecap="round"><g transform="translate(75.86811093629876 142.86111428039504) rotate(0 63.94551803832201 -55.07947437106952)"><path d="M-0.06 2 C-5.24 -14.88, -58.95 -81.75, -31.88 -98.6 C-4.8 -115.45, 135.67 -115.07, 162.4 -99.08 C189.12 -83.09, 133.59 -19.2, 128.44 -2.64 M-3.54 0.62 C-8.97 -15.91, -61.24 -86.93, -33.84 -102.96 C-6.44 -118.99, 133.81 -112.49, 160.86 -95.58 C187.9 -78.66, 133.73 -17.62, 128.44 -1.47" stroke="#f2c02c" stroke-width="4" fill="none"></path></g></g><mask></mask><g stroke-linecap="round"><g transform="translate(276.8700458178655 289.5315002829634) rotate(0 39.919077884629814 -49.335124399040666)" fill-rule="evenodd"><path d="M1.69 -1.04 L17.07 -56.98 L29.17 -86.08 L35.55 -98.09 L44.25 -99.42 L50.96 -85.11 L59.66 -71.96 L70.66 -36.54 L81.96 -1.46 L79.72 0.98 L77.21 -2.23 L52.14 -33.11 L47.35 -37.1 L39.13 -39.48 L33.43 -36.95 L29 -32.97 L18.14 -23.82 L0.45 -1.95" stroke="none" stroke-width="0" fill="#1e1e1e" fill-rule="evenodd"></path><path d="M0.97 1.1 C7.51 -15.69, 26.9 -100.4, 40.04 -100.65 C53.18 -100.9, 79.76 -10.47, 79.82 -0.43 C79.88 9.62, 53.54 -40.61, 40.41 -40.4 C27.27 -40.18, 7.81 -6.02, 1.01 0.87 M0.02 0.63 C6.34 -16.01, 25.95 -99.46, 39.11 -99.45 C52.27 -99.45, 78.67 -9.32, 78.96 0.67 C79.25 10.66, 54.02 -39.68, 40.87 -39.5 C27.72 -39.33, 6.75 -4.94, 0.07 1.72" stroke="#000000" stroke-width="2" fill="none"></path></g></g><mask></mask><g stroke-linecap="round"><g transform="translate(445.2839656532801 210.97976030353658) rotate(0 -39.3208247934956 29.842431800659256)" fill-rule="evenodd"><path d="M-1.43 0.46 L-13.55 -17.38 L-20.06 -19.32 L-23.52 -23.19 L-41.62 -19.68 L-53.34 -19.92 L-58.05 -20.92 L-70.27 -10.32 L-79.02 -1.13 L-82.35 10.31 L-81.92 21.8 L-77.22 26.08 L-67.33 36.65 L-55.65 39.45 L-30.4 37.5 L-18.77 38.04 L-19.35 50.12 L-21.33 61.24 L-22.31 60.75 L-39.21 61.51 L-53.23 63.05 L-58 59.94 L-63.56 55.94 L-80 38.81 L-83.59 41.68 L-80.13 53.72 L-80.24 58.57 L-69.74 72.46 L-58.53 79.81 L-56.18 82.84 L-41.14 81.53 L-24.51 80.91 L-18.39 80.27 L-10.14 73.06 L-0.27 60.77 L3.07 49.97 L1.48 38.02 L-4.57 35.35 L-15.12 22.79 L-23.08 19 L-50.89 22.98 L-61.53 18 L-62.45 15.17 L-60.69 2.15 L-61.99 -0.45 L-56.56 -1.02 L1.79 -1.24" stroke="none" stroke-width="0" fill="#1e1e1e" fill-rule="evenodd"></path><path d="M0.04 -0.65 C-3.49 -4.24, -13.58 -17.13, -20.18 -20.43 C-26.79 -23.72, -33.12 -20.61, -39.59 -20.4 C-46.06 -20.18, -52.19 -22.69, -58.99 -19.13 C-65.79 -15.56, -77.06 -5.44, -80.39 0.97 C-83.72 7.39, -82.34 12.94, -78.99 19.37 C-75.63 25.8, -66.77 36.06, -60.26 39.56 C-53.75 43.06, -46.46 40.21, -39.94 40.38 C-33.42 40.55, -24.61 37.36, -21.12 40.58 C-17.64 43.81, -15.8 56.44, -19.04 59.74 C-22.28 63.04, -33.84 60.45, -40.55 60.4 C-47.26 60.35, -52.72 62.87, -59.31 59.42 C-65.91 55.97, -76.87 39.75, -80.12 39.7 C-83.37 39.65, -82.26 52.42, -78.82 59.12 C-75.38 65.82, -66.1 76.43, -59.47 79.89 C-52.84 83.35, -45.65 79.94, -39.05 79.88 C-32.45 79.82, -26.53 82.78, -19.84 79.54 C-13.15 76.3, -2.14 67, 1.08 60.46 C4.3 53.92, 3.12 46.9, -0.52 40.31 C-4.17 33.73, -14.19 24.18, -20.78 20.96 C-27.37 17.75, -33.57 21.32, -40.04 21.03 C-46.51 20.74, -56.33 22.91, -59.62 19.21 C-62.9 15.51, -62.83 2.17, -59.73 -1.17 C-56.63 -4.51, -47.63 -1.03, -41.04 -0.84 C-34.45 -0.65, -26.87 -0.17, -20.18 -0.01 C-13.49 0.14, -4.26 0.19, -0.89 0.11 M-1.4 1.62 C-5.18 -1.28, -14.77 -15.63, -21.22 -19.11 C-27.68 -22.6, -33.98 -18.94, -40.14 -19.29 C-46.31 -19.64, -51.83 -24.14, -58.21 -21.22 C-64.59 -18.31, -74.66 -8.93, -78.41 -1.78 C-82.16 5.36, -83.81 14.43, -80.7 21.66 C-77.59 28.9, -66.38 38.55, -59.75 41.64 C-53.12 44.74, -47.6 40.6, -40.93 40.24 C-34.26 39.89, -22.98 36.35, -19.73 39.51 C-16.48 42.66, -17.96 55.47, -21.43 59.15 C-24.89 62.83, -34.03 61.67, -40.52 61.6 C-47.01 61.52, -53.79 62.5, -60.37 58.69 C-66.94 54.88, -76.87 38.75, -79.96 38.71 C-83.05 38.68, -82.42 51.71, -78.91 58.47 C-75.39 65.23, -65.15 75.51, -58.86 79.28 C-52.57 83.05, -47.49 80.94, -41.18 81.07 C-34.87 81.2, -27.93 83.38, -21.01 80.05 C-14.09 76.71, -3.38 67.62, 0.36 61.07 C4.11 54.52, 4.98 47.63, 1.47 40.73 C-2.04 33.84, -13.6 23.08, -20.7 19.69 C-27.81 16.3, -34.74 20.15, -41.14 20.38 C-47.55 20.62, -56.05 24.33, -59.13 21.1 C-62.2 17.87, -62.8 4.27, -59.61 1.01 C-56.41 -2.26, -46.78 1.62, -39.95 1.49 C-33.12 1.37, -25.24 0.51, -18.62 0.27 C-11.99 0.02, -3.55 0.26, -0.21 0.02" stroke="#000000" stroke-width="2" fill="none"></path></g></g><mask></mask><g stroke-linecap="round"><g transform="translate(541.6633156018474 210.25563029325002) rotate(0 -39.75377897419526 30.065198679360236)" fill-rule="evenodd"><path d="M0.98 -1.44 L-14.59 -15.26 L-18.52 -21.79 L-26.62 -21.08 L-38.34 -18.51 L-53.05 -22.32 L-59.02 -19.07 L-70.27 -12.38 L-79.85 0.31 L-84.42 11.8 L-80.82 20.61 L-78.26 25.71 L-66.12 34.45 L-56.65 40.16 L-27.52 36.79 L-21.85 40.12 L-18.83 51.24 L-18.72 59.34 L-22.81 62.92 L-38.23 61.65 L-53 61.34 L-58.09 60.48 L-65.47 54.28 L-81.72 39.49 L-80.13 41.84 L-82.12 52.63 L-78.49 61.21 L-69.78 71.06 L-61.18 81.43 L-56.14 82.94 L-39.51 79.5 L-23.39 81.67 L-21.39 81.81 L-9.02 72.02 L0.57 59.97 L3.98 48.02 L-0.97 40.82 L-4.18 33.73 L-12.61 24 L-24.64 20.32 L-52.78 19.25 L-60.58 19.23 L-60.69 14.03 L-63.86 3.61 L-60.15 0.39 L-54.61 -2.64 L-0.48 1.81" stroke="none" stroke-width="0" fill="#1e1e1e" fill-rule="evenodd"></path><path d="M-0.18 -0.43 C-3.45 -3.72, -13.12 -17.28, -19.59 -20.4 C-26.06 -23.51, -32.19 -19.36, -38.99 -19.13 C-45.79 -18.9, -53.72 -22.11, -60.39 -19.03 C-67.06 -15.94, -75.67 -7.06, -78.99 -0.63 C-82.3 5.8, -83.43 12.72, -80.26 19.56 C-77.08 26.39, -66.46 36.88, -59.94 40.38 C-53.42 43.89, -47.94 40.69, -41.12 40.58 C-34.31 40.48, -22.47 36.44, -19.04 39.74 C-15.61 43.04, -17.17 57.12, -20.55 60.4 C-23.93 63.68, -32.72 59.54, -39.31 59.42 C-45.91 59.3, -53.54 63.08, -60.12 59.7 C-66.71 56.31, -75.6 39.09, -78.82 39.12 C-82.05 39.15, -82.76 53.1, -79.47 59.89 C-76.17 66.69, -65.65 76.61, -59.05 79.88 C-52.45 83.15, -46.53 79.44, -39.84 79.54 C-33.15 79.64, -25.47 83.67, -18.92 80.46 C-12.37 77.26, -3.55 66.9, -0.52 60.31 C2.5 53.73, 2.47 47.51, -0.78 40.96 C-4.03 34.42, -13.57 24.65, -20.04 21.03 C-26.51 17.4, -33 19.58, -39.62 19.21 C-46.23 18.84, -56.16 22.17, -59.73 18.83 C-63.3 15.49, -64.3 2.3, -61.04 -0.84 C-57.78 -3.98, -46.87 -0.17, -40.18 -0.01 C-33.49 0.14, -27.59 0.19, -20.89 0.11 C-14.2 0.03, -3.33 -0.52, 0.01 -0.49 M-1.73 -1.7 C-5.13 -4.76, -14.08 -15.85, -20.32 -19.07 C-26.57 -22.29, -32.55 -20.68, -39.22 -21.01 C-45.89 -21.34, -53.57 -24.48, -60.35 -21.07 C-67.13 -17.66, -76.82 -7.13, -79.92 -0.57 C-83.03 5.99, -82.43 11.66, -78.98 18.29 C-75.54 24.92, -65.91 35.53, -59.26 39.24 C-52.61 42.95, -45.59 40.72, -39.08 40.55 C-32.57 40.38, -23.37 34.95, -20.21 38.22 C-17.04 41.49, -17 56.51, -20.07 60.16 C-23.14 63.8, -31.71 60.27, -38.63 60.1 C-45.55 59.93, -54.43 62.22, -61.6 59.12 C-68.76 56.01, -78.58 41.41, -81.63 41.5 C-84.68 41.58, -83.79 53.35, -79.89 59.65 C-75.99 65.94, -65.08 75.78, -58.22 79.26 C-51.36 82.74, -45.16 80.18, -38.72 80.55 C-32.29 80.91, -26.32 84.74, -19.61 81.45 C-12.89 78.17, -1.87 67.47, 1.57 60.84 C5.02 54.22, 4.61 48.57, 1.08 41.72 C-2.44 34.88, -12.64 23.2, -19.57 19.79 C-26.5 16.38, -33.88 21.15, -40.5 21.27 C-47.12 21.39, -55.78 23.81, -59.3 20.52 C-62.82 17.23, -65.05 5.09, -61.6 1.51 C-58.16 -2.06, -45.62 -0.73, -38.63 -0.91 C-31.65 -1.09, -26.34 0.45, -19.71 0.46 C-13.07 0.46, -2.14 -0.82, 1.17 -0.9" stroke="#000000" stroke-width="2" fill="none"></path></g></g><mask></mask><g stroke-linecap="round"><g transform="translate(584.2841953549691 187.35911025210362) rotate(0 -9.839167658943097 10.078689043217565)" fill-rule="evenodd"><path d="M-1.87 0.97 L-14.33 -1.84 L-20.91 0.67 L-21.36 9.03 L-20.2 19.5 L-8.04 21.04 L0.89 19.82 L2.99 15.74 L0.27 -0.77" stroke="none" stroke-width="0" fill="#1e1e1e" fill-rule="evenodd"></path><path d="M0.41 -0.4 C-2.73 -0.18, -15.52 -2.69, -18.99 0.87 C-22.45 4.44, -23.72 17.89, -20.39 20.97 C-17.06 24.06, -2.34 22.94, 1.01 19.37 C4.37 15.8, -0.1 2.72, -0.26 -0.44 M-0.84 -1.65 C-4.02 -1.73, -15.98 -4.26, -19.4 -0.79 C-22.83 2.68, -24.89 15.65, -21.36 19.14 C-17.83 22.63, -2.07 23.39, 1.79 20.15 C5.65 16.91, 1.84 3.15, 1.79 -0.28" stroke="#000000" stroke-width="2" fill="none"></path></g></g><mask></mask><g stroke-linecap="round"><g transform="translate(564.2841953549691 227.35911025210362) rotate(0 10.368409273083671 31.52732154400769)" fill-rule="evenodd"><path d="M1.6 -0.43 L9.09 -3.08 L17.08 -5.19 L19.8 -0.5 L23.06 3.57 L23.39 29.82 L22.68 54.76 L20.27 59.23 L17.74 66.4 L9.13 68.02 L2.76 67.23 L-0.06 61.71 L-0.32 53.64 L0.45 -1.95" stroke="none" stroke-width="0" fill="#1e1e1e" fill-rule="evenodd"></path><path d="M1.01 0.87 C4.21 1.1, 16.28 -8.78, 19.61 0.97 C22.94 10.72, 24.33 49.61, 21.01 59.37 C17.7 69.14, 3.23 69.39, -0.26 59.56 C-3.75 49.73, 0.21 10.21, 0.06 0.38 M0.08 0.29 C3.06 0.23, 15.01 -10.65, 18.46 -0.64 C21.91 9.38, 23.88 50.18, 20.78 60.36 C17.68 70.54, 3.54 70.33, -0.15 60.43 C-3.84 50.53, -1.35 11.07, -1.38 0.97" stroke="#000000" stroke-width="2" fill="none"></path></g></g><mask></mask><g stroke-linecap="round"><g transform="translate(685.456815087517 212.42802032410975) rotate(0 -39.9169702446834 30.223325846710082)" fill-rule="evenodd"><path d="M-1.62 0.32 L-12.87 -14.45 L-18.05 -20.92 L-24.02 -20.48 L-39.02 -21.13 L-54.85 -21.1 L-61.92 -18.2 L-72.07 -10.64 L-81.86 0.24 L-83.15 8.05 L-81.65 18.75 L-75.17 23.51 L-67.32 36.52 L-56.33 42.65 L-27.47 38.09 L-19.21 41.51 L-15.73 51.65 L-18 59.94 L-21.69 61.88 L-40 58.81 L-56.72 60.9 L-58.25 59.65 L-65.71 54.04 L-78.49 41.21 L-80.4 42 L-83.06 55.5 L-81.14 61.53 L-70.76 70.75 L-58.39 80.27 L-56.39 83.22 L-40.27 80.77 L-24.43 81.38 L-18.52 78.02 L-9.72 72.07 L-0.59 59.2 L4.42 50.41 L0.36 41.73 L-5.12 32.53 L-15.11 22.82 L-23.81 16.69 L-53.24 20.8 L-60.15 20.39 L-60.08 14.7 L-62.35 5.87 L-61.27 -0.85 L-57.85 -2.9 L1.05 -0.78" stroke="none" stroke-width="0" fill="#1e1e1e" fill-rule="evenodd"></path><path d="M-0.39 0.97 C-3.72 -2.61, -12.34 -17.06, -18.99 -20.63 C-25.63 -24.2, -33.43 -20.61, -40.26 -20.44 C-47.08 -20.27, -53.13 -23.12, -59.94 -19.62 C-66.75 -16.11, -77.94 -5.98, -81.12 0.58 C-84.31 7.14, -82.47 13.1, -79.04 19.74 C-75.61 26.38, -67.17 37.12, -60.55 40.4 C-53.93 43.68, -46.05 39.54, -39.31 39.42 C-32.58 39.3, -23.54 36.41, -20.12 39.7 C-16.71 42.98, -15.6 55.76, -18.82 59.12 C-22.05 62.49, -32.76 59.77, -39.47 59.89 C-46.17 60.02, -52.32 63.27, -59.05 59.88 C-65.78 56.49, -76.53 39.44, -79.84 39.54 C-83.15 39.64, -82.14 53.67, -78.92 60.46 C-75.7 67.26, -66.88 76.9, -60.52 80.31 C-54.17 83.73, -47.53 80.84, -40.78 80.96 C-34.03 81.08, -26.9 84.65, -20.04 81.03 C-13.18 77.4, -3 66.24, 0.38 59.21 C3.77 52.18, 3.84 45.5, 0.27 38.83 C-3.3 32.15, -14.3 22.3, -21.04 19.16 C-27.78 16.02, -33.53 19.83, -40.18 19.99 C-46.82 20.14, -57.59 23.52, -60.89 20.11 C-64.2 16.7, -63.33 2.81, -59.99 -0.49 C-56.65 -3.8, -47.62 0.34, -40.86 0.27 C-34.09 0.21, -26.21 -0.89, -19.41 -0.87 C-12.61 -0.84, -3.42 0.44, -0.04 0.41 M1.6 0.44 C-1.89 -3.07, -12.27 -16.12, -19.4 -19.42 C-26.53 -22.72, -34.45 -19.54, -41.16 -19.35 C-47.87 -19.17, -53.26 -21.75, -59.66 -18.31 C-66.05 -14.87, -76.01 -4.87, -79.53 1.28 C-83.05 7.43, -84 12.23, -80.78 18.56 C-77.56 24.89, -66.99 35.9, -60.19 39.26 C-53.39 42.63, -46.98 38.35, -39.98 38.77 C-32.98 39.2, -21.34 38.58, -18.2 41.82 C-15.05 45.05, -17.65 55.04, -21.1 58.21 C-24.54 61.38, -32.39 60.63, -38.87 60.82 C-45.35 61.02, -53.19 63.12, -59.96 59.39 C-66.74 55.67, -76.34 38.29, -79.53 38.47 C-82.71 38.66, -82.23 53.61, -79.06 60.51 C-75.88 67.42, -66.96 76.83, -60.47 79.92 C-53.99 83.01, -46.68 79.27, -40.16 79.06 C-33.63 78.85, -27.89 81.97, -21.31 78.66 C-14.74 75.34, -4.09 65.86, -0.7 59.16 C2.69 52.46, 2.43 44.89, -0.97 38.47 C-4.37 32.04, -14.37 23.88, -21.1 20.6 C-27.83 17.32, -34.69 19.09, -41.35 18.79 C-48.02 18.5, -57.97 22.22, -61.08 18.81 C-64.18 15.41, -63.57 1.6, -60 -1.62 C-56.44 -4.83, -46.15 -0.57, -39.67 -0.47 C-33.19 -0.37, -27.9 -1.19, -21.11 -1.03 C-14.31 -0.87, -2.28 0.03, 1.1 0.47" stroke="#000000" stroke-width="2" fill="none"></path></g></g><mask></mask><g stroke-linecap="round"><g transform="translate(698.2155149846517 209.5315002829634) rotate(0 29.725413564934115 33.70576380918922)" fill-rule="evenodd"><path d="M1.58 -0.2 L-3.48 -10.77 L-2.42 -15.17 L-0.87 -19.48 L10.89 -20.27 L47.75 -20.16 L60.64 -21.32 L65.14 -17.89 L63.27 -11.4 L59.71 -0.02 L42.57 -4.97 L40.02 -0.82 L37.63 16.71 L41.8 71.84 L39.94 80.68 L37.41 85.71 L28.38 90.32 L25.72 88.99 L21.95 79.08 L20.16 74.21 L21.92 15.12 L20.15 0.31 L14.02 -3.82 L9.18 -4.39 L-1.86 0.24" stroke="none" stroke-width="0" fill="#1e1e1e" fill-rule="evenodd"></path><path d="M1.01 -0.63 C1.04 -4.2, -10.1 -17.28, -0.26 -20.44 C9.58 -23.61, 50.21 -23.12, 60.06 -19.62 C69.92 -16.11, 62.06 -2.64, 58.88 0.58 C55.69 3.81, 44.2 -13.56, 40.96 -0.26 C37.72 13.04, 42.83 67.12, 39.45 80.4 C36.07 93.68, 23.95 92.87, 20.69 79.42 C17.42 65.97, 23.13 13.08, 19.88 -0.3 C16.63 -13.69, 4.4 -0.91, 1.18 -0.88 M0.09 1.66 C-0.04 -1.83, -11.22 -15.23, -1.34 -19.13 C8.53 -23.04, 49.35 -24.67, 59.33 -21.76 C69.31 -18.85, 61.75 -5.29, 58.53 -1.67 C55.31 1.96, 42.99 -13.55, 40 -0.01 C37 13.53, 43.63 66, 40.58 79.57 C37.53 93.14, 25.32 94.82, 21.69 81.43 C18.06 68.03, 22.38 12.61, 18.79 -0.8 C15.2 -14.22, 2.99 0.9, 0.13 0.94" stroke="#000000" stroke-width="2" fill="none"></path></g></g><mask></mask><g stroke-linecap="round"><g transform="translate(767.3535648303537 290.9797603035366) rotate(0 40.31812812438557 -49.83851574649836)" fill-rule="evenodd"><path d="M-0.2 -0.5 L19.46 -57.71 L29.95 -86.9 L39.01 -99.26 L42.91 -99.76 L53.68 -85.01 L57.64 -70.47 L69.56 -34.43 L79.94 1.71 L79.47 -0.17 L76.08 -3.99 L50.14 -33.74 L45.25 -37.89 L38.51 -39.82 L34.74 -39.37 L27.63 -34.23 L18.48 -23.94 L-0.06 0.68" stroke="none" stroke-width="0" fill="#1e1e1e" fill-rule="evenodd"></path><path d="M-0.26 -0.44 C6.25 -16.94, 26.87 -99.79, 40.06 -99.62 C53.25 -99.45, 78.73 -9.31, 78.88 0.58 C79.03 10.48, 54.2 -40.23, 40.96 -40.26 C27.72 -40.29, 6.16 -6.21, -0.55 0.4 M1.81 -1.72 C8.07 -18.53, 25.92 -101.58, 39.15 -101.54 C52.38 -101.5, 80.75 -11.83, 81.18 -1.45 C81.61 8.92, 55.02 -39.7, 41.71 -39.29 C28.41 -38.88, 8.51 -5.84, 1.35 1" stroke="#000000" stroke-width="2" fill="none"></path></g></g><mask></mask><g stroke-linecap="round"><g transform="translate(866.629434820065 289.5315002829634) rotate(0 38.9073360139605 -50.80818936056363)" fill-rule="evenodd"><path d="M-0.87 0.52 L-5.7 -69.68 L-4.28 -83.6 L-1.01 -99.83 L2.66 -101.61 L10.46 -90.3 L47.52 -32.99 L53.47 -23.39 L60.02 -20.82 L61.31 -22.44 L64.73 -32.07 L59.94 -99.32 L65.54 -109.75 L68.38 -110.93 L77.6 -107.42 L81.95 -100.92 L82.07 -90.67 L83.48 -51.13 L81.25 -8.09 L74.95 10.24 L71.68 10.61 L58.14 0.24 L27.01 -53.98 L18.35 -61.25 L19.46 -59.79 L15.8 -51.91 L19.14 -12.35 L21.28 -0.66 L16.72 5.73 L11.77 5.4 L2 -0.06" stroke="none" stroke-width="0" fill="#1e1e1e" fill-rule="evenodd"></path><path d="M0.06 0.38 C-0.08 -16.11, -11.27 -95.98, -1.12 -99.42 C9.03 -102.86, 50.87 -20.23, 60.96 -20.26 C71.06 -20.29, 56.16 -86.21, 59.45 -99.6 C62.74 -112.99, 77.28 -117.13, 80.69 -100.58 C84.09 -84.03, 83.13 -16.92, 79.88 -0.3 C76.63 16.31, 71.07 9.09, 61.18 -0.88 C51.29 -10.85, 27.24 -60.23, 20.53 -60.11 C13.83 -59.98, 24.35 -10.06, 20.95 -0.12 C17.55 9.82, 3.47 -0.56, 0.16 -0.46 M-1.36 -0.46 C-1.13 -17.28, -9.35 -98.13, 1 -101.23 C11.34 -104.34, 50.97 -19.57, 60.7 -19.08 C70.44 -18.59, 56.27 -84.72, 59.41 -98.29 C62.56 -111.86, 75.94 -116.63, 79.58 -100.5 C83.21 -84.36, 84.69 -18.41, 81.23 -1.5 C77.76 15.41, 69.02 10.81, 58.78 0.97 C48.54 -8.86, 26.29 -60.08, 19.79 -60.5 C13.29 -60.93, 22.91 -11.46, 19.78 -1.57 C16.65 8.33, 4.59 -1.7, 1.01 -1.16" stroke="#000000" stroke-width="2" fill="none"></path></g></g><mask></mask><g stroke-linecap="round"><g transform="translate(966.3537945320409 206.63498024181706) rotate(0 30.523250649392594 33.398477575409714)" fill-rule="evenodd"><path d="M-0.87 0.52 L-5.05 -8.4 L-4.28 -14.22 L0.64 -21.32 L12.64 -23.83 L46.08 -23.27 L59.71 -20.02 L63.2 -15.76 L65.02 -10.82 L58.57 0.46 L45.04 -6.6 L39.94 0.68 L40.54 14.46 L39.2 73.6 L41.66 81.49 L37.89 86.58 L30.98 90.93 L25.04 86.37 L20.15 80.31 L17.26 75.08 L20.12 16.86 L18.14 0.24 L15.29 -7.58 L8.35 -6.25 L1.23 -1.96" stroke="none" stroke-width="0" fill="#1e1e1e" fill-rule="evenodd"></path><path d="M-1.12 0.58 C-0.97 -2.86, -9.13 -16.9, 0.96 -20.26 C11.06 -23.62, 49.5 -22.88, 59.45 -19.6 C69.41 -16.32, 63.95 -3.8, 60.69 -0.58 C57.42 2.64, 43.13 -13.59, 39.88 -0.3 C36.63 12.98, 44.4 65.76, 41.18 79.12 C37.95 92.49, 23.9 93.1, 20.53 79.89 C17.16 66.69, 24.35 13.27, 20.95 -0.12 C17.55 -13.51, 3.47 -0.56, 0.16 -0.46 M0.49 -0.16 C0.56 -3.45, -9.13 -15.26, 0.52 -18.86 C10.17 -22.45, 48.27 -24.91, 58.4 -21.73 C68.53 -18.55, 64.64 -3.39, 61.29 0.22 C57.95 3.83, 41.97 -13.58, 38.34 -0.07 C34.72 13.44, 42.36 68.19, 39.55 81.28 C36.73 94.37, 24.64 92.13, 21.46 78.49 C18.27 64.86, 24.24 12.3, 20.42 -0.52 C16.61 -13.34, 2.18 1.44, -1.43 1.57" stroke="#000000" stroke-width="2" fill="none"></path></g></g><mask></mask><g stroke-linecap="round"><g transform="translate(312.20368609389607 221.7685432841443) rotate(0 6.725883342182442 5.195994547522076)" fill-rule="evenodd"><path d="M1.58 -0.2 L0.27 9.74 L8.74 12.59 L13.01 11.03 L14.32 6.86 L13.82 1.71 L0.64 -1.32" stroke="none" stroke-width="0" fill="#ffffff" fill-rule="evenodd"></path><path d="M0.96 -0.26 C1.06 1.46, -2.82 9.21, -0.55 10.91 C1.72 12.6, 12.19 11.79, 14.57 9.92 C16.96 8.06, 16 1.5, 13.77 -0.3 C11.53 -2.1, 3.38 -0.91, 1.18 -0.88 M0.01 -1.44 C0 -0.14, -4.14 6.93, -1.78 8.99 C0.58 11.06, 11.55 12.33, 14.17 10.94 C16.79 9.55, 16.26 2.62, 13.95 0.64 C11.64 -1.34, 2.89 -0.64, 0.33 -0.95" stroke="#000000" stroke-width="2" fill="none"></path></g></g><mask></mask><g stroke-linecap="round"><g transform="translate(802.9304527221543 222.68254438624552) rotate(0 7.705773517209764 5.60472543290723)" fill-rule="evenodd"><path d="M0.27 -0.77 L1.8 11.28 L6.07 12.34 L12.59 12.11 L15.56 6.97 L14.53 -1.32 L0.45 -1.95" stroke="none" stroke-width="0" fill="#ffffff" fill-rule="evenodd"></path><path d="M-0.55 0.4 C-0.59 2.1, -1.7 8.29, 0.69 9.92 C3.07 11.56, 11.37 12, 13.77 10.2 C16.16 8.4, 17.27 0.84, 15.07 -0.88 C12.86 -2.6, 2.89 -0.23, 0.53 -0.11 M1.36 -0.44 C1.14 1.44, -1.83 9.19, 0.1 11.16 C2.03 13.12, 10.91 13.26, 12.94 11.36 C14.96 9.46, 14.54 1.62, 12.27 -0.24 C10 -2.09, 1.52 0.39, -0.66 0.23" stroke="#000000" stroke-width="2" fill="none"></path></g></g><mask></mask><g stroke-linecap="round"><g transform="translate(486.7880982445763 88.72960139029021) rotate(0 -11.698430181390677 0.05078193553462995)" fill-rule="evenodd"><path d="M-1.44 -0.11 L19.04 -0.86 L23.01 -1.55 L28.69 5.82 L29.5 10.84 L22.77 24.58 L15.16 39.73 L-1.99 49.65 L-13.61 54.03 L-25.63 48.05 L-39.43 36.82 L-48.18 26.07 L-50.29 17.79 L-48.78 -1.18 L-49.72 -20.47 L-49.53 -24.96 L-38.81 -39.51 L-23.02 -48.33 L-19.79 -51.54 L-5.2 -49.82 L0.03 -51.08 L4.25 -42.74 L2.52 -29.96 L1.38 -22.81 L-6.32 -21.51 L-18.13 -25.29 L-25.87 -24.89 L-25.9 -18.64 L-23.6 -1.11 L-25.57 21.48 L-23.25 23.15 L-20.39 25.07 L-11.35 28.68 L-4.15 25.73 L0.23 26.42 L2.7 19.82 L0.9 -0.23" stroke="none" stroke-width="0" fill="#f2c02c" fill-rule="evenodd"></path><path d="M-0.94 -0.52 C3.24 -0.53, 20.25 -3.32, 24.57 0.91 C28.88 5.14, 29.1 16.92, 24.94 24.87 C20.78 32.81, 7.97 44.4, -0.41 48.56 C-8.79 52.72, -17.25 53.86, -25.34 49.8 C-33.44 45.73, -44.81 32.41, -48.99 24.16 C-53.16 15.92, -50.49 8.33, -50.39 0.33 C-50.28 -7.66, -52.8 -15.68, -48.35 -23.8 C-43.9 -31.92, -31.54 -44.08, -23.67 -48.39 C-15.81 -52.71, -5.19 -53.84, -1.18 -49.69 C2.84 -45.55, 4.22 -27.71, 0.4 -23.53 C-3.42 -19.34, -20.03 -28.35, -24.1 -24.6 C-28.16 -20.84, -23.71 -9.03, -23.98 -1.01 C-24.26 7.01, -29.83 19.27, -25.76 23.5 C-21.68 27.74, -3.94 28.21, 0.46 24.4 C4.87 20.6, 0.75 4.68, 0.67 0.68 M0.77 1.83 C4.82 2, 19.66 -4.82, 23.59 -0.74 C27.52 3.34, 28.34 17.97, 24.34 26.31 C20.35 34.65, 7.61 45.27, -0.37 49.3 C-8.35 53.33, -15.69 54.88, -23.53 50.48 C-31.38 46.07, -42.97 31.43, -47.44 22.88 C-51.91 14.33, -50.1 6.93, -50.34 -0.84 C-50.59 -8.6, -53.15 -15.62, -48.9 -23.7 C-44.66 -31.79, -32.83 -44.88, -24.85 -49.33 C-16.87 -53.77, -5.32 -54.33, -1.03 -50.38 C3.27 -46.43, 4.97 -29.85, 0.93 -25.62 C-3.1 -21.4, -21.17 -29.49, -25.23 -25.01 C-29.29 -20.52, -23.72 -7.27, -23.42 1.29 C-23.11 9.86, -27.47 22.65, -23.39 26.38 C-19.32 30.12, -2.6 28.35, 1.03 23.73 C4.66 19.1, -1.22 2.35, -1.6 -1.37" stroke="#f2c02c" stroke-width="4" fill="none"></path></g></g><mask></mask><g stroke-linecap="round"><g transform="translate(528.0119919359399 37.69870975106767) rotate(0 36.31484228615409 50.86106835087129)" fill-rule="evenodd"><path d="M0.03 0.75 L12.82 -1.81 L18.22 1.43 L27.44 29.45 L38.83 36.83 L43.11 34.89 L43.11 32.07 L52.64 8.17 L52.25 0.96 L57.8 -0.24 L64.18 -3.4 L73.2 0.01 L73.56 13.05 L65.26 29.88 L61.11 36.42 L49.83 48.15 L45.69 56.28 L49.72 94.07 L50.86 99.42 L42.54 102.47 L36.28 105.57 L29.64 100.7 L26.56 100 L23.78 89.9 L27.7 67.39 L24.7 56.94 L24.45 48.06 L8.19 29.84 L0.46 1.56" stroke="none" stroke-width="0" fill="#f2c02c" fill-rule="evenodd"></path><path d="M-0.06 0.91 C3.28 1.13, 14.33 -4.1, 19.12 0.8 C23.9 5.7, 24.47 25.01, 28.66 30.32 C32.84 35.63, 39.93 37.7, 44.24 32.67 C48.55 27.63, 49.71 5.2, 54.5 0.09 C59.3 -5.02, 70.7 -1.99, 73.01 2 C75.32 5.99, 70.29 17.96, 68.39 24.03 C66.49 30.11, 65.53 33.09, 61.6 38.45 C57.67 43.81, 46.79 45.98, 44.8 56.17 C42.81 66.36, 52.93 92.54, 49.65 99.59 C46.38 106.65, 28.98 106.13, 25.15 98.52 C21.32 90.92, 29.46 65.56, 26.65 53.97 C23.85 42.38, 12.67 38.02, 8.3 28.98 C3.94 19.95, 1.73 4.5, 0.46 -0.22 M-1.55 0.34 C1.75 0.22, 13.46 -6.35, 18.34 -1.2 C23.21 3.96, 23.38 26.01, 27.68 31.27 C31.97 36.54, 39.86 35.57, 44.11 30.4 C48.36 25.23, 48.22 5.12, 53.17 0.24 C58.12 -4.64, 71.71 -2.68, 73.82 1.14 C75.94 4.95, 67.97 16.88, 65.84 23.12 C63.72 29.36, 64.35 32.71, 61.07 38.56 C57.79 44.4, 47.91 48.02, 46.17 58.21 C44.43 68.41, 54.03 92.83, 50.63 99.72 C47.23 106.6, 29.92 106.69, 25.75 99.52 C21.57 92.35, 28.55 68.06, 25.58 56.68 C22.61 45.29, 12.2 40.77, 7.94 31.23 C3.67 21.7, 1.1 4.6, 0 -0.53" stroke="#f2c02c" stroke-width="4" fill="none"></path></g></g><mask></mask><g stroke-linecap="round"><g transform="translate(624.7245036064628 144.21821936944878) rotate(0 49.62756493073948 -53.3498574368036)" fill-rule="evenodd"><path d="M0.77 -0.37 L-0.61 -77.35 L0.03 -97.74 L2.99 -106.68 L10.19 -106.86 L16.27 -105.82 L26.38 -97.1 L32.57 -87.27 L41.24 -55.83 L47.48 -49.77 L47.25 -48.84 L51.03 -49.33 L54.4 -56.98 L66.76 -89 L74.94 -97.05 L81.3 -104.95 L88.19 -108.91 L95.33 -108.57 L98.21 -98.83 L100.47 -78.37 L102.99 -29.52 L96.6 0.01 L95.82 2.15 L94.1 -5.49 L79.06 -44.11 L74.09 -49.58 L72.18 -47.55 L66.4 -45.17 L56.89 -28.56 L48 -24.89 L43.55 -27.49 L31.81 -48.24 L28.48 -48.08 L26 -50.73 L17.12 -42.84 L0.96 0.98" stroke="none" stroke-width="0" fill="#f2c02c" fill-rule="evenodd"></path><path d="M0.32 0.24 C0.26 -16.44, -4.34 -82.82, -0.41 -99.18 C3.52 -115.55, 15.58 -106.19, 23.9 -97.95 C32.22 -89.7, 41.37 -49.67, 49.51 -49.71 C57.65 -49.75, 64.42 -90.17, 72.73 -98.16 C81.05 -106.15, 94.94 -114.17, 99.39 -97.67 C103.85 -81.17, 103.9 -7.14, 99.45 0.85 C95 8.85, 80.99 -45.63, 72.69 -49.69 C64.4 -53.76, 57.57 -23.6, 49.65 -23.53 C41.73 -23.45, 33.32 -52.97, 25.15 -49.22 C16.98 -45.47, 5.02 -9.03, 0.64 -1.01 M-0.97 -0.68 C-1.22 -17.29, -6.13 -81.45, -1.57 -98.01 C3 -114.56, 17.84 -108.19, 26.42 -100 C35 -91.81, 41.91 -49.25, 49.89 -48.85 C57.88 -48.45, 66.37 -89.36, 74.32 -97.59 C82.28 -105.83, 93.85 -114.53, 97.62 -98.28 C101.38 -82.02, 100.75 -8.04, 96.93 -0.04 C93.11 7.96, 82.83 -46.22, 74.71 -50.27 C66.59 -54.32, 56.28 -24.43, 48.19 -24.33 C40.1 -24.23, 34.01 -53.62, 26.2 -49.66 C18.38 -45.7, 5.58 -9.09, 1.3 -0.56" stroke="#f2c02c" stroke-width="4" fill="none"></path></g></g><mask></mask><g stroke-linecap="round"><g transform="translate(268.0824349263539 281.86027786254795) rotate(0 39.92741404205344 -49.60875989712201)" fill-rule="evenodd"><path d="M-1.96 -0.74 L18.17 -54.42 L29.94 -86.67 L38.5 -100.75 L40.76 -100.85 L52.64 -86.15 L59.64 -69.86 L70.89 -35.28 L78.56 -0.11 L78.25 2.02 L74.01 -3.58 L53.63 -30.95 L47.34 -37.8 L38.15 -40.04 L36.03 -37.3 L27.07 -34.28 L16.2 -20.8 L-1.01 -1.19" stroke="none" stroke-width="0" fill="#f2c02c" fill-rule="evenodd"></path><path d="M-0.41 -0.69 C6.09 -17.3, 25.83 -99.49, 39.28 -99.45 C52.72 -99.41, 80.33 -10.43, 80.26 -0.46 C80.19 9.5, 52.09 -39.88, 38.86 -39.67 C25.63 -39.45, 7.22 -5.93, 0.9 0.83 M1.58 1.57 C8.44 -15.43, 28.6 -101.12, 41.61 -101.28 C54.62 -101.44, 80.15 -9.87, 79.63 0.61 C79.12 11.09, 51.8 -38.56, 38.51 -38.39 C25.22 -38.21, 6.45 -4.79, -0.1 1.65" stroke="#f2c02c" stroke-width="2" fill="none"></path></g></g><mask></mask><g stroke-linecap="round"><g transform="translate(436.4963547617681 203.30853788312106) rotate(0 -40.060465087895636 29.813948896558088)" fill-rule="evenodd"><path d="M1.26 -2 L-14.82 -16.27 L-20.33 -21.04 L-23.39 -20.49 L-41.9 -19.99 L-55.77 -19.67 L-59.97 -21.83 L-69.31 -9.75 L-79.79 -0.34 L-81.12 11.82 L-81.32 21.96 L-74.92 25.96 L-66.71 36.14 L-54.54 42.97 L-27.72 37.64 L-19.22 41.28 L-16.12 48.52 L-20.77 58.13 L-22.63 62.38 L-39.15 58.8 L-54.77 63.21 L-59.03 60.19 L-64.57 55.23 L-80.78 39.44 L-81.91 41.05 L-80.41 53.96 L-80.27 58.29 L-69.34 72.38 L-58.25 78.48 L-54.01 82.32 L-39.14 79.08 L-25.54 82.67 L-20.79 80.95 L-8.43 69.65 L0.2 60.18 L1.39 50.76 L-1.48 38.06 L-2.86 33.54 L-16.39 22.71 L-25.27 18.62 L-52.93 22.34 L-59.99 20.91 L-62.28 16.87 L-63.87 3.04 L-58.23 0.82 L-55.98 0.35 L1.96 -1.85" stroke="none" stroke-width="0" fill="#f2c02c" fill-rule="evenodd"></path><path d="M-0.72 0.55 C-3.94 -2.75, -13 -17.09, -19.74 -20.46 C-26.48 -23.83, -34.58 -19.88, -41.14 -19.67 C-47.7 -19.45, -52.78 -22.59, -59.1 -19.17 C-65.42 -15.75, -75.37 -5.6, -79.05 0.85 C-82.73 7.31, -84.42 12.85, -81.18 19.55 C-77.93 26.26, -66.55 37.69, -59.6 41.1 C-52.65 44.51, -46.18 40.38, -39.47 40.03 C-32.77 39.68, -22.41 35.85, -19.36 38.99 C-16.3 42.13, -17.77 55.42, -21.13 58.88 C-24.5 62.35, -33.17 59.48, -39.54 59.78 C-45.9 60.08, -52.59 63.9, -59.33 60.68 C-66.07 57.46, -76.39 40.58, -79.98 40.45 C-83.57 40.33, -84.13 53.26, -80.86 59.94 C-77.59 66.61, -67 77.33, -60.35 80.52 C-53.7 83.71, -47.87 79.02, -40.97 79.07 C-34.07 79.12, -25.96 84.01, -18.95 80.84 C-11.94 77.67, -1.9 66.85, 1.08 60.04 C4.05 53.23, 2.27 46.52, -1.11 39.98 C-4.49 33.43, -12.54 24.04, -19.22 20.75 C-25.9 17.46, -34.27 20.2, -41.2 20.24 C-48.12 20.29, -57.54 24.51, -60.78 21.02 C-64.01 17.53, -63.97 2.95, -60.61 -0.72 C-57.24 -4.39, -47.44 -1.26, -40.57 -0.99 C-33.7 -0.73, -26.19 0.77, -19.36 0.87 C-12.53 0.96, -2.86 -0.15, 0.42 -0.41 M1.1 -0.21 C-2.22 -3.28, -13.89 -16.17, -20.55 -19.17 C-27.21 -22.16, -32.54 -17.82, -38.84 -18.17 C-45.15 -18.53, -51.52 -24.61, -58.38 -21.3 C-65.25 -17.98, -76.36 -4.9, -80.02 1.69 C-83.69 8.29, -83.93 11.84, -80.38 18.28 C-76.84 24.72, -65.44 36.76, -58.74 40.33 C-52.05 43.9, -46.56 39.63, -40.22 39.7 C-33.88 39.77, -23.9 37.1, -20.69 40.73 C-17.48 44.37, -17.91 58.18, -20.96 61.5 C-24.01 64.82, -32.41 60.79, -38.98 60.65 C-45.55 60.5, -53.59 64.08, -60.39 60.62 C-67.18 57.15, -76.74 40.02, -79.74 39.86 C-82.73 39.71, -81.61 52.98, -78.36 59.71 C-75.1 66.44, -66.52 76.89, -60.2 80.24 C-53.88 83.59, -47.21 80.14, -40.45 79.83 C-33.69 79.52, -26.45 81.6, -19.65 78.37 C-12.85 75.13, -3.02 66.79, 0.36 60.43 C3.73 54.07, 3.69 47.06, 0.58 40.22 C-2.53 33.37, -11.68 22.87, -18.32 19.37 C-24.96 15.86, -32.15 19.05, -39.25 19.19 C-46.35 19.33, -57.29 23.12, -60.9 20.21 C-64.52 17.29, -64.55 4.86, -60.94 1.7 C-57.33 -1.46, -45.89 1.27, -39.24 1.26 C-32.58 1.24, -27.87 1.95, -21.03 1.61 C-14.19 1.27, -1.42 -0.25, 1.79 -0.77" stroke="#f2c02c" stroke-width="2" fill="none"></path></g></g><mask></mask><g stroke-linecap="round"><g transform="translate(532.8757047103354 202.58440787283462) rotate(0 -40.39453120603616 29.821932657427396)" fill-rule="evenodd"><path d="M-0.28 -0.33 L-14.86 -16.97 L-18.39 -19.08 L-26.9 -21.39 L-40.77 -18.26 L-54.97 -23.24 L-58.06 -18.5 L-71.04 -11.59 L-78.62 1.82 L-83.82 11.96 L-78.51 20.49 L-77.65 25.21 L-65.01 37.97 L-53.97 40.29 L-27.97 40.03 L-18.62 38.52 L-18.27 48.13 L-19.04 60.98 L-22.74 60.21 L-39.77 61.8 L-54.03 61.6 L-59.1 59.77 L-66.25 54.91 L-80.03 38.86 L-80.41 42.09 L-82.14 52.35 L-78.09 61.13 L-69.5 69.73 L-59.01 80.92 L-54.14 80.49 L-40.54 81.26 L-25.79 82.36 L-19.68 78.4 L-8.55 71.43 L-1.11 60.76 L1.02 48.06 L0.74 39.01 L-5.45 33.65 L-14.8 23.62 L-26.68 19.68 L-51.24 22.16 L-60.4 20.93 L-63.87 14.91 L-60.1 4.88 L-59.57 1.76 L-54.45 -3.25 L-1.75 1.01" stroke="none" stroke-width="0" fill="#f2c02c" fill-rule="evenodd"></path><path d="M0.26 -0.46 C-3.14 -3.83, -14.58 -16.55, -21.14 -19.67 C-27.7 -22.78, -32.78 -19.26, -39.1 -19.17 C-45.42 -19.09, -52.04 -22.27, -59.05 -19.15 C-66.06 -16.02, -77.75 -7.15, -81.18 -0.45 C-84.6 6.26, -83.21 14.35, -79.6 21.1 C-75.98 27.84, -66.18 37.04, -59.47 40.03 C-52.77 43.01, -45.75 39.18, -39.36 38.99 C-32.97 38.8, -24.43 35.42, -21.13 38.88 C-17.83 42.35, -16.51 56.14, -19.54 59.78 C-22.57 63.41, -32.59 60.57, -39.33 60.68 C-46.07 60.8, -53.06 63.91, -59.98 60.45 C-66.9 56.99, -77.47 39.92, -80.86 39.94 C-84.26 39.95, -83.66 54, -80.35 60.52 C-77.03 67.04, -67.87 75.68, -60.97 79.07 C-54.07 82.45, -45.96 80.68, -38.95 80.84 C-31.94 81, -25.23 83.52, -18.92 80.04 C-12.62 76.57, -4.39 66.52, -1.11 59.98 C2.18 53.43, 4.13 47.37, 0.78 40.75 C-2.56 34.13, -14.27 23.53, -21.2 20.24 C-28.12 16.96, -34.21 21.18, -40.78 21.02 C-47.35 20.86, -57.31 22.95, -60.61 19.28 C-63.9 15.61, -64.11 2.08, -60.57 -0.99 C-57.03 -4.06, -46.19 0.77, -39.36 0.87 C-32.53 0.96, -26.19 -0.15, -19.58 -0.41 C-12.98 -0.67, -3.11 -0.57, 0.28 -0.71 M-1.06 -1.75 C-4.05 -5.55, -12.64 -18.39, -19.03 -21.61 C-25.41 -24.83, -32.85 -21.14, -39.4 -21.08 C-45.94 -21.02, -51.6 -24.72, -58.3 -21.25 C-65.01 -17.79, -75.72 -7.27, -79.61 -0.29 C-83.49 6.69, -85.14 14.14, -81.63 20.63 C-78.12 27.13, -65.48 35.17, -58.55 38.69 C-51.62 42.22, -46.52 41.46, -40.05 41.78 C-33.58 42.09, -23.32 37.66, -19.74 40.57 C-16.15 43.47, -15.38 56.24, -18.53 59.21 C-21.68 62.18, -31.51 58.19, -38.65 58.37 C-45.79 58.54, -54.31 63.48, -61.38 60.26 C-68.45 57.05, -77.77 39.02, -81.08 39.08 C-84.39 39.13, -84.56 53.5, -81.24 60.61 C-77.91 67.71, -67.86 78.64, -61.15 81.68 C-54.45 84.73, -47.94 79.01, -41.02 78.87 C-34.1 78.72, -26.56 83.9, -19.61 80.81 C-12.66 77.72, -2.55 66.9, 0.68 60.33 C3.92 53.76, 3.48 48.36, -0.19 41.4 C-3.86 34.45, -14.94 22.1, -21.34 18.59 C-27.74 15.09, -32.06 19.93, -38.61 20.37 C-45.16 20.81, -56.92 24.4, -60.64 21.22 C-64.35 18.03, -64.15 4.74, -60.89 1.28 C-57.63 -2.19, -47.64 0.7, -41.05 0.43 C-34.46 0.17, -28.48 -0.05, -21.37 -0.33 C-14.27 -0.61, -1.8 -1.51, 1.58 -1.23" stroke="#f2c02c" stroke-width="2" fill="none"></path></g></g><mask></mask><g stroke-linecap="round"><g transform="translate(575.4965844634576 179.68788783168816) rotate(0 -10.547279233460358 10.226057625100083)" fill-rule="evenodd"><path d="M1.07 -1.69 L-17.82 -3.27 L-19.23 -0.37 L-21.38 11.14 L-19.97 20.75 L-11.44 22.39 L-0.58 20.87 L-0.21 14.38 L1.75 1.4" stroke="none" stroke-width="0" fill="#f2c02c" fill-rule="evenodd"></path><path d="M-1.14 0.33 C-4.37 0.55, -16.12 -2.59, -19.1 0.83 C-22.09 4.25, -22.04 17.73, -19.05 20.85 C-16.06 23.98, -4.42 22.85, -1.18 19.55 C2.07 16.26, 0.12 4.35, 0.4 1.1 M0.46 -0.53 C-2.87 -0.61, -16.28 -4.11, -19.58 -0.86 C-22.88 2.39, -22.32 15.41, -19.32 18.96 C-16.31 22.51, -4.62 23.85, -1.55 20.42 C1.53 17, -0.87 1.98, -0.86 -1.59" stroke="#f2c02c" stroke-width="2" fill="none"></path></g></g><mask></mask><g stroke-linecap="round"><g transform="translate(555.4965844634576 219.68788783168816) rotate(0 11.106087228371052 31.377623103845565)" fill-rule="evenodd"><path d="M-1.89 -1.87 L10.77 -4.12 L17.06 -3.08 L20.03 0.75 L19.66 4.93 L21.92 30.87 L19.47 53.41 L21.75 61.4 L17.73 65.7 L8.15 67.46 L5.37 66.88 L-1.99 60.41 L-2.25 56.66 L-1.01 -1.19" stroke="none" stroke-width="0" fill="#f2c02c" fill-rule="evenodd"></path><path d="M0.9 0.83 C4.58 0.91, 17.96 -8.93, 20.95 0.85 C23.94 10.64, 22.25 49.51, 18.82 59.55 C15.4 69.6, 3.45 71.02, 0.4 61.1 C-2.65 51.18, 0.49 10.38, 0.53 0.03 M-0.09 0.21 C3.62 -0.06, 16.97 -10.89, 20.5 -0.82 C24.03 9.25, 24.37 50.65, 21.1 60.64 C17.83 70.63, 4.49 69.15, 0.86 59.12 C-2.77 49.08, -0.31 10.1, -0.67 0.43" stroke="#f2c02c" stroke-width="2" fill="none"></path></g></g><mask></mask><g stroke-linecap="round"><g transform="translate(676.6692041960055 204.75679790369418) rotate(0 -39.7101433415728 30.313641115173084)" fill-rule="evenodd"><path d="M-1.9 0.01 L-15.3 -14.2 L-19.97 -21.83 L-23.06 -19.9 L-39.79 -20.34 L-53.62 -19.59 L-61.32 -18.04 L-69.76 -10.76 L-81.25 -0.26 L-82.04 11.56 L-78.97 18.89 L-75.62 26.75 L-64.09 34.93 L-55.77 39.54 L-27.79 39.73 L-19.15 38.8 L-17.27 51.8 L-19.03 60.19 L-22.7 61.17 L-40.78 59.44 L-55.03 60.26 L-58.53 59.9 L-65.74 53.76 L-78.09 41.13 L-80.13 40.67 L-80.88 54.98 L-79.14 59.08 L-71.79 72.51 L-60.79 80.95 L-54.68 79.81 L-39.8 80.18 L-26.11 82.17 L-21.48 78.06 L-8.01 70.26 L-1.86 59.12 L2.23 50.03 L-1.68 41.09 L-3.58 35.44 L-14.94 24.52 L-26.99 17.57 L-49.48 22.07 L-59.57 21.76 L-59.92 14.09 L-63.62 5.08 L-59.48 -0.46 L-55.65 -2.69 L-0.87 -1.18" stroke="none" stroke-width="0" fill="#f2c02c" fill-rule="evenodd"></path><path d="M0.95 0.85 C-2.73 -2.69, -14.42 -17.15, -21.18 -20.45 C-27.93 -23.74, -33.21 -18.98, -39.6 -18.9 C-45.98 -18.82, -52.85 -22.96, -59.47 -19.97 C-66.1 -16.99, -75.75 -7.49, -79.36 -1.01 C-82.97 5.46, -84.43 12.08, -81.13 18.88 C-77.83 25.68, -66.51 36.14, -59.54 39.78 C-52.57 43.41, -45.92 40.57, -39.33 40.68 C-32.73 40.8, -23.06 37.24, -19.98 40.45 C-16.9 43.66, -17.47 56.59, -20.86 59.94 C-24.26 63.28, -33.66 60.67, -40.35 60.52 C-47.03 60.38, -54.54 62.35, -60.97 59.07 C-67.4 55.79, -75.96 40.68, -78.95 40.84 C-81.94 41, -81.9 53.52, -78.92 60.04 C-75.95 66.57, -67.73 76.52, -61.11 79.98 C-54.49 83.43, -45.87 80.71, -39.22 80.75 C-32.56 80.8, -27.6 83.53, -21.2 80.24 C-14.79 76.96, -4.21 67.85, -0.78 61.02 C2.65 54.19, 2.69 46.29, -0.61 39.28 C-3.9 32.28, -14.11 22.08, -20.57 19.01 C-27.03 15.94, -32.86 20.77, -39.36 20.87 C-45.86 20.96, -56.19 23.19, -59.58 19.59 C-62.98 16, -63.11 2.76, -59.72 -0.71 C-56.33 -4.17, -45.83 -1.28, -39.24 -1.2 C-32.65 -1.11, -26.68 -0.3, -20.17 -0.2 C-13.66 -0.1, -3.72 -0.75, -0.2 -0.62 M-0.01 0.26 C-3.42 -3.2, -12.39 -15.65, -19.08 -19.14 C-25.77 -22.63, -33.51 -20.72, -40.15 -20.67 C-46.8 -20.62, -52.23 -22.11, -58.95 -18.86 C-65.67 -15.6, -76.93 -7.78, -80.49 -1.15 C-84.05 5.48, -83.95 14.33, -80.31 20.91 C-76.67 27.49, -65.37 35.02, -58.65 38.32 C-51.93 41.62, -46.17 40.54, -40 40.7 C-33.83 40.87, -24.88 36.18, -21.64 39.31 C-18.4 42.43, -17.45 55.7, -20.55 59.45 C-23.64 63.2, -33.76 61.39, -40.21 61.78 C-46.66 62.18, -52.3 65.37, -59.23 61.82 C-66.17 58.26, -78.52 40.78, -81.83 40.45 C-85.13 40.13, -82.47 53.38, -79.06 59.87 C-75.65 66.37, -67.64 76.26, -61.36 79.41 C-55.09 82.55, -48.42 78.45, -41.43 78.74 C-34.44 79.02, -26.52 84.53, -19.42 81.12 C-12.32 77.71, -2.27 65.26, 1.19 58.26 C4.65 51.27, 4.95 45.48, 1.35 39.16 C-2.25 32.85, -13.47 23.54, -20.38 20.36 C-27.29 17.19, -33.66 19.92, -40.11 20.14 C-46.56 20.36, -55.83 24.76, -59.08 21.69 C-62.33 18.62, -62.63 5.17, -59.59 1.72 C-56.56 -1.74, -47.7 1.23, -40.87 0.94 C-34.04 0.66, -25.56 0.33, -18.61 -0.01 C-11.65 -0.35, -2.13 -1.17, 0.85 -1.1" stroke="#f2c02c" stroke-width="2" fill="none"></path></g></g><mask></mask><g stroke-linecap="round"><g transform="translate(689.4279040931401 201.86027786254795) rotate(0 30.652024834319946 34.15688775207795)" fill-rule="evenodd"><path d="M-1.62 -1.55 L-2 -8.6 L-2.43 -15.87 L-1.85 -20.04 L13.49 -20.62 L45.82 -21.47 L58.7 -18.3 L63.68 -17.13 L64.05 -11.66 L61.07 1.44 L44.76 -5.83 L40.47 -1.18 L40.33 14.25 L40.54 72.95 L39.67 78.96 L37.55 88.42 L28.1 90.01 L23.29 89.24 L20.03 78.17 L21.12 74.79 L21.15 15.91 L21.38 1.82 L14.62 -3.66 L11.49 -4.51 L-1.25 -0.26" stroke="none" stroke-width="0" fill="#f2c02c" fill-rule="evenodd"></path><path d="M-1.18 -0.45 C-1.27 -3.74, -9.88 -15.65, 0.4 -18.9 C10.69 -22.16, 50.49 -22.96, 60.53 -19.97 C70.57 -16.99, 64.25 -4.15, 60.64 -1.01 C57.03 2.13, 42.23 -14.58, 38.87 -1.12 C35.5 12.35, 43.49 66.14, 40.46 79.78 C37.43 93.41, 24.08 93.9, 20.67 80.68 C17.27 67.46, 23.61 13.91, 20.02 0.45 C16.43 -13.01, 2.53 -0.08, -0.86 -0.06 M0.41 -1.73 C0.11 -5.4, -10.27 -17.63, -0.33 -20.45 C9.61 -23.27, 49.78 -21.98, 60.04 -18.64 C70.3 -15.31, 64.49 -3.33, 61.23 -0.44 C57.96 2.45, 44.26 -14.49, 40.46 -1.32 C36.67 11.86, 41.59 65.12, 38.46 78.62 C35.32 92.12, 24.91 92.74, 21.67 79.7 C18.43 66.65, 22.5 13.88, 19.01 0.35 C15.51 -13.18, 3.8 -1.48, 0.68 -1.48" stroke="#f2c02c" stroke-width="2" fill="none"></path></g></g><mask></mask><g stroke-linecap="round"><g transform="translate(758.5659539388421 283.30853788312106) rotate(0 39.8998955005909 -49.43805477810619)" fill-rule="evenodd"><path d="M0.03 0.75 L16.06 -56.36 L28.48 -85.85 L35.81 -100.61 L44.4 -97.59 L53.67 -85.71 L56.67 -71.04 L72.17 -34.78 L78.01 0.41 L77.53 2.85 L74.62 -3.22 L50.92 -34 L46.61 -36.43 L40.69 -40.68 L35.19 -39.73 L30.33 -36.69 L17.22 -22.83 L-0.33 -1.04" stroke="none" stroke-width="0" fill="#f2c02c" fill-rule="evenodd"></path><path d="M0.4 1.1 C7.35 -15.49, 27.15 -99.62, 40.53 -99.97 C53.9 -100.32, 80.92 -10.82, 80.64 -1.01 C80.37 8.8, 52.23 -41.25, 38.87 -41.12 C25.5 -40.99, 6.83 -7.19, 0.46 -0.22 M-0.84 0.63 C6.1 -15.71, 26.35 -98.28, 39.86 -98.42 C53.37 -98.56, 80.44 -9.86, 80.21 -0.22 C79.99 9.41, 52.02 -40.65, 38.52 -40.6 C25.02 -40.56, 5.86 -6.71, -0.77 0.05" stroke="#f2c02c" stroke-width="2" fill="none"></path></g></g><mask></mask><g stroke-linecap="round"><g transform="translate(857.8418239285534 281.86027786254795) rotate(0 39.236169582202365 -50.3104805351723)" fill-rule="evenodd"><path d="M-1.85 -0.04 L-3.09 -70.04 L-6.21 -84.91 L-2.95 -96.81 L1.2 -100.84 L11.24 -90.56 L48.88 -31.52 L55.65 -24.25 L60.47 -21.18 L64 -24.89 L63.47 -30.96 L59.67 -101.04 L65.67 -107.05 L68.1 -111.24 L75.17 -107.17 L80.03 -101.83 L83.03 -90.1 L82.71 -50.34 L82.48 -6.58 L75.56 10.4 L73.99 10.49 L58.75 -0.26 L28.11 -50.47 L21.03 -61.11 L19 -56.55 L19.03 -53.51 L19.7 -15.46 L20.96 0.98 L16.79 3.02 L10.23 5.55 L0.97 0.19" stroke="none" stroke-width="0" fill="#f2c02c" fill-rule="evenodd"></path><path d="M0.53 0.03 C0.57 -16.99, -9.08 -97.49, 0.64 -101.01 C10.37 -104.54, 48.9 -21.25, 58.87 -21.12 C68.84 -20.99, 56.83 -87.19, 60.46 -100.22 C64.1 -113.25, 77.41 -116.1, 80.67 -99.32 C83.93 -82.54, 83.61 -16.09, 80.02 0.45 C76.43 16.99, 69.2 9.92, 59.14 -0.06 C49.08 -10.05, 26.34 -59.33, 19.65 -59.48 C12.97 -59.62, 22.13 -10.98, 19.03 -0.93 C15.93 9.12, 4.04 0.68, 1.05 0.84 M-0.66 -1 C-0.75 -17.39, -10.27 -96.77, 0.03 -100 C10.34 -103.24, 51.02 -20.52, 61.17 -20.39 C71.32 -20.26, 57.89 -86.2, 60.95 -99.23 C64.01 -112.26, 76.14 -115.05, 79.56 -98.57 C82.97 -82.09, 84.81 -16.54, 81.44 -0.35 C78.07 15.84, 69.83 8.42, 59.33 -1.44 C48.83 -11.31, 24.91 -59.93, 18.44 -59.54 C11.97 -59.16, 23.8 -9.21, 20.51 0.86 C17.22 10.92, 2.41 0.79, -1.29 0.83" stroke="#f2c02c" stroke-width="2" fill="none"></path></g></g><mask></mask><g stroke-linecap="round"><g transform="translate(957.5661836405293 198.9637578214015) rotate(0 30.384812412911288 33.517304633601526)" fill-rule="evenodd"><path d="M-1.85 -0.04 L-2.44 -8.75 L-6.21 -15.53 L-1.3 -18.3 L11.18 -23.07 L46.86 -23.53 L61.07 -18.56 L65.38 -16.62 L65.47 -11.18 L61.26 -2 L43.78 -5.49 L39.67 -1.04 L40.67 17.17 L38.92 73.29 L39.23 81.74 L35.97 85.67 L31.94 91.5 L24.28 87.16 L21.38 81.82 L17.86 75.24 L22.43 16.74 L18.75 -0.26 L16.4 -4.06 L11.03 -6.11 L0.78 1.28" stroke="none" stroke-width="0" fill="#f2c02c" fill-rule="evenodd"></path><path d="M0.64 -1.01 C0.37 -4.54, -11.1 -17.92, -1.13 -21.12 C8.84 -24.32, 50.16 -23.86, 60.46 -20.22 C70.76 -16.59, 64.08 -2.76, 60.67 0.68 C57.27 4.13, 43.61 -12.76, 40.02 0.45 C36.43 13.66, 42.53 66.59, 39.14 79.94 C35.74 93.28, 23 94, 19.65 80.52 C16.3 67.04, 22.13 12.35, 19.03 -0.93 C15.93 -14.21, 4.04 0.68, 1.05 0.84 M-0.48 1.07 C-0.45 -2.35, -9.08 -16.82, 0.99 -20.17 C11.06 -23.52, 49.89 -22.13, 59.94 -19.02 C69.99 -15.91, 64.84 -4.86, 61.27 -1.51 C57.71 1.84, 42.09 -12.32, 38.56 1.08 C35.03 14.48, 43.17 65.8, 40.1 78.86 C37.02 91.92, 23.27 92.89, 20.11 79.45 C16.95 66.01, 24.52 11.5, 21.15 -1.76 C17.79 -15.02, 3.67 -0.33, -0.07 -0.11" stroke="#f2c02c" stroke-width="2" fill="none"></path></g></g><mask></mask><g stroke-linecap="round"><g transform="translate(301.0072012473747 213.6150990145082) rotate(0 7.826835611941533 4.7956687244469265)" fill-rule="evenodd"><path d="M-0.01 -0.23 L-1.45 10.29 L-1.65 13.88 L8.98 15.44 L15.2 12.54 L17.67 5.07 L15.03 -6 L10.84 -4.38 L-1.46 0.06" stroke="none" stroke-width="0" fill="#ffffff" fill-rule="evenodd"></path><path d="M0.16 -0.55 C0.01 1.56, -3.35 10.11, -0.82 12.4 C1.71 14.69, 12.65 16.23, 15.34 13.18 C18.02 10.13, 17.71 -3.57, 15.29 -5.89 C12.87 -8.21, 3.34 -1.83, 0.82 -0.73 M-1.21 1.78 C-1 4.04, -1.24 11.34, 1.46 13.45 C4.16 15.55, 12.6 17.43, 15.01 14.41 C17.43 11.4, 18.49 -2.13, 15.95 -4.65 C13.41 -7.17, 2.16 -1.51, -0.23 -0.72" stroke="#f2c02c" stroke-width="2" fill="none"></path></g></g><mask></mask><g stroke-linecap="round"><g transform="translate(791.4978006149581 214.02402498893946) rotate(0 6.908736918052 3.882865774713167)" fill-rule="evenodd"><path d="M0.77 1.66 L-2.73 9.51 L-0.84 13.14 L6.93 17.09 L15.65 14.13 L17.76 4.92 L15.1 -5.26 L11.89 -6.21 L1.63 1.63" stroke="none" stroke-width="0" fill="#ffffff" fill-rule="evenodd"></path><path d="M-0.23 -0.59 C-0.14 1.82, -2.72 11.29, -0.43 13.55 C1.86 15.8, 10.83 16.05, 13.5 12.93 C16.17 9.81, 17.79 -3.15, 15.57 -5.17 C13.35 -7.18, 2.6 0.14, 0.18 0.84 M-1.8 1.72 C-1.83 3.82, -4.55 9.48, -1.6 11.53 C1.34 13.59, 13.48 17.15, 15.87 14.03 C18.25 10.91, 15.56 -5.14, 12.72 -7.2 C9.88 -9.26, 1.04 0.28, -1.19 1.67" stroke="#f2c02c" stroke-width="2" fill="none"></path></g></g><mask></mask><g stroke-linecap="round"><g transform="translate(110.91306459972748 198.36287813293433) rotate(0 13.666703654772391 9.430920730347765)"><path d="M-0.05 0.29 C1.22 -1.17, 4.92 -6.68, 8.07 -8.09 C11.21 -9.5, 15.44 -9.65, 18.81 -8.17 C22.18 -6.7, 28.51 -2.32, 28.28 0.78 C28.06 3.88, 20.53 9.12, 17.47 10.45 C14.41 11.78, 9.69 8.82, 9.91 8.76 C10.13 8.7, 15.63 8.49, 18.79 10.1 C21.95 11.71, 29.06 15.5, 28.87 18.43 C28.68 21.35, 20.96 25.89, 17.63 27.64 C14.3 29.39, 12 30.64, 8.87 28.93 C5.74 27.21, 0.23 19.05, -1.13 17.34 M-1.54 -0.61 C0.04 -2.43, 6.86 -8.05, 10.15 -9.6 C13.44 -11.16, 15.09 -11.32, 18.19 -9.95 C21.3 -8.57, 28.64 -4.32, 28.8 -1.37 C28.95 1.59, 22.58 6.33, 19.11 7.8 C15.64 9.27, 7.92 7.23, 8 7.46 C8.08 7.69, 16.17 7.43, 19.58 9.19 C22.98 10.96, 28.49 15.21, 28.42 18.04 C28.35 20.87, 22.32 24.34, 19.15 26.18 C15.99 28.02, 12.86 30.49, 9.43 29.08 C6.01 27.67, 0.22 19.5, -1.41 17.71" stroke="#000000" stroke-width="2" fill="none"></path></g></g><mask></mask><g stroke-linecap="round"><g transform="translate(142.76843231636212 198.7266543549776) rotate(0 13.617347010476578 8.444481267349175)"><path d="M-1.19 1.17 C0.41 -0.24, 6.18 -6.57, 9.55 -8.17 C12.92 -9.78, 16.16 -10.04, 19.02 -8.48 C21.89 -6.92, 26.71 -1.69, 26.73 1.19 C26.76 4.06, 22.04 5.73, 19.17 8.76 C16.3 11.79, 12.54 16.21, 9.53 19.36 C6.52 22.51, -1.8 26.31, 1.09 27.69 C3.98 29.07, 22.51 27.43, 26.89 27.64 M0.38 0.73 C1.85 -1.01, 5.73 -7.87, 8.75 -9.73 C11.78 -11.59, 15.58 -11.91, 18.52 -10.41 C21.47 -8.91, 26.51 -3.96, 26.43 -0.75 C26.35 2.47, 20.6 5.64, 18.04 8.89 C15.48 12.14, 14.32 15.86, 11.09 18.76 C7.85 21.66, -4.35 24.88, -1.35 26.29 C1.64 27.7, 23.97 26.91, 29.06 27.22" stroke="#000000" stroke-width="2" fill="none"></path></g></g><mask></mask></svg>