<svg version="1.1" xmlns="http://www.w3.org/2000/svg" viewBox="0 0 1132.6505343794288 329.71723834731387" width="1132.6505343794288" height="329.71723834731387">
  <!-- svg-source:excalidraw -->
  
  <defs>
    <style class="style-fonts">
      @font-face {
        font-family: "Virgil";
        src: url("https://excalidraw.com/Virgil.woff2");
      }
      @font-face {
        font-family: "Cascadia";
        src: url("https://excalidraw.com/Cascadia.woff2");
      }
    </style>
    
  </defs>
  <g stroke-linecap="round" transform="translate(98.54829224995638 276.7104090324149) rotate(0 65.64200263852968 21.503414657449497)"><path d="M95.61 3.02 C105.08 4.17, 114.05 7.11, 119.97 10.01 C125.89 12.91, 130.62 16.79, 131.13 20.44 C131.65 24.09, 127.92 28.87, 123.04 31.92 C118.17 34.97, 110.84 36.99, 101.86 38.74 C92.88 40.5, 80.31 42.04, 69.17 42.46 C58.02 42.87, 44.65 42.65, 35.01 41.22 C25.37 39.78, 17.12 36.98, 11.33 33.84 C5.55 30.7, 0.82 26.12, 0.28 22.38 C-0.25 18.64, 3.31 14.47, 8.15 11.4 C12.99 8.32, 20.25 5.74, 29.32 3.95 C38.38 2.15, 50.98 0.89, 62.55 0.62 C74.11 0.35, 92 1.62, 98.69 2.33 C105.37 3.04, 103.29 4.31, 102.65 4.89 M67.32 0.53 C77.59 0.38, 91.26 2.29, 100.83 4.17 C110.4 6.05, 119.83 8.93, 124.75 11.8 C129.68 14.67, 131 17.64, 130.38 21.38 C129.76 25.12, 126.55 30.81, 121.06 34.24 C115.56 37.66, 106.96 40.7, 97.4 41.92 C87.85 43.14, 74.65 41.8, 63.75 41.57 C52.84 41.33, 41.21 42.09, 32 40.49 C22.79 38.89, 13.77 35.38, 8.47 31.97 C3.17 28.57, -0.3 23.79, 0.19 20.06 C0.68 16.33, 5.82 12.35, 11.43 9.59 C17.04 6.82, 24.19 4.82, 33.85 3.47 C43.5 2.12, 63.48 1.91, 69.37 1.5 C75.26 1.1, 69.41 1.05, 69.17 1.04" stroke="none" stroke-width="0" fill="#343a40"></path><path d="M68.69 -0.24 C79.09 -0.39, 91.08 2.19, 100.12 4.18 C109.17 6.17, 117.81 8.61, 122.97 11.69 C128.14 14.76, 131.5 18.94, 131.1 22.65 C130.71 26.35, 126.45 30.79, 120.62 33.9 C114.78 37.02, 105.77 39.76, 96.11 41.35 C86.45 42.94, 73.72 43.74, 62.68 43.44 C51.64 43.13, 38.98 41.63, 29.86 39.53 C20.74 37.43, 13.02 34.1, 7.95 30.86 C2.87 27.61, -0.93 23.64, -0.61 20.05 C-0.29 16.47, 3.86 12.43, 9.88 9.35 C15.89 6.27, 24.63 3.08, 35.46 1.59 C46.29 0.11, 67.18 0.64, 74.88 0.45 C82.58 0.25, 81.81 0.24, 81.65 0.41 M39.28 3.48 C48.16 1.43, 59.83 -0.62, 70.48 -0.43 C81.13 -0.24, 94.1 2.36, 103.18 4.62 C112.25 6.88, 120.21 10.02, 124.95 13.13 C129.69 16.25, 132.53 20.04, 131.61 23.29 C130.7 26.54, 125.92 29.61, 119.47 32.63 C113.02 35.65, 102.78 39.78, 92.9 41.41 C83.03 43.05, 71.21 42.82, 60.22 42.45 C49.22 42.08, 36.12 40.95, 26.93 39.2 C17.74 37.46, 9.55 35.15, 5.06 32 C0.57 28.86, -1.09 24.11, 0 20.33 C1.09 16.56, 5.28 12.3, 11.61 9.33 C17.93 6.37, 33.74 3.84, 37.97 2.56 C42.2 1.27, 36.59 1.6, 36.99 1.64" stroke="#343a40" stroke-width="2" fill="none"></path></g><g transform="translate(34.002322378676126 36.30269508597105) rotate(0 -0.7897087135002039 2.665266908063032)" stroke="none"><path d="M0.69 -1.25 L0.51 -1.85 L0.71 -0.26 L-1.83 0.27 L-1.59 1.06 L-1.25 3.37 L-1.54 1.48 L-1.63 2.11 L-2.24 2.85 L-1.41 5.63 L-1.18 4.51 L0.18 2.94 L-3.04 5.63 L-3.26 2.94 L-2.85 3.32 L-2.34 5.78 L-2.87 4.33" stroke="none" stroke-width="0" fill="#1e1e1e" fill-rule="evenodd"></path><path fill="#000000" d="M 4.40,1.85 Q 4.40,1.85 4.05,2.97 3.69,4.09 3.66,4.65 3.62,5.22 3.49,6.02 3.37,6.82 2.99,7.54 2.62,8.26 2.03,8.82 1.45,9.38 0.71,9.72 -0.01,10.07 -0.81,10.16 -1.62,10.25 -2.41,10.08 -3.20,9.91 -3.90,9.50 -4.60,9.08 -5.13,8.47 -5.65,7.85 -5.96,7.10 -6.26,6.35 -6.31,5.54 -6.36,4.73 -6.15,3.95 -5.93,3.17 -5.48,2.50 -5.03,1.82 -4.39,1.33 -3.75,0.84 -2.98,0.57 -2.22,0.31 -1.41,0.31 -0.59,0.30 0.16,0.56 0.93,0.81 1.58,1.30 2.23,1.78 2.69,2.45 3.15,3.12 3.37,3.90 3.59,4.68 3.55,5.49 3.51,6.30 3.21,7.05 2.92,7.81 2.40,8.43 1.88,9.05 1.18,9.47 0.49,9.89 -0.29,10.07 -1.08,10.25 -1.88,10.16 -2.69,10.08 -3.43,9.74 -4.17,9.41 -4.76,8.85 -5.35,8.30 -5.73,7.59 -6.11,6.87 -6.25,6.07 -6.39,5.28 -6.39,5.28 -6.39,5.28 -5.95,2.75 -5.51,0.21 -4.96,-0.81 -4.40,-1.85 -4.12,-2.35 -3.83,-2.85 -3.43,-3.27 -3.04,-3.69 -2.55,-4.00 -2.06,-4.31 -1.52,-4.49 -0.97,-4.68 -0.40,-4.73 0.17,-4.78 0.74,-4.69 1.31,-4.60 1.84,-4.37 2.37,-4.15 2.83,-3.80 3.29,-3.46 3.66,-3.01 4.03,-2.57 4.28,-2.05 4.53,-1.53 4.64,-0.96 4.76,-0.40 4.74,0.17 4.72,0.74 4.56,1.30 4.40,1.85 4.40,1.85 L 4.40,1.85 Z"></path></g><g transform="translate(221.00909267834413 130.27301891061364) rotate(0 14.98603608988833 -26.09927633632273)" stroke="none"><path fill="#000000" d="M 4.20,2.10 Q 4.20,2.10 3.98,2.71 3.76,3.33 2.69,1.16 1.62,-1.00 -0.44,0.12 -2.50,1.26 -2.78,-0.87 -3.06,-3.00 -2.06,-5.25 -1.07,-7.49 0.26,-9.67 1.59,-11.84 2.52,-13.76 3.45,-15.67 4.32,-17.86 5.19,-20.05 6.13,-22.21 7.07,-24.38 7.93,-26.41 8.78,-28.45 9.63,-30.51 10.49,-32.57 11.60,-34.83 12.71,-37.10 13.63,-39.08 14.55,-41.07 15.88,-43.79 17.22,-46.51 18.56,-48.88 19.90,-51.25 20.84,-53.56 21.77,-55.86 22.82,-57.67 23.86,-59.48 24.47,-60.57 25.08,-61.66 26.01,-62.50 26.94,-63.34 28.08,-63.84 29.23,-64.34 30.48,-64.44 31.72,-64.55 32.94,-64.25 34.15,-63.95 35.21,-63.29 36.26,-62.62 37.05,-61.64 37.83,-60.67 38.27,-59.50 38.71,-58.33 38.74,-57.08 38.78,-55.83 38.42,-54.63 38.06,-53.44 37.33,-52.42 36.61,-51.40 35.59,-50.67 34.58,-49.94 33.39,-49.57 32.19,-49.19 30.94,-49.22 29.69,-49.25 28.52,-49.68 27.34,-50.11 26.37,-50.89 25.39,-51.67 24.71,-52.72 24.04,-53.77 23.73,-54.98 23.42,-56.19 23.52,-57.44 23.62,-58.68 24.11,-59.83 24.60,-60.98 25.43,-61.92 26.26,-62.85 27.35,-63.47 28.43,-64.09 29.66,-64.33 30.89,-64.57 32.13,-64.40 33.37,-64.24 34.49,-63.69 35.61,-63.14 36.50,-62.26 37.38,-61.38 37.94,-60.26 38.50,-59.14 38.67,-57.90 38.85,-56.66 38.62,-55.44 38.38,-54.21 38.38,-54.21 38.39,-54.21 37.13,-51.92 35.87,-49.64 34.89,-47.37 33.91,-45.09 32.86,-43.11 31.82,-41.12 30.61,-39.12 29.40,-37.13 28.26,-34.84 27.12,-32.56 26.14,-30.59 25.16,-28.63 23.94,-26.22 22.72,-23.82 21.76,-21.76 20.80,-19.70 19.74,-17.77 18.69,-15.83 17.67,-13.61 16.66,-11.40 15.49,-9.25 14.32,-7.10 12.98,-5.40 11.64,-3.70 10.02,-1.78 8.40,0.13 7.56,2.36 6.72,4.59 5.37,6.34 4.01,8.09 0.26,7.89 -3.48,7.68 -4.77,5.72 -6.05,3.75 -5.49,1.37 -4.92,-1.01 -4.56,-1.55 -4.20,-2.10 -3.89,-2.57 -3.58,-3.05 -3.16,-3.43 -2.74,-3.81 -2.25,-4.09 -1.75,-4.36 -1.20,-4.51 -0.65,-4.65 -0.09,-4.67 0.47,-4.68 1.02,-4.55 1.58,-4.43 2.08,-4.17 2.59,-3.92 3.02,-3.55 3.46,-3.18 3.79,-2.72 4.12,-2.26 4.33,-1.74 4.54,-1.21 4.62,-0.65 4.70,-0.09 4.64,0.47 4.59,1.03 4.39,1.57 4.20,2.10 4.20,2.10 L 4.20,2.10 Z"></path></g><g transform="translate(227.7443897973949 125.89507578323047) rotate(0 -3.030883703572954 4.798899197323863)" stroke="none"><path fill="#000000" d="M 4.11,2.51 Q 4.11,2.51 3.66,3.43 3.22,4.36 2.33,6.53 1.44,8.70 -0.09,10.84 -1.63,12.98 -2.15,13.44 -2.68,13.89 -3.29,14.21 -3.91,14.53 -4.59,14.69 -5.26,14.86 -5.96,14.85 -6.65,14.85 -7.32,14.68 -8.00,14.50 -8.61,14.18 -9.22,13.85 -9.74,13.39 -10.25,12.92 -10.64,12.35 -11.04,11.78 -11.28,11.13 -11.52,10.47 -11.60,9.78 -11.68,9.09 -11.59,8.41 -11.50,7.72 -11.25,7.07 -11.00,6.42 -10.60,5.85 -10.20,5.29 -9.87,4.97 -9.53,4.65 -8.72,4.19 -7.91,3.73 -7.00,3.55 -6.08,3.38 -5.16,3.50 -4.23,3.63 -3.40,4.04 -2.56,4.45 -1.90,5.11 -1.24,5.77 -0.83,6.60 -0.41,7.44 -0.29,8.36 -0.16,9.28 -0.33,10.20 -0.51,11.11 -0.97,11.92 -1.42,12.74 -2.12,13.36 -2.81,13.98 -3.67,14.35 -4.52,14.72 -5.45,14.80 -6.38,14.87 -7.28,14.65 -8.19,14.43 -8.97,13.93 -9.76,13.42 -10.34,12.70 -10.93,11.97 -11.25,11.10 -11.57,10.22 -11.60,9.29 -11.63,8.36 -11.35,7.47 -11.08,6.58 -10.54,5.82 -9.99,5.07 -9.24,4.52 -8.48,3.98 -7.59,3.70 -6.70,3.43 -5.77,3.45 -4.84,3.48 -3.96,3.80 -3.09,4.12 -2.36,4.70 -1.63,5.28 -1.13,6.07 -0.63,6.85 -0.40,7.76 -0.18,8.66 -0.25,9.59 -0.33,10.52 -0.69,11.37 -1.06,12.23 -1.35,12.61 -1.63,12.98 -2.15,13.44 -2.68,13.89 -3.29,14.21 -3.91,14.53 -4.59,14.69 -5.26,14.86 -5.95,14.85 -6.65,14.85 -7.32,14.68 -8.00,14.51 -8.61,14.18 -9.22,13.85 -9.74,13.39 -10.25,12.92 -10.64,12.35 -11.03,11.78 -11.28,11.13 -11.52,10.48 -11.60,9.79 -11.68,9.10 -11.59,8.41 -11.50,7.72 -11.25,7.07 -11.00,6.42 -10.60,5.85 -10.20,5.29 -8.98,4.08 -7.76,2.86 -6.56,0.99 -5.35,-0.87 -4.73,-1.69 -4.11,-2.51 -3.75,-2.97 -3.39,-3.42 -2.93,-3.78 -2.47,-4.14 -1.94,-4.37 -1.41,-4.61 -0.84,-4.71 -0.26,-4.81 0.31,-4.78 0.89,-4.74 1.44,-4.56 2.00,-4.39 2.49,-4.08 2.99,-3.78 3.40,-3.37 3.81,-2.95 4.11,-2.45 4.41,-1.95 4.58,-1.40 4.75,-0.84 4.78,-0.26 4.81,0.31 4.70,0.88 4.60,1.45 4.35,1.98 4.11,2.51 4.11,2.51 L 4.11,2.51 Z"></path></g><g transform="translate(215.28409012715065 128.42081220287463) rotate(0 11.786769958339164 -17.76434615149708)" stroke="none"><path fill="#000000" d="M -4.23,-2.54 Q -4.23,-2.54 -3.87,-3.31 -3.50,-4.08 -2.31,-6.05 -1.11,-8.03 0.37,-9.86 1.86,-11.70 3.21,-13.91 4.56,-16.12 5.59,-17.98 6.62,-19.85 7.85,-21.83 9.07,-23.81 10.46,-25.97 11.85,-28.13 12.87,-30.07 13.89,-32.01 14.91,-34.10 15.93,-36.20 16.42,-37.14 16.92,-38.08 17.51,-39.07 18.10,-40.06 18.98,-40.80 19.86,-41.55 20.93,-41.98 22.00,-42.40 23.15,-42.47 24.31,-42.53 25.42,-42.22 26.53,-41.91 27.48,-41.27 28.44,-40.62 29.13,-39.70 29.83,-38.79 30.20,-37.69 30.57,-36.60 30.57,-35.45 30.57,-34.29 30.20,-33.20 29.83,-32.11 29.14,-31.19 28.44,-30.27 27.49,-29.63 26.53,-28.98 25.42,-28.67 24.31,-28.36 23.16,-28.42 22.01,-28.49 20.94,-28.91 19.86,-29.34 18.99,-30.09 18.11,-30.83 17.51,-31.82 16.92,-32.81 16.67,-33.93 16.42,-35.06 16.55,-36.21 16.67,-37.35 17.15,-38.40 17.64,-39.44 18.43,-40.28 19.22,-41.12 20.24,-41.66 21.26,-42.20 22.40,-42.39 23.54,-42.57 24.67,-42.39 25.81,-42.20 26.83,-41.66 27.85,-41.12 28.64,-40.28 29.44,-39.45 29.92,-38.40 30.40,-37.35 30.53,-36.21 30.65,-35.06 30.41,-33.93 30.16,-32.81 30.16,-32.81 30.16,-32.81 28.57,-29.85 26.97,-26.89 25.92,-24.89 24.87,-22.90 23.64,-21.07 22.41,-19.23 20.75,-16.98 19.10,-14.73 17.60,-12.73 16.11,-10.73 14.45,-8.42 12.79,-6.11 10.76,-4.12 8.72,-2.13 6.98,-0.47 5.25,1.17 4.74,1.85 4.23,2.54 3.87,3.01 3.50,3.48 3.03,3.85 2.56,4.21 2.02,4.46 1.48,4.71 0.89,4.82 0.31,4.93 -0.28,4.89 -0.87,4.86 -1.44,4.68 -2.01,4.51 -2.52,4.20 -3.03,3.89 -3.45,3.47 -3.87,3.05 -4.18,2.55 -4.49,2.04 -4.67,1.47 -4.85,0.90 -4.89,0.31 -4.93,-0.28 -4.82,-0.86 -4.72,-1.45 -4.47,-1.99 -4.23,-2.54 -4.23,-2.54 L -4.23,-2.54 Z"></path></g><g transform="translate(256.36940255336185 49.617835909977615) rotate(0 -1.3470594238101512 7.9981653288731)" stroke="none"><path fill="#000000" d="M -4.63,1.60 Q -4.63,1.60 -5.16,0.38 -5.69,-0.83 -3.42,-0.05 -1.16,0.71 -0.52,-1.98 0.12,-4.68 -2.37,-5.99 -4.86,-7.30 -4.32,-4.88 -3.78,-2.46 -1.62,-1.80 0.53,-1.14 0.97,-3.76 1.40,-6.37 -1.15,-8.24 -3.71,-10.10 -2.21,-11.92 -0.71,-13.74 -0.21,-13.97 0.27,-14.20 0.86,-14.80 1.44,-15.41 2.16,-15.86 2.87,-16.31 3.67,-16.57 4.47,-16.83 5.31,-16.90 6.15,-16.96 6.99,-16.83 7.82,-16.69 8.59,-16.35 9.37,-16.02 10.04,-15.51 10.71,-15.00 11.24,-14.35 11.78,-13.69 12.13,-12.93 12.49,-12.17 12.66,-11.34 12.82,-10.51 12.79,-9.67 12.75,-8.83 12.51,-8.02 12.28,-7.21 11.85,-6.48 11.43,-5.75 12.09,-8.44 12.75,-11.14 12.96,-8.66 13.16,-6.19 13.14,-3.82 13.12,-1.46 12.83,1.28 12.55,4.03 12.13,6.20 11.72,8.37 10.93,10.52 10.15,12.68 9.65,15.06 9.15,17.44 8.50,19.86 7.85,22.28 5.82,24.41 3.80,26.54 1.90,27.68 0.01,28.83 -1.79,30.29 -3.59,31.75 -3.58,31.72 -3.57,31.68 -4.34,32.20 -5.10,32.73 -5.97,33.05 -6.84,33.37 -7.76,33.48 -8.68,33.59 -9.60,33.47 -10.52,33.35 -11.39,33.02 -12.25,32.69 -13.01,32.16 -13.77,31.62 -14.38,30.93 -14.99,30.23 -15.42,29.41 -15.84,28.58 -16.06,27.68 -16.28,26.78 -16.27,25.85 -16.27,24.93 -16.04,24.03 -15.81,23.13 -15.38,22.31 -14.94,21.49 -14.32,20.80 -13.70,20.11 -13.63,17.32 -13.55,14.53 -13.59,14.63 -13.62,14.73 -13.46,13.81 -13.29,12.89 -12.91,12.04 -12.53,11.19 -11.96,10.45 -11.38,9.72 -10.65,9.14 -9.92,8.56 -9.07,8.18 -8.22,7.79 -7.30,7.62 -6.38,7.45 -5.45,7.50 -4.52,7.56 -3.63,7.83 -2.74,8.11 -1.94,8.59 -1.14,9.07 -0.48,9.73 0.18,10.38 0.66,11.18 1.15,11.98 1.43,12.87 1.71,13.76 1.77,14.69 1.82,15.62 1.60,17.90 1.37,20.17 1.10,22.02 0.83,23.87 0.57,25.09 0.31,26.32 -0.32,27.40 -0.96,28.47 -1.91,29.29 -2.86,30.11 -4.03,30.58 -5.19,31.05 -6.44,31.12 -7.69,31.20 -8.90,30.87 -10.11,30.54 -11.15,29.84 -12.19,29.15 -12.95,28.15 -13.72,27.16 -14.12,25.97 -14.53,24.79 -14.54,23.54 -14.54,22.28 -14.15,21.09 -13.76,19.90 -13.01,18.90 -12.25,17.90 -11.22,17.19 -10.19,16.48 -8.98,16.14 -7.78,15.80 -6.52,15.86 -5.27,15.92 -4.11,16.38 -2.94,16.84 -1.98,17.64 -1.02,18.45 -0.37,19.52 0.27,20.59 0.55,21.81 0.83,23.03 0.70,24.28 0.57,25.53 0.05,26.67 -0.46,27.81 -1.32,28.72 -2.17,29.63 -3.28,30.23 -4.38,30.82 -5.62,31.03 -6.85,31.24 -8.09,31.04 -9.33,30.85 -10.44,30.27 -11.55,29.68 -12.42,28.78 -13.28,27.87 -13.81,26.74 -14.35,25.61 -14.49,24.36 -14.63,23.12 -14.63,23.12 -14.63,23.12 -14.13,18.93 -13.62,14.73 -13.46,13.81 -13.29,12.89 -12.91,12.04 -12.53,11.19 -11.96,10.45 -11.38,9.72 -10.65,9.14 -9.92,8.56 -9.07,8.18 -8.22,7.79 -7.30,7.62 -6.38,7.45 -5.45,7.50 -4.52,7.56 -3.63,7.83 -2.74,8.11 -1.94,8.59 -1.14,9.07 -0.48,9.73 0.18,10.38 0.66,11.18 1.15,11.98 1.43,12.87 1.71,13.76 1.77,14.69 1.82,15.62 1.72,16.80 1.62,17.97 1.11,20.35 0.61,22.73 -0.22,25.04 -1.06,27.35 -2.31,29.51 -3.57,31.68 -4.34,32.20 -5.10,32.73 -5.97,33.05 -6.84,33.37 -7.76,33.48 -8.68,33.59 -9.60,33.47 -10.52,33.35 -11.38,33.02 -12.25,32.69 -13.01,32.16 -13.77,31.62 -14.38,30.93 -14.99,30.23 -15.42,29.41 -15.84,28.58 -16.06,27.68 -16.28,26.78 -16.27,25.86 -16.27,24.93 -16.04,24.03 -15.81,23.13 -15.38,22.31 -14.94,21.49 -14.32,20.80 -13.70,20.11 -13.37,19.91 -13.04,19.71 -11.18,18.16 -9.33,16.60 -7.45,15.40 -5.56,14.21 -5.07,12.12 -4.57,10.03 -3.80,7.94 -3.04,5.86 -2.44,3.76 -1.84,1.66 -1.47,-1.13 -1.10,-3.94 -1.05,-6.25 -0.99,-8.57 -0.36,-11.38 0.27,-14.20 0.86,-14.80 1.44,-15.41 2.16,-15.86 2.87,-16.30 3.67,-16.57 4.47,-16.83 5.31,-16.90 6.15,-16.96 6.99,-16.83 7.82,-16.69 8.59,-16.35 9.37,-16.02 10.04,-15.51 10.71,-15.00 11.24,-14.35 11.77,-13.69 12.13,-12.93 12.49,-12.17 12.66,-11.34 12.82,-10.51 12.79,-9.67 12.75,-8.83 12.51,-8.02 12.28,-7.21 11.85,-6.48 11.43,-5.75 11.74,-6.30 12.06,-6.85 10.20,-4.80 8.35,-2.76 6.40,-1.70 4.45,-0.64 2.62,0.64 0.79,1.93 -2.60,2.04 -6.01,2.15 -7.64,0.44 -9.28,-1.27 -9.28,-4.88 -9.27,-8.49 -6.79,-10.60 -4.31,-12.71 -1.16,-12.18 1.99,-11.64 3.59,-9.98 5.19,-8.32 5.11,-5.94 5.03,-3.56 3.96,-1.50 2.89,0.56 0.84,2.02 -1.20,3.48 -4.34,2.22 -7.49,0.96 -7.81,-2.43 -8.13,-5.83 -6.12,-7.33 -4.10,-8.83 -1.92,-8.73 0.26,-8.64 2.10,-6.42 3.95,-4.20 4.29,-2.90 4.63,-1.60 4.76,-1.02 4.88,-0.44 4.86,0.14 4.85,0.73 4.69,1.30 4.53,1.87 4.24,2.38 3.95,2.90 3.54,3.33 3.14,3.76 2.64,4.08 2.15,4.40 1.59,4.60 1.03,4.79 0.44,4.84 -0.14,4.90 -0.72,4.81 -1.31,4.72 -1.85,4.50 -2.40,4.27 -2.88,3.92 -3.35,3.57 -3.73,3.12 -4.11,2.66 -4.37,2.13 -4.63,1.60 -4.63,1.60 L -4.63,1.60 Z"></path></g><g transform="translate(234.47968691644655 35.47371195997049) rotate(0 10.018754464588483 29.045968825907536)" stroke="none"><path fill="#000000" d="M 2.10,-4.57 Q 2.10,-4.57 3.40,-4.07 4.70,-3.58 7.08,-2.09 9.46,-0.60 11.30,1.02 13.14,2.65 14.88,4.49 16.63,6.34 18.05,7.94 19.46,9.54 21.06,11.51 22.65,13.49 23.49,15.56 24.34,17.63 25.11,20.16 25.88,22.68 26.37,25.00 26.87,27.31 27.05,29.44 27.24,31.58 26.85,34.17 26.45,36.77 25.57,39.03 24.69,41.29 23.47,43.50 22.25,45.70 20.95,47.89 19.65,50.07 18.45,52.00 17.26,53.93 15.70,56.28 14.14,58.64 13.38,59.93 12.61,61.22 11.92,62.22 11.22,63.23 10.24,63.97 9.26,64.70 8.10,65.09 6.94,65.47 5.71,65.46 4.49,65.45 3.33,65.05 2.18,64.66 1.21,63.91 0.24,63.16 -0.43,62.14 -1.11,61.13 -1.43,59.94 -1.75,58.76 -1.68,57.54 -1.61,56.32 -1.14,55.18 -0.68,54.05 0.10,53.12 0.90,52.19 1.96,51.57 3.01,50.95 4.21,50.69 5.40,50.44 6.62,50.58 7.84,50.72 8.94,51.24 10.05,51.76 10.94,52.61 11.82,53.46 12.38,54.54 12.95,55.63 13.14,56.84 13.33,58.04 13.12,59.25 12.92,60.46 12.34,61.54 11.76,62.61 10.86,63.45 9.97,64.29 8.85,64.79 7.74,65.30 6.52,65.42 5.30,65.55 4.11,65.28 2.92,65.00 1.87,64.37 0.83,63.73 0.04,62.79 -0.74,61.85 -1.18,60.71 -1.63,59.57 -1.69,58.35 -1.74,57.12 -1.41,55.95 -1.07,54.77 -1.07,54.77 -1.07,54.77 0.15,52.66 1.38,50.54 2.70,48.64 4.02,46.73 5.31,44.71 6.61,42.69 7.82,40.81 9.03,38.93 10.29,36.82 11.55,34.72 12.24,32.38 12.93,30.04 12.54,27.76 12.16,25.47 11.72,23.29 11.29,21.11 10.18,19.26 9.07,17.41 7.57,15.46 6.07,13.51 4.67,11.49 3.27,9.47 1.80,7.69 0.32,5.90 -0.89,5.23 -2.10,4.57 -2.62,4.25 -3.14,3.93 -3.56,3.50 -3.99,3.06 -4.30,2.54 -4.61,2.02 -4.78,1.44 -4.96,0.86 -4.99,0.25 -5.02,-0.35 -4.90,-0.94 -4.79,-1.54 -4.53,-2.09 -4.28,-2.64 -3.90,-3.11 -3.52,-3.59 -3.04,-3.96 -2.56,-4.33 -2.00,-4.57 -1.45,-4.82 -0.85,-4.92 -0.25,-5.02 0.34,-4.98 0.95,-4.94 1.53,-4.75 2.11,-4.57 2.11,-4.57 L 2.10,-4.57 Z"></path></g><g transform="translate(59.0251969651672 26.717825705204163) rotate(0 99.9349710039196 1.6838242797627458)" stroke="none"><path fill="#000000" d="M -0.58,-4.87 Q -0.58,-4.87 0.61,-5.11 1.81,-5.36 4.29,-5.88 6.78,-6.41 9.03,-6.61 11.28,-6.80 13.59,-7.20 15.90,-7.60 18.60,-8.08 21.30,-8.55 23.80,-8.87 26.30,-9.19 28.50,-9.55 30.70,-9.92 33.24,-10.45 35.78,-10.98 38.16,-11.49 40.54,-12.01 43.23,-12.43 45.92,-12.86 48.32,-13.04 50.72,-13.23 52.85,-13.36 54.98,-13.48 57.56,-13.58 60.14,-13.69 62.69,-13.73 65.24,-13.77 68.17,-13.74 71.10,-13.70 73.24,-13.62 75.39,-13.54 78.26,-13.40 81.14,-13.26 83.37,-13.25 85.61,-13.24 88.34,-13.11 91.08,-12.97 93.45,-12.89 95.82,-12.80 98.05,-12.73 100.29,-12.65 102.85,-12.59 105.41,-12.53 107.61,-12.45 109.81,-12.38 112.21,-12.19 114.62,-12.01 116.92,-11.80 119.22,-11.59 121.58,-11.44 123.95,-11.29 126.25,-11.03 128.55,-10.77 130.71,-10.46 132.87,-10.15 135.19,-9.96 137.52,-9.78 140.19,-9.53 142.87,-9.28 145.32,-9.01 147.77,-8.74 150.10,-8.40 152.42,-8.07 154.61,-7.63 156.80,-7.19 159.41,-6.89 162.03,-6.58 164.21,-6.32 166.38,-6.06 168.53,-5.73 170.68,-5.40 172.92,-4.95 175.17,-4.50 177.40,-3.94 179.64,-3.38 182.27,-2.65 184.90,-1.91 187.66,-0.93 190.41,0.04 192.74,0.66 195.06,1.27 197.91,1.85 200.77,2.42 198.08,2.88 195.40,3.35 193.78,5.60 192.16,7.86 192.57,10.19 192.99,12.53 190.85,12.66 188.70,12.80 186.33,12.15 183.97,11.50 181.56,10.88 179.16,10.26 177.00,9.70 174.85,9.14 172.60,8.52 170.34,7.90 168.21,7.50 166.09,7.10 163.14,6.75 160.20,6.40 157.88,6.30 155.56,6.20 153.27,6.10 150.98,6.00 148.74,5.94 146.50,5.88 144.22,5.78 141.95,5.69 139.80,5.60 137.66,5.51 135.22,5.29 132.78,5.06 130.19,4.80 127.59,4.54 125.29,4.20 122.98,3.86 120.75,3.50 118.51,3.15 116.15,2.97 113.79,2.79 111.62,2.62 109.45,2.46 107.88,2.42 106.31,2.39 105.10,2.16 103.90,1.93 102.82,1.32 101.75,0.72 100.93,-0.18 100.11,-1.10 99.63,-2.23 99.14,-3.35 99.04,-4.58 98.94,-5.80 99.23,-7.00 99.53,-8.19 100.19,-9.22 100.85,-10.26 101.81,-11.03 102.76,-11.80 103.92,-12.23 105.07,-12.65 106.30,-12.69 107.52,-12.72 108.70,-12.36 109.87,-12.00 110.87,-11.29 111.87,-10.57 112.59,-9.57 113.31,-8.58 113.67,-7.40 114.03,-6.23 114.00,-5.00 113.97,-3.77 113.54,-2.62 113.12,-1.46 112.35,-0.50 111.58,0.44 110.55,1.11 109.51,1.77 108.32,2.07 107.13,2.36 105.90,2.27 104.68,2.17 103.55,1.68 102.42,1.20 101.51,0.38 100.59,-0.43 99.99,-1.50 99.38,-2.57 99.15,-3.78 98.92,-4.98 99.08,-6.20 99.24,-7.42 99.79,-8.52 100.34,-9.62 101.20,-10.49 102.07,-11.36 103.17,-11.91 104.27,-12.45 105.49,-12.62 106.71,-12.79 106.71,-12.79 106.70,-12.79 110.54,-12.62 114.37,-12.46 116.58,-12.28 118.79,-12.11 121.16,-11.83 123.53,-11.54 125.95,-11.22 128.38,-10.89 130.53,-10.60 132.69,-10.32 135.23,-10.10 137.77,-9.88 139.96,-9.79 142.14,-9.70 144.66,-9.61 147.19,-9.52 149.99,-9.36 152.79,-9.20 154.94,-9.14 157.09,-9.08 159.37,-8.98 161.65,-8.88 164.08,-8.62 166.51,-8.37 168.81,-8.06 171.10,-7.75 173.45,-7.20 175.79,-6.65 177.91,-6.12 180.02,-5.59 182.08,-5.03 184.14,-4.47 186.83,-3.78 189.53,-3.09 191.60,-2.56 193.67,-2.02 196.27,-1.28 198.88,-0.54 201.02,0.43 203.17,1.41 205.21,3.96 207.26,6.52 207.39,8.70 207.53,10.88 205.80,13.43 204.08,15.98 200.81,16.68 197.55,17.37 195.21,17.00 192.87,16.63 189.92,15.96 186.96,15.29 184.87,14.52 182.78,13.74 180.46,12.96 178.13,12.18 175.98,11.60 173.84,11.02 171.57,10.51 169.30,10.01 166.62,9.62 163.93,9.23 161.75,8.95 159.56,8.67 157.20,8.40 154.84,8.14 152.38,7.65 149.93,7.16 147.66,6.82 145.39,6.49 142.93,6.23 140.48,5.97 137.75,5.76 135.03,5.55 132.90,5.37 130.77,5.20 128.35,4.83 125.93,4.47 123.42,4.23 120.91,3.98 118.56,3.82 116.21,3.66 114.10,3.37 111.98,3.07 109.68,2.91 107.38,2.75 105.07,2.65 102.75,2.56 100.44,2.53 98.13,2.50 95.38,2.32 92.62,2.15 90.25,2.04 87.87,1.94 85.31,1.85 82.75,1.77 80.48,1.67 78.20,1.57 75.49,1.38 72.77,1.19 70.33,1.10 67.88,1.00 65.39,0.98 62.91,0.96 60.42,1.01 57.93,1.07 55.52,1.07 53.12,1.07 50.52,1.20 47.92,1.32 45.41,1.62 42.91,1.92 40.69,2.32 38.48,2.72 35.84,3.18 33.19,3.63 30.33,3.98 27.47,4.32 24.51,4.44 21.56,4.55 19.20,4.83 16.85,5.12 14.55,5.15 12.25,5.19 9.92,5.00 7.59,4.80 5.31,4.79 3.02,4.78 1.80,4.82 0.58,4.87 -0.00,4.87 -0.59,4.87 -1.17,4.72 -1.74,4.58 -2.27,4.31 -2.79,4.03 -3.23,3.64 -3.67,3.24 -4.01,2.76 -4.34,2.27 -4.55,1.72 -4.76,1.16 -4.83,0.58 -4.90,-0.00 -4.83,-0.59 -4.76,-1.18 -4.55,-1.73 -4.34,-2.28 -4.00,-2.77 -3.66,-3.25 -3.22,-3.65 -2.78,-4.04 -2.25,-4.31 -1.73,-4.59 -1.15,-4.73 -0.58,-4.87 -0.58,-4.87 L -0.58,-4.87 Z"></path></g><g transform="translate(49.25901614254326 23.013412289726105) rotate(0 19.953317715188632 -1.515441851786484)" stroke="none"><path fill="#000000" d="M 0,-5.11 Q 0,-5.11 2.03,-5.18 4.06,-5.25 6.47,-5.41 8.87,-5.57 11.21,-5.97 13.55,-6.38 15.95,-6.91 18.35,-7.44 20.95,-8.09 23.55,-8.74 26.05,-9.19 28.55,-9.64 31.06,-9.74 33.58,-9.85 39.63,-8.00 45.67,-6.16 46.18,-5.12 46.68,-4.09 46.83,-2.95 46.98,-1.81 46.75,-0.69 46.53,0.43 45.96,1.43 45.39,2.43 44.53,3.19 43.67,3.95 42.61,4.40 41.55,4.84 40.41,4.93 39.26,5.02 38.15,4.73 37.03,4.45 36.07,3.83 35.10,3.20 34.39,2.30 33.68,1.40 33.29,0.32 32.90,-0.75 32.87,-1.90 32.85,-3.05 33.19,-4.14 33.54,-5.24 34.21,-6.17 34.89,-7.10 35.83,-7.76 36.76,-8.43 37.86,-8.76 38.96,-9.09 40.11,-9.05 41.26,-9.01 42.34,-8.61 43.41,-8.21 44.30,-7.48 45.19,-6.76 45.81,-5.79 46.42,-4.81 46.69,-3.70 46.96,-2.58 46.86,-1.44 46.76,-0.29 46.30,0.75 45.84,1.80 45.07,2.65 44.29,3.51 43.29,4.06 42.29,4.62 41.16,4.83 40.03,5.04 38.89,4.88 37.75,4.72 36.73,4.20 35.70,3.69 34.89,2.87 34.09,2.05 34.09,2.05 34.09,2.05 35.11,3.13 36.13,4.21 33.81,4.05 31.48,3.90 29.18,4.03 26.88,4.16 24.63,4.46 22.38,4.76 20.01,4.76 17.63,4.75 15.38,5.24 13.13,5.72 11.00,5.64 8.87,5.57 6.47,5.41 4.06,5.25 2.03,5.18 0,5.11 -0.61,5.03 -1.22,4.96 -1.80,4.74 -2.37,4.52 -2.88,4.17 -3.39,3.82 -3.79,3.36 -4.20,2.90 -4.49,2.35 -4.78,1.81 -4.92,1.21 -5.07,0.61 -5.07,-0.00 -5.07,-0.61 -4.92,-1.21 -4.78,-1.81 -4.49,-2.35 -4.20,-2.90 -3.79,-3.36 -3.39,-3.82 -2.88,-4.17 -2.37,-4.52 -1.79,-4.74 -1.22,-4.96 -0.61,-5.03 0.00,-5.11 0.00,-5.11 L 0,-5.11 Z"></path></g><g transform="translate(61.719315812787045 132.56347014109735) rotate(0 -21.300377138998783 -53.88237695240819)" stroke="none"><path fill="#000000" d="M -3.85,2.80 Q -3.85,2.80 -4.30,2.30 -4.75,1.81 -6.02,0.09 -7.29,-1.61 -9.01,-3.77 -10.73,-5.93 -12.21,-7.72 -13.69,-9.52 -15.29,-11.56 -16.88,-13.60 -18.36,-15.61 -19.84,-17.62 -21.04,-19.64 -22.24,-21.65 -23.69,-23.94 -25.14,-26.23 -26.18,-28.09 -27.21,-29.95 -28.29,-32.43 -29.37,-34.92 -30.43,-37.44 -31.49,-39.96 -32.19,-42.19 -32.88,-44.41 -33.74,-46.76 -34.60,-49.10 -36.02,-51.34 -37.44,-53.58 -38.67,-55.43 -39.90,-57.29 -41.03,-59.41 -42.17,-61.53 -43.15,-63.55 -44.13,-65.58 -44.90,-67.69 -45.66,-69.81 -46.23,-72.14 -46.79,-74.47 -47.30,-77.35 -47.80,-80.24 -48.48,-82.36 -49.16,-84.48 -49.71,-87.01 -50.26,-89.53 -50.17,-92.60 -50.07,-95.66 -49.39,-97.73 -48.71,-99.79 -47.31,-101.63 -45.91,-103.47 -43.91,-104.64 -41.91,-105.81 -39.46,-106.49 -37.00,-107.17 -34.41,-107.17 -31.82,-107.18 -34.27,-106.08 -36.72,-104.99 -34.81,-106.12 -32.89,-107.25 -30.61,-107.74 -28.32,-108.22 -26.19,-108.96 -24.07,-109.69 -21.71,-110.85 -19.35,-112.00 -16.47,-112.99 -13.60,-113.97 -11.49,-114.36 -9.38,-114.75 -8.72,-115.02 -8.06,-115.30 -6.79,-115.49 -5.52,-115.69 -4.26,-115.47 -2.99,-115.25 -1.86,-114.64 -0.73,-114.03 0.13,-113.09 1.01,-112.15 1.54,-110.98 2.07,-109.81 2.20,-108.53 2.33,-107.25 2.04,-106.00 1.75,-104.74 1.08,-103.65 0.41,-102.55 -0.57,-101.73 -1.56,-100.91 -2.75,-100.44 -3.95,-99.97 -5.23,-99.92 -6.52,-99.86 -7.75,-100.21 -8.99,-100.57 -10.05,-101.30 -11.10,-102.03 -11.87,-103.06 -12.64,-104.09 -13.04,-105.31 -13.44,-106.53 -13.43,-107.81 -13.42,-109.10 -13.00,-110.31 -12.58,-111.53 -11.79,-112.54 -11.00,-113.56 -9.93,-114.27 -8.86,-114.98 -7.62,-115.32 -6.38,-115.65 -5.10,-115.57 -3.82,-115.49 -2.63,-115.00 -1.44,-114.52 -0.47,-113.68 0.50,-112.84 1.15,-111.73 1.80,-110.62 2.07,-109.36 2.33,-108.11 2.18,-106.83 2.03,-105.55 1.48,-104.39 0.93,-103.23 0.04,-102.31 -0.84,-101.38 -1.98,-100.79 -3.12,-100.20 -3.12,-100.20 -3.12,-100.20 -4.43,-100.00 -5.74,-99.80 -8.22,-99.05 -10.70,-98.30 -12.71,-97.49 -14.71,-96.69 -16.89,-95.92 -19.06,-95.15 -21.32,-94.32 -23.57,-93.49 -21.35,-94.79 -19.12,-96.09 -21.78,-94.57 -24.44,-93.04 -26.86,-92.87 -29.28,-92.70 -31.95,-93.16 -34.62,-93.63 -34.43,-91.43 -34.25,-89.23 -33.57,-86.89 -32.90,-84.56 -32.44,-82.47 -31.98,-80.37 -31.62,-77.98 -31.25,-75.58 -30.53,-73.49 -29.82,-71.39 -28.80,-69.32 -27.78,-67.24 -26.73,-65.30 -25.68,-63.35 -24.36,-61.55 -23.04,-59.74 -21.87,-57.43 -20.70,-55.11 -19.97,-53.10 -19.23,-51.09 -18.40,-48.31 -17.57,-45.52 -16.79,-43.31 -16.01,-41.09 -15.23,-38.99 -14.45,-36.88 -13.43,-34.71 -12.41,-32.54 -11.09,-30.24 -9.77,-27.93 -8.76,-25.92 -7.75,-23.91 -6.60,-21.96 -5.46,-20.00 -4.28,-18.16 -3.10,-16.32 -1.97,-14.46 -0.83,-12.61 0.09,-10.55 1.03,-8.48 2.11,-6.21 3.20,-3.94 3.52,-3.37 3.85,-2.80 4.12,-2.29 4.40,-1.79 4.55,-1.24 4.71,-0.69 4.72,-0.11 4.73,0.45 4.61,1.01 4.49,1.57 4.23,2.09 3.98,2.60 3.61,3.04 3.24,3.48 2.77,3.82 2.31,4.16 1.78,4.37 1.25,4.59 0.68,4.67 0.11,4.75 -0.45,4.70 -1.02,4.64 -1.56,4.45 -2.10,4.26 -2.58,3.95 -3.06,3.64 -3.45,3.22 -3.85,2.79 -3.85,2.80 L -3.85,2.80 Z"></path></g><g transform="translate(31.242096349081294 38.50459566354344) rotate(0 -1.8522067077390147 12.965446954173217)" stroke="none"><path fill="#000000" d="M 3.85,2.75 Q 3.85,2.75 3.44,3.48 3.03,4.21 2.33,6.76 1.63,9.31 2.24,11.36 2.86,13.42 3.51,15.67 4.16,17.93 4.46,20.13 4.76,22.34 4.86,24.11 4.96,25.87 4.78,26.96 4.60,28.05 4.09,29.02 3.57,30.00 2.77,30.76 1.97,31.51 0.97,31.98 -0.02,32.44 -1.12,32.56 -2.22,32.68 -3.29,32.44 -4.37,32.20 -5.32,31.64 -6.26,31.07 -6.97,30.23 -7.69,29.39 -8.10,28.36 -8.50,27.34 -8.56,26.24 -8.62,25.14 -8.33,24.07 -8.03,23.01 -7.41,22.10 -6.80,21.18 -5.92,20.52 -5.04,19.85 -3.99,19.50 -2.95,19.15 -1.85,19.15 -0.74,19.15 0.29,19.50 1.34,19.85 2.21,20.52 3.09,21.19 3.71,22.10 4.33,23.01 4.62,24.07 4.92,25.14 4.86,26.24 4.80,27.34 4.39,28.36 3.98,29.39 3.27,30.23 2.55,31.07 1.61,31.64 0.66,32.21 -0.40,32.44 -1.48,32.68 -2.58,32.56 -3.67,32.44 -4.67,31.98 -5.67,31.51 -6.47,30.76 -7.27,30.00 -7.79,29.02 -8.31,28.05 -8.49,26.96 -8.66,25.87 -8.66,25.87 -8.66,25.87 -8.70,24.38 -8.74,22.89 -8.73,20.51 -8.71,18.13 -8.95,15.57 -9.19,13.00 -9.30,10.22 -9.41,7.43 -8.34,4.92 -7.28,2.40 -6.12,0.45 -4.97,-1.50 -4.41,-2.12 -3.85,-2.75 -3.46,-3.17 -3.08,-3.59 -2.60,-3.91 -2.13,-4.22 -1.59,-4.42 -1.05,-4.61 -0.49,-4.67 0.07,-4.73 0.64,-4.65 1.20,-4.58 1.73,-4.37 2.26,-4.15 2.73,-3.82 3.19,-3.49 3.57,-3.06 3.94,-2.62 4.19,-2.11 4.45,-1.60 4.58,-1.05 4.71,-0.49 4.70,0.07 4.69,0.64 4.54,1.19 4.40,1.75 4.12,2.25 3.85,2.75 3.85,2.75 L 3.85,2.75 Z"></path></g><g stroke-linecap="round"><g transform="translate(75.03947021004797 140.46205021245123) rotate(0 64.30336487286218 -55.65599213463926)"><path d="M-0.79 -0.11 C-6.42 -16.98, -60.57 -84.43, -33.47 -100.85 C-6.36 -117.27, 134.49 -115.61, 161.84 -98.61 C189.19 -81.6, 136.14 -15.2, 130.64 1.17 M0.99 -1.21 C-4.3 -18, -58 -83.34, -31.33 -99.86 C-4.65 -116.38, 134.52 -116.84, 161.04 -100.32 C187.57 -83.81, 132.88 -17.45, 127.82 -0.77" stroke="#f2c02c" stroke-width="4" fill="none"></path></g></g><mask></mask><g stroke-linecap="round" transform="translate(39.55561139899464 105.79456973499161) rotate(0 100 100)"><path d="M137.69 6.85 C149.32 10, 159.7 19.8, 168.7 28.82 C177.7 37.85, 186.57 49.48, 191.69 60.98 C196.81 72.49, 199.08 85.04, 199.44 97.83 C199.79 110.62, 198.61 125.61, 193.83 137.73 C189.05 149.86, 179.78 161.46, 170.76 170.59 C161.74 179.72, 151.17 187.72, 139.7 192.51 C128.22 197.31, 114.62 199.27, 101.91 199.36 C89.2 199.44, 75.26 197.51, 63.43 193.02 C51.59 188.52, 40.07 181.4, 30.89 172.4 C21.72 163.41, 13.64 150.88, 8.38 139.05 C3.12 127.22, -0.56 113.94, -0.64 101.42 C-0.72 88.9, 2.92 75.68, 7.89 63.92 C12.86 52.15, 20.59 39.95, 29.18 30.82 C37.77 21.69, 47.78 14.16, 59.43 9.13 C71.08 4.11, 83.52 -0.33, 99.08 0.64 C114.63 1.61, 141.83 10.46, 152.76 14.95 C163.7 19.44, 165.66 26.31, 164.68 27.58 M133.81 6.15 C145.56 8.31, 157.15 16.05, 166.44 24.59 C175.72 33.13, 184.12 45.94, 189.52 57.37 C194.92 68.8, 197.77 80.77, 198.84 93.18 C199.9 105.58, 199.99 119.56, 195.91 131.79 C191.83 144.02, 183.1 156.96, 174.34 166.55 C165.59 176.13, 155 183.76, 143.4 189.31 C131.79 194.85, 117.57 198.81, 104.71 199.8 C91.84 200.8, 78.09 199.7, 66.21 195.29 C54.34 190.88, 42.61 181.75, 33.48 173.33 C24.35 164.9, 17.22 156, 11.45 144.73 C5.68 133.46, -0.12 118.46, -1.14 105.71 C-2.16 92.96, 0.92 80.06, 5.35 68.22 C9.77 56.38, 16.93 44.35, 25.4 34.65 C33.87 24.95, 44.88 15.67, 56.16 10.02 C67.43 4.38, 80.21 1.4, 93.05 0.78 C105.88 0.17, 126.83 5.38, 133.15 6.33 C139.48 7.29, 131.83 5.28, 130.99 6.51" stroke="none" stroke-width="0" fill="#1e1e1e"></path><path d="M131.1 5.99 C142.86 8.43, 155.05 16.37, 164.75 24.63 C174.44 32.89, 183.54 44.01, 189.27 55.54 C195 67.06, 198.23 80.98, 199.13 93.78 C200.04 106.59, 198.7 120.35, 194.69 132.37 C190.68 144.39, 183.55 156.42, 175.1 165.89 C166.64 175.37, 155.21 183.7, 143.94 189.22 C132.68 194.75, 120.21 198.21, 107.52 199.05 C94.83 199.89, 80 198.28, 67.81 194.25 C55.62 190.22, 43.82 183.28, 34.36 174.89 C24.91 166.5, 16.78 155.15, 11.09 143.9 C5.4 132.66, 1.16 120.09, 0.21 107.41 C-0.74 94.73, 1.39 80.1, 5.4 67.8 C9.42 55.51, 16.15 43.18, 24.3 33.64 C32.46 24.1, 42.74 15.96, 54.32 10.55 C65.91 5.14, 79.79 1.83, 93.82 1.2 C107.84 0.56, 130.42 4.99, 138.47 6.73 C146.51 8.46, 142.79 9.98, 142.09 11.6 M124.06 1.73 C136.02 3.23, 148.53 12.25, 158.83 19.94 C169.14 27.63, 179.4 37.01, 185.89 47.87 C192.38 58.74, 196.11 72.2, 197.79 85.13 C199.47 98.05, 198.89 112.94, 195.97 125.42 C193.04 137.91, 187.67 149.98, 180.24 160.04 C172.81 170.1, 162.27 179.22, 151.41 185.78 C140.54 192.35, 127.86 197.66, 115.05 199.41 C102.24 201.17, 86.99 199.65, 74.53 196.3 C62.08 192.95, 50.46 186.89, 40.34 179.33 C30.23 171.76, 20.12 161.6, 13.82 150.92 C7.53 140.24, 4.13 127.79, 2.56 115.24 C0.99 102.69, 1.44 88.28, 4.42 75.6 C7.4 62.93, 13.08 49.42, 20.43 39.19 C27.77 28.97, 37.74 20.81, 48.48 14.25 C59.23 7.68, 72.19 1.49, 84.91 -0.18 C97.63 -1.85, 118.58 3.24, 124.8 4.22 C131.02 5.21, 122.89 4.41, 122.23 5.7" stroke="#f2c02c" stroke-width="4" fill="none"></path></g><g stroke-linecap="round"><g transform="translate(515.939743451825 79.08136908325689) rotate(0 -13.224997301480244 0)" fill-rule="evenodd"><path d="M0 0 L13.93 -1.74 L22.21 -1.96 L27.87 0 L30.48 5.01 L31.35 12.19 L30.48 20.25 L27.87 27.87 L22.86 35.49 L15.68 43.55 L7.62 50.73 L0 55.74 L-6.97 58.35 L-13.93 59.22 L-20.9 58.35 L-27.87 55.74 L-35.49 50.73 L-43.55 43.55 L-50.73 35.49 L-55.74 27.87 L-57.7 20.9 L-55.74 0 L-57.7 -20.9 L-55.74 -27.87 L-50.73 -35.49 L-43.55 -43.55 L-35.49 -50.73 L-27.87 -55.74 L-20.25 -58.35 L-12.19 -59.22 L-5.01 -58.35 L0 -55.74 L2.61 -50.08 L3.48 -41.8 L2.61 -33.53 L0 -27.87 L-5.66 -26.56 L-22.21 -29.18 L-27.87 -27.87 L-29.83 -22.86 L-27.87 0 L-29.83 22.86 L-27.87 27.87 L-22.21 30.48 L-13.93 31.35 L-5.66 30.48 L0 27.87 L1.96 22.21 L1.74 13.93 L0 0" stroke="none" stroke-width="0" fill="#1e1e1e" fill-rule="evenodd"></path><path d="M0 0 C4.64 0, 23.22 -4.64, 27.87 0 C32.51 4.64, 32.51 18.58, 27.87 27.87 C23.22 37.16, 9.29 51.09, 0 55.74 C-9.29 60.38, -18.58 60.38, -27.87 55.74 C-37.16 51.09, -51.09 37.16, -55.74 27.87 C-60.38 18.58, -55.74 9.29, -55.74 0 C-55.74 -9.29, -60.38 -18.58, -55.74 -27.87 C-51.09 -37.16, -37.16 -51.09, -27.87 -55.74 C-18.58 -60.38, -4.64 -60.38, 0 -55.74 C4.64 -51.09, 4.64 -32.51, 0 -27.87 C-4.64 -23.22, -23.22 -32.51, -27.87 -27.87 C-32.51 -23.22, -27.87 -9.29, -27.87 0 C-27.87 9.29, -32.51 23.22, -27.87 27.87 C-23.22 32.51, -4.64 32.51, 0 27.87 C4.64 23.22, 0 4.64, 0 0 M0 0 C4.64 0, 23.22 -4.64, 27.87 0 C32.51 4.64, 32.51 18.58, 27.87 27.87 C23.22 37.16, 9.29 51.09, 0 55.74 C-9.29 60.38, -18.58 60.38, -27.87 55.74 C-37.16 51.09, -51.09 37.16, -55.74 27.87 C-60.38 18.58, -55.74 9.29, -55.74 0 C-55.74 -9.29, -60.38 -18.58, -55.74 -27.87 C-51.09 -37.16, -37.16 -51.09, -27.87 -55.74 C-18.58 -60.38, -4.64 -60.38, 0 -55.74 C4.64 -51.09, 4.64 -32.51, 0 -27.87 C-4.64 -23.22, -23.22 -32.51, -27.87 -27.87 C-32.51 -23.22, -27.87 -9.29, -27.87 0 C-27.87 9.29, -32.51 23.22, -27.87 27.87 C-23.22 32.51, -4.64 32.51, 0 27.87 C4.64 23.22, 0 4.64, 0 0" stroke="#1e1e1e" stroke-width="2" fill="none"></path></g></g><mask></mask><g stroke-linecap="round"><g transform="translate(562.5968324259993 21.324746929406018) rotate(0 42.21257757769217 57.437788390397)" fill-rule="evenodd"><path d="M0 0 L9.91 -1.84 L16.14 -1.92 L21.27 0.63 L24.71 7.64 L29.77 28.02 L32.89 35.09 L37.12 38.61 L41.96 40.11 L46.77 39.41 L50.89 36.35 L53.76 29.15 L58.1 7.82 L61.39 0.63 L66.88 -2.2 L73.78 -2.5 L80.12 -0.92 L83.92 1.88 L84.16 6.54 L82.05 13.13 L73.08 34.59 L68.64 42.55 L54.97 56.75 L52.04 64.08 L52.28 75.22 L56.56 102.35 L56.65 107.64 L55.74 111.48 L50.3 115.96 L41.94 117.52 L33.51 116.05 L27.87 111.48 L26.8 107.53 L26.67 102.13 L29.79 74.21 L29.44 62.23 L25.99 53.84 L15.28 41.03 L10.68 34.07 L7.19 25.17 L0 0" stroke="none" stroke-width="0" fill="#1e1e1e" fill-rule="evenodd"></path><path d="M0 0 C3.55 0.1, 15.79 -5.22, 21.27 0.63 C26.76 6.48, 27.96 29.14, 32.89 35.09 C37.83 41.05, 46.14 42.09, 50.89 36.35 C55.64 30.6, 55.89 6.37, 61.39 0.63 C66.9 -5.12, 81.42 -2.39, 83.92 1.88 C86.42 6.16, 78.93 19.49, 76.39 26.26 C73.84 33.04, 72.7 36.25, 68.64 42.55 C64.58 48.85, 54.19 52.59, 52.04 64.08 C49.89 75.57, 59.77 103.58, 55.74 111.48 C51.71 119.38, 32.25 119.69, 27.87 111.48 C23.49 103.27, 32.31 75.13, 29.44 62.23 C26.58 49.33, 15.58 44.44, 10.68 34.07 C5.77 23.7, 1.78 5.68, 0 0 M0 0 C3.55 0.1, 15.79 -5.22, 21.27 0.63 C26.76 6.48, 27.96 29.14, 32.89 35.09 C37.83 41.05, 46.14 42.09, 50.89 36.35 C55.64 30.6, 55.89 6.37, 61.39 0.63 C66.9 -5.12, 81.42 -2.39, 83.92 1.88 C86.42 6.16, 78.93 19.49, 76.39 26.26 C73.84 33.04, 72.7 36.25, 68.64 42.55 C64.58 48.85, 54.19 52.59, 52.04 64.08 C49.89 75.57, 59.77 103.58, 55.74 111.48 C51.71 119.38, 32.25 119.69, 27.87 111.48 C23.49 103.27, 32.31 75.13, 29.44 62.23 C26.58 49.33, 15.58 44.44, 10.68 34.07 C5.77 23.7, 1.78 5.68, 0 0" stroke="#1e1e1e" stroke-width="2" fill="none"></path></g></g><mask></mask><g stroke-linecap="round"><g transform="translate(672.0557859084211 141.88323359150667) rotate(0 56.448159213634426 -60.616993975400696)" fill-rule="evenodd"><path d="M0 0 L-1.74 -55.74 L-1.96 -88.83 L-1.33 -102.11 L0 -111.48 L2.15 -117.19 L5.01 -120.62 L8.41 -122.09 L12.19 -121.93 L20.25 -118.01 L27.87 -111.48 L31.35 -106.41 L34.84 -98.85 L48.77 -63.14 L52.25 -57.75 L55.74 -55.74 L59.22 -57.75 L62.71 -63.14 L76.64 -98.85 L80.12 -106.41 L83.61 -111.48 L91.23 -118.01 L99.28 -121.93 L103.07 -122.09 L106.47 -120.62 L109.33 -117.19 L111.48 -111.48 L114.09 -87.53 L114.74 -34.46 L113 -6.7 L111.48 0 L109.33 0.46 L106.47 -4.14 L91.23 -43.76 L87.28 -51.63 L83.61 -55.74 L80.12 -55.87 L76.64 -53.34 L62.71 -32.88 L59.22 -29.26 L55.74 -27.87 L52.25 -29.26 L48.77 -32.88 L34.84 -53.34 L31.35 -55.87 L27.87 -55.74 L24.2 -52.39 L20.25 -46.38 L12.19 -29.61 L0 0" stroke="none" stroke-width="0" fill="#1e1e1e" fill-rule="evenodd"></path><path d="M0 0 C0 -18.58, -4.64 -92.9, 0 -111.48 C4.64 -130.06, 18.58 -120.77, 27.87 -111.48 C37.16 -102.19, 46.45 -55.74, 55.74 -55.74 C65.03 -55.74, 74.32 -102.19, 83.61 -111.48 C92.9 -120.77, 106.83 -130.06, 111.48 -111.48 C116.12 -92.9, 116.12 -9.29, 111.48 0 C106.83 9.29, 92.9 -51.09, 83.61 -55.74 C74.32 -60.38, 65.03 -27.87, 55.74 -27.87 C46.45 -27.87, 37.16 -60.38, 27.87 -55.74 C18.58 -51.09, 4.64 -9.29, 0 0 M0 0 C0 -18.58, -4.64 -92.9, 0 -111.48 C4.64 -130.06, 18.58 -120.77, 27.87 -111.48 C37.16 -102.19, 46.45 -55.74, 55.74 -55.74 C65.03 -55.74, 74.32 -102.19, 83.61 -111.48 C92.9 -120.77, 106.83 -130.06, 111.48 -111.48 C116.12 -92.9, 116.12 -9.29, 111.48 0 C106.83 9.29, 92.9 -51.09, 83.61 -55.74 C74.32 -60.38, 65.03 -27.87, 55.74 -27.87 C46.45 -27.87, 37.16 -60.38, 27.87 -55.74 C18.58 -51.09, 4.64 -9.29, 0 0" stroke="#1e1e1e" stroke-width="2" fill="none"></path></g></g><mask></mask><g stroke-linecap="round"><g transform="translate(268.4092780137271 297.66613507531997) rotate(0 45.27188947602781 -55.84156615121603)" fill-rule="evenodd"><path d="M0 0 L19.81 -63.66 L26.31 -82.34 L32.89 -98.15 L39.3 -109.09 L42.36 -112.12 L45.27 -113.18 L48.27 -112.03 L51.55 -108.78 L58.71 -97.09 L66.23 -80.35 L73.57 -60.83 L85.59 -22.46 L90.2 -3.14 L90.2 1.36 L89.22 1.3 L85.59 -2.3 L58.71 -36.61 L51.55 -42.86 L45.27 -45.27 L39.3 -43.64 L32.89 -39.26 L19.81 -25.47 L0 0" stroke="none" stroke-width="0" fill="#1e1e1e" fill-rule="evenodd"></path><path d="M0 0 C7.55 -18.86, 30.18 -113.18, 45.27 -113.18 C60.36 -113.18, 90.54 -11.32, 90.54 0 C90.54 11.32, 60.36 -45.27, 45.27 -45.27 C30.18 -45.27, 7.55 -7.55, 0 0 M0 0 C7.55 -18.86, 30.18 -113.18, 45.27 -113.18 C60.36 -113.18, 90.54 -11.32, 90.54 0 C90.54 11.32, 60.36 -45.27, 45.27 -45.27 C30.18 -45.27, 7.55 -7.55, 0 0" stroke="#1e1e1e" stroke-width="2" fill="none"></path></g></g><mask></mask><g stroke-linecap="round"><g transform="translate(459.01968713906444 208.7614928128629) rotate(0 -45.27188947602781 33.9539171070208)" fill-rule="evenodd"><path d="M0 0 L-16.45 -18.04 L-22.64 -22.64 L-28.29 -24.23 L-45.27 -22.64 L-62.25 -24.23 L-67.91 -22.64 L-74.1 -18.57 L-80.64 -12.73 L-86.48 -6.19 L-90.54 0 L-93.37 11.32 L-90.54 22.64 L-86.48 28.83 L-80.64 35.37 L-74.1 41.2 L-67.91 45.27 L-62.25 46.86 L-32.54 43.86 L-26.7 43.68 L-22.64 45.27 L-20.51 49.87 L-19.81 56.59 L-20.51 63.31 L-22.64 67.91 L-26.7 69.5 L-45.27 67.91 L-62.25 69.5 L-67.91 67.91 L-74.1 62.78 L-86.48 48.28 L-90.54 45.27 L-92.67 47.75 L-93.37 53.76 L-92.67 61.19 L-90.54 67.91 L-86.48 74.1 L-80.64 80.64 L-74.1 86.48 L-67.91 90.54 L-62.25 92.14 L-45.27 90.54 L-28.29 92.14 L-22.64 90.54 L-16.45 86.48 L-9.9 80.64 L-4.07 74.1 L0 67.91 L2.83 56.59 L0 45.27 L-4.07 39.08 L-9.9 32.54 L-16.45 26.7 L-22.64 22.64 L-28.29 21.04 L-58 24.05 L-63.84 24.23 L-67.91 22.64 L-70.03 18.04 L-70.74 11.32 L-70.03 4.6 L-67.91 0 L-63.84 -1.59 L-45.27 0 L0 0" stroke="none" stroke-width="0" fill="#1e1e1e" fill-rule="evenodd"></path><path d="M0 0 C-3.77 -3.77, -15.09 -18.86, -22.64 -22.64 C-30.18 -26.41, -37.73 -22.64, -45.27 -22.64 C-52.82 -22.64, -60.36 -26.41, -67.91 -22.64 C-75.45 -18.86, -86.77 -7.55, -90.54 0 C-94.32 7.55, -94.32 15.09, -90.54 22.64 C-86.77 30.18, -75.45 41.5, -67.91 45.27 C-60.36 49.04, -52.82 45.27, -45.27 45.27 C-37.73 45.27, -26.41 41.5, -22.64 45.27 C-18.86 49.04, -18.86 64.14, -22.64 67.91 C-26.41 71.68, -37.73 67.91, -45.27 67.91 C-52.82 67.91, -60.36 71.68, -67.91 67.91 C-75.45 64.14, -86.77 45.27, -90.54 45.27 C-94.32 45.27, -94.32 60.36, -90.54 67.91 C-86.77 75.45, -75.45 86.77, -67.91 90.54 C-60.36 94.32, -52.82 90.54, -45.27 90.54 C-37.73 90.54, -30.18 94.32, -22.64 90.54 C-15.09 86.77, -3.77 75.45, 0 67.91 C3.77 60.36, 3.77 52.82, 0 45.27 C-3.77 37.73, -15.09 26.41, -22.64 22.64 C-30.18 18.86, -37.73 22.64, -45.27 22.64 C-52.82 22.64, -64.14 26.41, -67.91 22.64 C-71.68 18.86, -71.68 3.77, -67.91 0 C-64.14 -3.77, -52.82 0, -45.27 0 C-37.73 0, -30.18 0, -22.64 0 C-15.09 0, -3.77 0, 0 0 M0 0 C-3.77 -3.77, -15.09 -18.86, -22.64 -22.64 C-30.18 -26.41, -37.73 -22.64, -45.27 -22.64 C-52.82 -22.64, -60.36 -26.41, -67.91 -22.64 C-75.45 -18.86, -86.77 -7.55, -90.54 0 C-94.32 7.55, -94.32 15.09, -90.54 22.64 C-86.77 30.18, -75.45 41.5, -67.91 45.27 C-60.36 49.04, -52.82 45.27, -45.27 45.27 C-37.73 45.27, -26.41 41.5, -22.64 45.27 C-18.86 49.04, -18.86 64.14, -22.64 67.91 C-26.41 71.68, -37.73 67.91, -45.27 67.91 C-52.82 67.91, -60.36 71.68, -67.91 67.91 C-75.45 64.14, -86.77 45.27, -90.54 45.27 C-94.32 45.27, -94.32 60.36, -90.54 67.91 C-86.77 75.45, -75.45 86.77, -67.91 90.54 C-60.36 94.32, -52.82 90.54, -45.27 90.54 C-37.73 90.54, -30.18 94.32, -22.64 90.54 C-15.09 86.77, -3.77 75.45, 0 67.91 C3.77 60.36, 3.77 52.82, 0 45.27 C-3.77 37.73, -15.09 26.41, -22.64 22.64 C-30.18 18.86, -37.73 22.64, -45.27 22.64 C-52.82 22.64, -64.14 26.41, -67.91 22.64 C-71.68 18.86, -71.68 3.77, -67.91 0 C-64.14 -3.77, -52.82 0, -45.27 0 C-37.73 0, -30.18 0, -22.64 0 C-15.09 0, -3.77 0, 0 0" stroke="#1e1e1e" stroke-width="2" fill="none"></path></g></g><mask></mask><g stroke-linecap="round"><g transform="translate(568.101569105138 207.94192446806363) rotate(0 -45.27188947602758 33.95391710702083)" fill-rule="evenodd"><path d="M0 0 L-16.45 -18.04 L-22.64 -22.64 L-28.29 -24.23 L-45.27 -22.64 L-62.25 -24.23 L-67.91 -22.64 L-74.1 -18.57 L-80.64 -12.73 L-86.48 -6.19 L-90.54 0 L-93.37 11.32 L-90.54 22.64 L-86.48 28.83 L-80.64 35.37 L-74.1 41.2 L-67.91 45.27 L-62.25 46.86 L-32.54 43.86 L-26.7 43.68 L-22.64 45.27 L-20.51 49.87 L-19.81 56.59 L-20.51 63.31 L-22.64 67.91 L-26.7 69.5 L-45.27 67.91 L-62.25 69.5 L-67.91 67.91 L-74.1 62.78 L-86.48 48.28 L-90.54 45.27 L-92.67 47.75 L-93.37 53.76 L-92.67 61.19 L-90.54 67.91 L-86.48 74.1 L-80.64 80.64 L-74.1 86.48 L-67.91 90.54 L-62.25 92.14 L-45.27 90.54 L-28.29 92.14 L-22.64 90.54 L-16.45 86.48 L-9.9 80.64 L-4.07 74.1 L0 67.91 L2.83 56.59 L0 45.27 L-4.07 39.08 L-9.9 32.54 L-16.45 26.7 L-22.64 22.64 L-28.29 21.04 L-58 24.05 L-63.84 24.23 L-67.91 22.64 L-70.03 18.04 L-70.74 11.32 L-70.03 4.6 L-67.91 0 L-63.84 -1.59 L-45.27 0 L0 0" stroke="none" stroke-width="0" fill="#1e1e1e" fill-rule="evenodd"></path><path d="M0 0 C-3.77 -3.77, -15.09 -18.86, -22.64 -22.64 C-30.18 -26.41, -37.73 -22.64, -45.27 -22.64 C-52.82 -22.64, -60.36 -26.41, -67.91 -22.64 C-75.45 -18.86, -86.77 -7.55, -90.54 0 C-94.32 7.55, -94.32 15.09, -90.54 22.64 C-86.77 30.18, -75.45 41.5, -67.91 45.27 C-60.36 49.04, -52.82 45.27, -45.27 45.27 C-37.73 45.27, -26.41 41.5, -22.64 45.27 C-18.86 49.04, -18.86 64.14, -22.64 67.91 C-26.41 71.68, -37.73 67.91, -45.27 67.91 C-52.82 67.91, -60.36 71.68, -67.91 67.91 C-75.45 64.14, -86.77 45.27, -90.54 45.27 C-94.32 45.27, -94.32 60.36, -90.54 67.91 C-86.77 75.45, -75.45 86.77, -67.91 90.54 C-60.36 94.32, -52.82 90.54, -45.27 90.54 C-37.73 90.54, -30.18 94.32, -22.64 90.54 C-15.09 86.77, -3.77 75.45, 0 67.91 C3.77 60.36, 3.77 52.82, 0 45.27 C-3.77 37.73, -15.09 26.41, -22.64 22.64 C-30.18 18.86, -37.73 22.64, -45.27 22.64 C-52.82 22.64, -64.14 26.41, -67.91 22.64 C-71.68 18.86, -71.68 3.77, -67.91 0 C-64.14 -3.77, -52.82 0, -45.27 0 C-37.73 0, -30.18 0, -22.64 0 C-15.09 0, -3.77 0, 0 0 M0 0 C-3.77 -3.77, -15.09 -18.86, -22.64 -22.64 C-30.18 -26.41, -37.73 -22.64, -45.27 -22.64 C-52.82 -22.64, -60.36 -26.41, -67.91 -22.64 C-75.45 -18.86, -86.77 -7.55, -90.54 0 C-94.32 7.55, -94.32 15.09, -90.54 22.64 C-86.77 30.18, -75.45 41.5, -67.91 45.27 C-60.36 49.04, -52.82 45.27, -45.27 45.27 C-37.73 45.27, -26.41 41.5, -22.64 45.27 C-18.86 49.04, -18.86 64.14, -22.64 67.91 C-26.41 71.68, -37.73 67.91, -45.27 67.91 C-52.82 67.91, -60.36 71.68, -67.91 67.91 C-75.45 64.14, -86.77 45.27, -90.54 45.27 C-94.32 45.27, -94.32 60.36, -90.54 67.91 C-86.77 75.45, -75.45 86.77, -67.91 90.54 C-60.36 94.32, -52.82 90.54, -45.27 90.54 C-37.73 90.54, -30.18 94.32, -22.64 90.54 C-15.09 86.77, -3.77 75.45, 0 67.91 C3.77 60.36, 3.77 52.82, 0 45.27 C-3.77 37.73, -15.09 26.41, -22.64 22.64 C-30.18 18.86, -37.73 22.64, -45.27 22.64 C-52.82 22.64, -64.14 26.41, -67.91 22.64 C-71.68 18.86, -71.68 3.77, -67.91 0 C-64.14 -3.77, -52.82 0, -45.27 0 C-37.73 0, -30.18 0, -22.64 0 C-15.09 0, -3.77 0, 0 0" stroke="#1e1e1e" stroke-width="2" fill="none"></path></g></g><mask></mask><g stroke-linecap="round"><g transform="translate(616.3397630439977 182.02770635085278) rotate(0 -11.894350591502644 11.894350591502672)" fill-rule="evenodd"><path d="M0 0 L-18.04 -1.59 L-22.64 0 L-24.76 4.6 L-25.47 11.32 L-24.76 18.04 L-22.64 22.64 L-18.04 24.76 L-11.32 25.47 L-4.6 24.76 L0 22.64 L1.59 18.04 L0 0" stroke="none" stroke-width="0" fill="#1e1e1e" fill-rule="evenodd"></path><path d="M0 0 C-3.77 0, -18.86 -3.77, -22.64 0 C-26.41 3.77, -26.41 18.86, -22.64 22.64 C-18.86 26.41, -3.77 26.41, 0 22.64 C3.77 18.86, 0 3.77, 0 0 M0 0 C-3.77 0, -18.86 -3.77, -22.64 0 C-26.41 3.77, -26.41 18.86, -22.64 22.64 C-18.86 26.41, -3.77 26.41, 0 22.64 C3.77 18.86, 0 3.77, 0 0" stroke="#1e1e1e" stroke-width="2" fill="none"></path></g></g><mask></mask><g stroke-linecap="round"><g transform="translate(593.703818305984 227.29959582688053) rotate(0 11.894350591502644 35.68305177450799)" fill-rule="evenodd"><path d="M0 0 L11.32 -4.24 L18.04 -4.77 L20.73 -3.25 L22.64 0 L23.87 5.7 L25.47 33.95 L23.87 62.2 L22.64 67.91 L18.04 74.27 L11.32 76.4 L4.6 74.27 L0 67.91 L-1.08 62.2 L-1.41 33.95 L0 0" stroke="none" stroke-width="0" fill="#1e1e1e" fill-rule="evenodd"></path><path d="M0 0 C3.77 0, 18.86 -11.32, 22.64 0 C26.41 11.32, 26.41 56.59, 22.64 67.91 C18.86 79.23, 3.77 79.23, 0 67.91 C-3.77 56.59, 0 11.32, 0 0 M0 0 C3.77 0, 18.86 -11.32, 22.64 0 C26.41 11.32, 26.41 56.59, 22.64 67.91 C18.86 79.23, 3.77 79.23, 0 67.91 C-3.77 56.59, 0 11.32, 0 0" stroke="#1e1e1e" stroke-width="2" fill="none"></path></g></g><mask></mask><g stroke-linecap="round"><g transform="translate(730.8466545072997 210.4006295024613) rotate(0 -45.27188947602781 33.95391710702083)" fill-rule="evenodd"><path d="M0 0 L-16.45 -18.04 L-22.64 -22.64 L-28.29 -24.23 L-45.27 -22.64 L-62.25 -24.23 L-67.91 -22.64 L-74.1 -18.57 L-80.64 -12.73 L-86.48 -6.19 L-90.54 0 L-93.37 11.32 L-90.54 22.64 L-86.48 28.83 L-80.64 35.37 L-74.1 41.2 L-67.91 45.27 L-62.25 46.86 L-32.54 43.86 L-26.7 43.68 L-22.64 45.27 L-20.51 49.87 L-19.81 56.59 L-20.51 63.31 L-22.64 67.91 L-26.7 69.5 L-45.27 67.91 L-62.25 69.5 L-67.91 67.91 L-74.1 62.78 L-86.48 48.28 L-90.54 45.27 L-92.67 47.75 L-93.37 53.76 L-92.67 61.19 L-90.54 67.91 L-86.48 74.1 L-80.64 80.64 L-74.1 86.48 L-67.91 90.54 L-62.25 92.14 L-45.27 90.54 L-28.29 92.14 L-22.64 90.54 L-16.45 86.48 L-9.9 80.64 L-4.07 74.1 L0 67.91 L2.83 56.59 L0 45.27 L-4.07 39.08 L-9.9 32.54 L-16.45 26.7 L-22.64 22.64 L-28.29 21.04 L-58 24.05 L-63.84 24.23 L-67.91 22.64 L-70.03 18.04 L-70.74 11.32 L-70.03 4.6 L-67.91 0 L-63.84 -1.59 L-45.27 0 L0 0" stroke="none" stroke-width="0" fill="#1e1e1e" fill-rule="evenodd"></path><path d="M0 0 C-3.77 -3.77, -15.09 -18.86, -22.64 -22.64 C-30.18 -26.41, -37.73 -22.64, -45.27 -22.64 C-52.82 -22.64, -60.36 -26.41, -67.91 -22.64 C-75.45 -18.86, -86.77 -7.55, -90.54 0 C-94.32 7.55, -94.32 15.09, -90.54 22.64 C-86.77 30.18, -75.45 41.5, -67.91 45.27 C-60.36 49.04, -52.82 45.27, -45.27 45.27 C-37.73 45.27, -26.41 41.5, -22.64 45.27 C-18.86 49.04, -18.86 64.14, -22.64 67.91 C-26.41 71.68, -37.73 67.91, -45.27 67.91 C-52.82 67.91, -60.36 71.68, -67.91 67.91 C-75.45 64.14, -86.77 45.27, -90.54 45.27 C-94.32 45.27, -94.32 60.36, -90.54 67.91 C-86.77 75.45, -75.45 86.77, -67.91 90.54 C-60.36 94.32, -52.82 90.54, -45.27 90.54 C-37.73 90.54, -30.18 94.32, -22.64 90.54 C-15.09 86.77, -3.77 75.45, 0 67.91 C3.77 60.36, 3.77 52.82, 0 45.27 C-3.77 37.73, -15.09 26.41, -22.64 22.64 C-30.18 18.86, -37.73 22.64, -45.27 22.64 C-52.82 22.64, -64.14 26.41, -67.91 22.64 C-71.68 18.86, -71.68 3.77, -67.91 0 C-64.14 -3.77, -52.82 0, -45.27 0 C-37.73 0, -30.18 0, -22.64 0 C-15.09 0, -3.77 0, 0 0 M0 0 C-3.77 -3.77, -15.09 -18.86, -22.64 -22.64 C-30.18 -26.41, -37.73 -22.64, -45.27 -22.64 C-52.82 -22.64, -60.36 -26.41, -67.91 -22.64 C-75.45 -18.86, -86.77 -7.55, -90.54 0 C-94.32 7.55, -94.32 15.09, -90.54 22.64 C-86.77 30.18, -75.45 41.5, -67.91 45.27 C-60.36 49.04, -52.82 45.27, -45.27 45.27 C-37.73 45.27, -26.41 41.5, -22.64 45.27 C-18.86 49.04, -18.86 64.14, -22.64 67.91 C-26.41 71.68, -37.73 67.91, -45.27 67.91 C-52.82 67.91, -60.36 71.68, -67.91 67.91 C-75.45 64.14, -86.77 45.27, -90.54 45.27 C-94.32 45.27, -94.32 60.36, -90.54 67.91 C-86.77 75.45, -75.45 86.77, -67.91 90.54 C-60.36 94.32, -52.82 90.54, -45.27 90.54 C-37.73 90.54, -30.18 94.32, -22.64 90.54 C-15.09 86.77, -3.77 75.45, 0 67.91 C3.77 60.36, 3.77 52.82, 0 45.27 C-3.77 37.73, -15.09 26.41, -22.64 22.64 C-30.18 18.86, -37.73 22.64, -45.27 22.64 C-52.82 22.64, -64.14 26.41, -67.91 22.64 C-71.68 18.86, -71.68 3.77, -67.91 0 C-64.14 -3.77, -52.82 0, -45.27 0 C-37.73 0, -30.18 0, -22.64 0 C-15.09 0, -3.77 0, 0 0" stroke="#1e1e1e" stroke-width="2" fill="none"></path></g></g><mask></mask><g stroke-linecap="round"><g transform="translate(745.2869157973219 207.1223561232644) rotate(0 34.427622370642894 38.19815674539842)" fill-rule="evenodd"><path d="M0 0 L-4.24 -11.32 L-4.77 -18.04 L-3.25 -20.73 L0 -22.64 L13.79 -24.76 L33.95 -25.47 L54.11 -24.76 L67.91 -22.64 L71.31 -20.73 L73.21 -18.04 L73.57 -11.32 L71.09 -4.6 L67.91 0 L66.01 0.46 L56.59 -4.24 L49.87 -5.84 L47.17 -4.18 L45.27 0 L44.21 18.39 L46.2 82.94 L45.27 90.54 L43.37 95.5 L40.67 99.03 L33.95 101.86 L27.23 99.03 L24.54 95.5 L22.64 90.54 L21.71 82.94 L23.7 18.39 L22.64 0 L20.73 -4.33 L18.04 -6.37 L11.32 -5.66 L0 0" stroke="none" stroke-width="0" fill="#1e1e1e" fill-rule="evenodd"></path><path d="M0 0 C0 -3.77, -11.32 -18.86, 0 -22.64 C11.32 -26.41, 56.59 -26.41, 67.91 -22.64 C79.23 -18.86, 71.68 -3.77, 67.91 0 C64.14 3.77, 49.04 -15.09, 45.27 0 C41.5 15.09, 49.04 75.45, 45.27 90.54 C41.5 105.63, 26.41 105.63, 22.64 90.54 C18.86 75.45, 26.41 15.09, 22.64 0 C18.86 -15.09, 3.77 0, 0 0 M0 0 C0 -3.77, -11.32 -18.86, 0 -22.64 C11.32 -26.41, 56.59 -26.41, 67.91 -22.64 C79.23 -18.86, 71.68 -3.77, 67.91 0 C64.14 3.77, 49.04 -15.09, 45.27 0 C41.5 15.09, 49.04 75.45, 45.27 90.54 C41.5 105.63, 26.41 105.63, 22.64 90.54 C18.86 75.45, 26.41 15.09, 22.64 0 C18.86 -15.09, 3.77 0, 0 0" stroke="#1e1e1e" stroke-width="2" fill="none"></path></g></g><mask></mask><g stroke-linecap="round"><g transform="translate(823.5371695773902 299.30527176491836) rotate(0 45.27188947602781 -55.84156615121603)" fill-rule="evenodd"><path d="M0 0 L19.81 -63.66 L26.31 -82.34 L32.89 -98.15 L39.3 -109.09 L42.36 -112.12 L45.27 -113.18 L48.27 -112.03 L51.55 -108.78 L58.71 -97.09 L66.23 -80.35 L73.57 -60.83 L85.59 -22.46 L90.2 -3.14 L90.2 1.36 L89.22 1.3 L85.59 -2.3 L58.71 -36.61 L51.55 -42.86 L45.27 -45.27 L39.3 -43.64 L32.89 -39.26 L19.81 -25.47 L0 0" stroke="none" stroke-width="0" fill="#1e1e1e" fill-rule="evenodd"></path><path d="M0 0 C7.55 -18.86, 30.18 -113.18, 45.27 -113.18 C60.36 -113.18, 90.54 -11.32, 90.54 0 C90.54 11.32, 60.36 -45.27, 45.27 -45.27 C30.18 -45.27, 7.55 -7.55, 0 0 M0 0 C7.55 -18.86, 30.18 -113.18, 45.27 -113.18 C60.36 -113.18, 90.54 -11.32, 90.54 0 C90.54 11.32, 60.36 -45.27, 45.27 -45.27 C30.18 -45.27, 7.55 -7.55, 0 0" stroke="#1e1e1e" stroke-width="2" fill="none"></path></g></g><mask></mask><g stroke-linecap="round"><g transform="translate(935.8973249226574 297.66613507531997) rotate(0 44.17153105126363 -57.23092840484492)" fill-rule="evenodd"><path d="M0 0 L-4.97 -80.68 L-4.77 -96.56 L-3.25 -108.01 L-1.87 -111.49 L0 -113.18 L2.5 -112.78 L9.5 -106.22 L23.48 -86.19 L54.11 -37.31 L62.2 -26.68 L65.4 -23.69 L67.91 -22.64 L69.73 -23.49 L71 -25.91 L72.15 -34.66 L71.89 -47.31 L67.91 -92.67 L67.29 -104.96 L67.91 -113.18 L72.51 -122.2 L79.23 -125.91 L82.72 -125.45 L85.95 -123.26 L88.64 -119.21 L90.54 -113.18 L91.78 -103.67 L93.37 -56.59 L91.78 -9.51 L90.54 0 L88.95 5.88 L87.01 9.55 L84.71 11.27 L82.06 11.32 L75.69 7.43 L67.91 0 L57.12 -15.39 L31.3 -58.89 L26.28 -65.45 L22.64 -67.91 L20.62 -65.45 L19.98 -58.89 L23.17 -15.39 L23.41 -6.17 L22.64 0 L20.73 3.25 L18.04 4.77 L11.32 4.24 L0 0" stroke="none" stroke-width="0" fill="#1e1e1e" fill-rule="evenodd"></path><path d="M0 0 C0 -18.86, -11.32 -109.41, 0 -113.18 C11.32 -116.95, 56.59 -22.64, 67.91 -22.64 C79.23 -22.64, 64.14 -98.09, 67.91 -113.18 C71.68 -128.27, 86.77 -132.04, 90.54 -113.18 C94.32 -94.32, 94.32 -18.86, 90.54 0 C86.77 18.86, 79.23 11.32, 67.91 0 C56.59 -11.32, 30.18 -67.91, 22.64 -67.91 C15.09 -67.91, 26.41 -11.32, 22.64 0 C18.86 11.32, 3.77 0, 0 0 M0 0 C0 -18.86, -11.32 -109.41, 0 -113.18 C11.32 -116.95, 56.59 -22.64, 67.91 -22.64 C79.23 -22.64, 64.14 -98.09, 67.91 -113.18 C71.68 -128.27, 86.77 -132.04, 90.54 -113.18 C94.32 -94.32, 94.32 -18.86, 90.54 0 C86.77 18.86, 79.23 11.32, 67.91 0 C56.59 -11.32, 30.18 -67.91, 22.64 -67.91 C15.09 -67.91, 26.41 -11.32, 22.64 0 C18.86 11.32, 3.77 0, 0 0" stroke="#1e1e1e" stroke-width="2" fill="none"></path></g></g><mask></mask><g stroke-linecap="round"><g transform="translate(1048.7650796963626 203.84408274406746) rotate(0 34.427622370642894 38.19815674539842)" fill-rule="evenodd"><path d="M0 0 L-4.24 -11.32 L-4.77 -18.04 L-3.25 -20.73 L0 -22.64 L13.79 -24.76 L33.95 -25.47 L54.11 -24.76 L67.91 -22.64 L71.31 -20.73 L73.21 -18.04 L73.57 -11.32 L71.09 -4.6 L67.91 0 L66.01 0.46 L56.59 -4.24 L49.87 -5.84 L47.17 -4.18 L45.27 0 L44.21 18.39 L46.2 82.94 L45.27 90.54 L43.37 95.5 L40.67 99.03 L33.95 101.86 L27.23 99.03 L24.54 95.5 L22.64 90.54 L21.71 82.94 L23.7 18.39 L22.64 0 L20.73 -4.33 L18.04 -6.37 L11.32 -5.66 L0 0" stroke="none" stroke-width="0" fill="#1e1e1e" fill-rule="evenodd"></path><path d="M0 0 C0 -3.77, -11.32 -18.86, 0 -22.64 C11.32 -26.41, 56.59 -26.41, 67.91 -22.64 C79.23 -18.86, 71.68 -3.77, 67.91 0 C64.14 3.77, 49.04 -15.09, 45.27 0 C41.5 15.09, 49.04 75.45, 45.27 90.54 C41.5 105.63, 26.41 105.63, 22.64 90.54 C18.86 75.45, 26.41 15.09, 22.64 0 C18.86 -15.09, 3.77 0, 0 0 M0 0 C0 -3.77, -11.32 -18.86, 0 -22.64 C11.32 -26.41, 56.59 -26.41, 67.91 -22.64 C79.23 -18.86, 71.68 -3.77, 67.91 0 C64.14 3.77, 49.04 -15.09, 45.27 0 C41.5 15.09, 49.04 75.45, 45.27 90.54 C41.5 105.63, 26.41 105.63, 22.64 90.54 C18.86 75.45, 26.41 15.09, 22.64 0 C18.86 -15.09, 3.77 0, 0 0" stroke="#1e1e1e" stroke-width="2" fill="none"></path></g></g><mask></mask><g stroke-linecap="round"><g transform="translate(308.39979444778146 220.97220757983592) rotate(0 8.258711204172869 6.247872212077198)" fill-rule="evenodd"><path d="M0 0 L-1.11 9.48 L0 11.89 L3.19 13 L7.86 13.38 L12.52 13 L15.72 11.89 L17.19 9.48 L17.68 5.95 L17.19 2.42 L15.72 0 L12.52 -0.84 L0 0" stroke="none" stroke-width="0" fill="#ffffff" fill-rule="evenodd"></path><path d="M0 0 C0 1.98, -2.62 9.91, 0 11.89 C2.62 13.87, 13.1 13.87, 15.72 11.89 C18.34 9.91, 18.34 1.98, 15.72 0 C13.1 -1.98, 2.62 0, 0 0 M0 0 C0 1.98, -2.62 9.91, 0 11.89 C2.62 13.87, 13.1 13.87, 15.72 11.89 C18.34 9.91, 18.34 1.98, 15.72 0 C13.1 -1.98, 2.62 0, 0 0" stroke="#1e1e1e" stroke-width="2" fill="none"></path></g></g><mask></mask><g stroke-linecap="round"><g transform="translate(863.8029929908562 222.00667150171824) rotate(0 8.258711204173323 6.247872212077198)" fill-rule="evenodd"><path d="M0 0 L-1.11 9.48 L0 11.89 L3.19 13 L7.86 13.38 L12.52 13 L15.72 11.89 L17.19 9.48 L17.68 5.95 L17.19 2.42 L15.72 0 L12.52 -0.84 L0 0" stroke="none" stroke-width="0" fill="#ffffff" fill-rule="evenodd"></path><path d="M0 0 C0 1.98, -2.62 9.91, 0 11.89 C2.62 13.87, 13.1 13.87, 15.72 11.89 C18.34 9.91, 18.34 1.98, 15.72 0 C13.1 -1.98, 2.62 0, 0 0 M0 0 C0 1.98, -2.62 9.91, 0 11.89 C2.62 13.87, 13.1 13.87, 15.72 11.89 C18.34 9.91, 18.34 1.98, 15.72 0 C13.1 -1.98, 2.62 0, 0 0" stroke="#1e1e1e" stroke-width="2" fill="none"></path></g></g><mask></mask><g stroke-linecap="round"><g transform="translate(505.9939497258533 70.39910074417993) rotate(0 -13.224997301480016 0)" fill-rule="evenodd"><path d="M0 0 L13.93 -1.74 L22.21 -1.96 L27.87 0 L30.48 5.01 L31.35 12.19 L30.48 20.25 L27.87 27.87 L22.86 35.49 L15.68 43.55 L7.62 50.73 L0 55.74 L-6.97 58.35 L-13.93 59.22 L-20.9 58.35 L-27.87 55.74 L-35.49 50.73 L-43.55 43.55 L-50.73 35.49 L-55.74 27.87 L-57.7 20.9 L-55.74 0 L-57.7 -20.9 L-55.74 -27.87 L-50.73 -35.49 L-43.55 -43.55 L-35.49 -50.73 L-27.87 -55.74 L-20.25 -58.35 L-12.19 -59.22 L-5.01 -58.35 L0 -55.74 L2.61 -50.08 L3.48 -41.8 L2.61 -33.53 L0 -27.87 L-5.66 -26.56 L-22.21 -29.18 L-27.87 -27.87 L-29.83 -22.86 L-27.87 0 L-29.83 22.86 L-27.87 27.87 L-22.21 30.48 L-13.93 31.35 L-5.66 30.48 L0 27.87 L1.96 22.21 L1.74 13.93 L0 0" stroke="none" stroke-width="0" fill="#f2c02c" fill-rule="evenodd"></path><path d="M0 0 C4.64 0, 23.22 -4.64, 27.87 0 C32.51 4.64, 32.51 18.58, 27.87 27.87 C23.22 37.16, 9.29 51.09, 0 55.74 C-9.29 60.38, -18.58 60.38, -27.87 55.74 C-37.16 51.09, -51.09 37.16, -55.74 27.87 C-60.38 18.58, -55.74 9.29, -55.74 0 C-55.74 -9.29, -60.38 -18.58, -55.74 -27.87 C-51.09 -37.16, -37.16 -51.09, -27.87 -55.74 C-18.58 -60.38, -4.64 -60.38, 0 -55.74 C4.64 -51.09, 4.64 -32.51, 0 -27.87 C-4.64 -23.22, -23.22 -32.51, -27.87 -27.87 C-32.51 -23.22, -27.87 -9.29, -27.87 0 C-27.87 9.29, -32.51 23.22, -27.87 27.87 C-23.22 32.51, -4.64 32.51, 0 27.87 C4.64 23.22, 0 4.64, 0 0 M0 0 C4.64 0, 23.22 -4.64, 27.87 0 C32.51 4.64, 32.51 18.58, 27.87 27.87 C23.22 37.16, 9.29 51.09, 0 55.74 C-9.29 60.38, -18.58 60.38, -27.87 55.74 C-37.16 51.09, -51.09 37.16, -55.74 27.87 C-60.38 18.58, -55.74 9.29, -55.74 0 C-55.74 -9.29, -60.38 -18.58, -55.74 -27.87 C-51.09 -37.16, -37.16 -51.09, -27.87 -55.74 C-18.58 -60.38, -4.64 -60.38, 0 -55.74 C4.64 -51.09, 4.64 -32.51, 0 -27.87 C-4.64 -23.22, -23.22 -32.51, -27.87 -27.87 C-32.51 -23.22, -27.87 -9.29, -27.87 0 C-27.87 9.29, -32.51 23.22, -27.87 27.87 C-23.22 32.51, -4.64 32.51, 0 27.87 C4.64 23.22, 0 4.64, 0 0" stroke="#1e1e1e" stroke-width="2" fill="none"></path></g></g><mask></mask><g stroke-linecap="round"><g transform="translate(552.6510387000271 12.64247859032912) rotate(0 42.21257757769217 57.43778839039699)" fill-rule="evenodd"><path d="M0 0 L9.91 -1.84 L16.14 -1.92 L21.27 0.63 L24.71 7.64 L29.77 28.02 L32.89 35.09 L37.12 38.61 L41.96 40.11 L46.77 39.41 L50.89 36.35 L53.76 29.15 L58.1 7.82 L61.39 0.63 L66.88 -2.2 L73.78 -2.5 L80.12 -0.92 L83.92 1.88 L84.16 6.54 L82.05 13.13 L73.08 34.59 L68.64 42.55 L54.97 56.75 L52.04 64.08 L52.28 75.22 L56.56 102.35 L56.65 107.64 L55.74 111.48 L50.3 115.96 L41.94 117.52 L33.51 116.05 L27.87 111.48 L26.8 107.53 L26.67 102.13 L29.79 74.21 L29.44 62.23 L25.99 53.84 L15.28 41.03 L10.68 34.07 L7.19 25.17 L0 0" stroke="none" stroke-width="0" fill="#f2c02c" fill-rule="evenodd"></path><path d="M0 0 C3.55 0.1, 15.79 -5.22, 21.27 0.63 C26.76 6.48, 27.96 29.14, 32.89 35.09 C37.83 41.05, 46.14 42.09, 50.89 36.35 C55.64 30.6, 55.89 6.37, 61.39 0.63 C66.9 -5.12, 81.42 -2.39, 83.92 1.88 C86.42 6.16, 78.93 19.49, 76.39 26.26 C73.84 33.04, 72.7 36.25, 68.64 42.55 C64.58 48.85, 54.19 52.59, 52.04 64.08 C49.89 75.57, 59.77 103.58, 55.74 111.48 C51.71 119.38, 32.25 119.69, 27.87 111.48 C23.49 103.27, 32.31 75.13, 29.44 62.23 C26.58 49.33, 15.58 44.44, 10.68 34.07 C5.77 23.7, 1.78 5.68, 0 0 M0 0 C3.55 0.1, 15.79 -5.22, 21.27 0.63 C26.76 6.48, 27.96 29.14, 32.89 35.09 C37.83 41.05, 46.14 42.09, 50.89 36.35 C55.64 30.6, 55.89 6.37, 61.39 0.63 C66.9 -5.12, 81.42 -2.39, 83.92 1.88 C86.42 6.16, 78.93 19.49, 76.39 26.26 C73.84 33.04, 72.7 36.25, 68.64 42.55 C64.58 48.85, 54.19 52.59, 52.04 64.08 C49.89 75.57, 59.77 103.58, 55.74 111.48 C51.71 119.38, 32.25 119.69, 27.87 111.48 C23.49 103.27, 32.31 75.13, 29.44 62.23 C26.58 49.33, 15.58 44.44, 10.68 34.07 C5.77 23.7, 1.78 5.68, 0 0" stroke="#1e1e1e" stroke-width="2" fill="none"></path></g></g><mask></mask><g stroke-linecap="round"><g transform="translate(662.1099921824498 133.20096525242974) rotate(0 56.448159213634426 -60.616993975400696)" fill-rule="evenodd"><path d="M0 0 L-1.74 -55.74 L-1.96 -88.83 L-1.33 -102.11 L0 -111.48 L2.15 -117.19 L5.01 -120.62 L8.41 -122.09 L12.19 -121.93 L20.25 -118.01 L27.87 -111.48 L31.35 -106.41 L34.84 -98.85 L48.77 -63.14 L52.25 -57.75 L55.74 -55.74 L59.22 -57.75 L62.71 -63.14 L76.64 -98.85 L80.12 -106.41 L83.61 -111.48 L91.23 -118.01 L99.28 -121.93 L103.07 -122.09 L106.47 -120.62 L109.33 -117.19 L111.48 -111.48 L114.09 -87.53 L114.74 -34.46 L113 -6.7 L111.48 0 L109.33 0.46 L106.47 -4.14 L91.23 -43.76 L87.28 -51.63 L83.61 -55.74 L80.12 -55.87 L76.64 -53.34 L62.71 -32.88 L59.22 -29.26 L55.74 -27.87 L52.25 -29.26 L48.77 -32.88 L34.84 -53.34 L31.35 -55.87 L27.87 -55.74 L24.2 -52.39 L20.25 -46.38 L12.19 -29.61 L0 0" stroke="none" stroke-width="0" fill="#f2c02c" fill-rule="evenodd"></path><path d="M0 0 C0 -18.58, -4.64 -92.9, 0 -111.48 C4.64 -130.06, 18.58 -120.77, 27.87 -111.48 C37.16 -102.19, 46.45 -55.74, 55.74 -55.74 C65.03 -55.74, 74.32 -102.19, 83.61 -111.48 C92.9 -120.77, 106.83 -130.06, 111.48 -111.48 C116.12 -92.9, 116.12 -9.29, 111.48 0 C106.83 9.29, 92.9 -51.09, 83.61 -55.74 C74.32 -60.38, 65.03 -27.87, 55.74 -27.87 C46.45 -27.87, 37.16 -60.38, 27.87 -55.74 C18.58 -51.09, 4.64 -9.29, 0 0 M0 0 C0 -18.58, -4.64 -92.9, 0 -111.48 C4.64 -130.06, 18.58 -120.77, 27.87 -111.48 C37.16 -102.19, 46.45 -55.74, 55.74 -55.74 C65.03 -55.74, 74.32 -102.19, 83.61 -111.48 C92.9 -120.77, 106.83 -130.06, 111.48 -111.48 C116.12 -92.9, 116.12 -9.29, 111.48 0 C106.83 9.29, 92.9 -51.09, 83.61 -55.74 C74.32 -60.38, 65.03 -27.87, 55.74 -27.87 C46.45 -27.87, 37.16 -60.38, 27.87 -55.74 C18.58 -51.09, 4.64 -9.29, 0 0" stroke="#1e1e1e" stroke-width="2" fill="none"></path></g></g><mask></mask><g stroke-linecap="round"><g transform="translate(258.4634842877558 288.9838667362431) rotate(0 45.27188947602781 -55.84156615121603)" fill-rule="evenodd"><path d="M0 0 L19.81 -63.66 L26.31 -82.34 L32.89 -98.15 L39.3 -109.09 L42.36 -112.12 L45.27 -113.18 L48.27 -112.03 L51.55 -108.78 L58.71 -97.09 L66.23 -80.35 L73.57 -60.83 L85.59 -22.46 L90.2 -3.14 L90.2 1.36 L89.22 1.3 L85.59 -2.3 L58.71 -36.61 L51.55 -42.86 L45.27 -45.27 L39.3 -43.64 L32.89 -39.26 L19.81 -25.47 L0 0" stroke="none" stroke-width="0" fill="#f2c02c" fill-rule="evenodd"></path><path d="M0 0 C7.55 -18.86, 30.18 -113.18, 45.27 -113.18 C60.36 -113.18, 90.54 -11.32, 90.54 0 C90.54 11.32, 60.36 -45.27, 45.27 -45.27 C30.18 -45.27, 7.55 -7.55, 0 0 M0 0 C7.55 -18.86, 30.18 -113.18, 45.27 -113.18 C60.36 -113.18, 90.54 -11.32, 90.54 0 C90.54 11.32, 60.36 -45.27, 45.27 -45.27 C30.18 -45.27, 7.55 -7.55, 0 0" stroke="#1e1e1e" stroke-width="2" fill="none"></path></g></g><mask></mask><g stroke-linecap="round"><g transform="translate(449.07389341309226 200.07922447378593) rotate(0 -45.27188947602781 33.95391710702083)" fill-rule="evenodd"><path d="M0 0 L-16.45 -18.04 L-22.64 -22.64 L-28.29 -24.23 L-45.27 -22.64 L-62.25 -24.23 L-67.91 -22.64 L-74.1 -18.57 L-80.64 -12.73 L-86.48 -6.19 L-90.54 0 L-93.37 11.32 L-90.54 22.64 L-86.48 28.83 L-80.64 35.37 L-74.1 41.2 L-67.91 45.27 L-62.25 46.86 L-32.54 43.86 L-26.7 43.68 L-22.64 45.27 L-20.51 49.87 L-19.81 56.59 L-20.51 63.31 L-22.64 67.91 L-26.7 69.5 L-45.27 67.91 L-62.25 69.5 L-67.91 67.91 L-74.1 62.78 L-86.48 48.28 L-90.54 45.27 L-92.67 47.75 L-93.37 53.76 L-92.67 61.19 L-90.54 67.91 L-86.48 74.1 L-80.64 80.64 L-74.1 86.48 L-67.91 90.54 L-62.25 92.14 L-45.27 90.54 L-28.29 92.14 L-22.64 90.54 L-16.45 86.48 L-9.9 80.64 L-4.07 74.1 L0 67.91 L2.83 56.59 L0 45.27 L-4.07 39.08 L-9.9 32.54 L-16.45 26.7 L-22.64 22.64 L-28.29 21.04 L-58 24.05 L-63.84 24.23 L-67.91 22.64 L-70.03 18.04 L-70.74 11.32 L-70.03 4.6 L-67.91 0 L-63.84 -1.59 L-45.27 0 L0 0" stroke="none" stroke-width="0" fill="#f2c02c" fill-rule="evenodd"></path><path d="M0 0 C-3.77 -3.77, -15.09 -18.86, -22.64 -22.64 C-30.18 -26.41, -37.73 -22.64, -45.27 -22.64 C-52.82 -22.64, -60.36 -26.41, -67.91 -22.64 C-75.45 -18.86, -86.77 -7.55, -90.54 0 C-94.32 7.55, -94.32 15.09, -90.54 22.64 C-86.77 30.18, -75.45 41.5, -67.91 45.27 C-60.36 49.04, -52.82 45.27, -45.27 45.27 C-37.73 45.27, -26.41 41.5, -22.64 45.27 C-18.86 49.04, -18.86 64.14, -22.64 67.91 C-26.41 71.68, -37.73 67.91, -45.27 67.91 C-52.82 67.91, -60.36 71.68, -67.91 67.91 C-75.45 64.14, -86.77 45.27, -90.54 45.27 C-94.32 45.27, -94.32 60.36, -90.54 67.91 C-86.77 75.45, -75.45 86.77, -67.91 90.54 C-60.36 94.32, -52.82 90.54, -45.27 90.54 C-37.73 90.54, -30.18 94.32, -22.64 90.54 C-15.09 86.77, -3.77 75.45, 0 67.91 C3.77 60.36, 3.77 52.82, 0 45.27 C-3.77 37.73, -15.09 26.41, -22.64 22.64 C-30.18 18.86, -37.73 22.64, -45.27 22.64 C-52.82 22.64, -64.14 26.41, -67.91 22.64 C-71.68 18.86, -71.68 3.77, -67.91 0 C-64.14 -3.77, -52.82 0, -45.27 0 C-37.73 0, -30.18 0, -22.64 0 C-15.09 0, -3.77 0, 0 0 M0 0 C-3.77 -3.77, -15.09 -18.86, -22.64 -22.64 C-30.18 -26.41, -37.73 -22.64, -45.27 -22.64 C-52.82 -22.64, -60.36 -26.41, -67.91 -22.64 C-75.45 -18.86, -86.77 -7.55, -90.54 0 C-94.32 7.55, -94.32 15.09, -90.54 22.64 C-86.77 30.18, -75.45 41.5, -67.91 45.27 C-60.36 49.04, -52.82 45.27, -45.27 45.27 C-37.73 45.27, -26.41 41.5, -22.64 45.27 C-18.86 49.04, -18.86 64.14, -22.64 67.91 C-26.41 71.68, -37.73 67.91, -45.27 67.91 C-52.82 67.91, -60.36 71.68, -67.91 67.91 C-75.45 64.14, -86.77 45.27, -90.54 45.27 C-94.32 45.27, -94.32 60.36, -90.54 67.91 C-86.77 75.45, -75.45 86.77, -67.91 90.54 C-60.36 94.32, -52.82 90.54, -45.27 90.54 C-37.73 90.54, -30.18 94.32, -22.64 90.54 C-15.09 86.77, -3.77 75.45, 0 67.91 C3.77 60.36, 3.77 52.82, 0 45.27 C-3.77 37.73, -15.09 26.41, -22.64 22.64 C-30.18 18.86, -37.73 22.64, -45.27 22.64 C-52.82 22.64, -64.14 26.41, -67.91 22.64 C-71.68 18.86, -71.68 3.77, -67.91 0 C-64.14 -3.77, -52.82 0, -45.27 0 C-37.73 0, -30.18 0, -22.64 0 C-15.09 0, -3.77 0, 0 0" stroke="#1e1e1e" stroke-width="2" fill="none"></path></g></g><mask></mask><g stroke-linecap="round"><g transform="translate(558.1557753791658 199.25965612898688) rotate(0 -45.27188947602758 33.9539171070208)" fill-rule="evenodd"><path d="M0 0 L-16.45 -18.04 L-22.64 -22.64 L-28.29 -24.23 L-45.27 -22.64 L-62.25 -24.23 L-67.91 -22.64 L-74.1 -18.57 L-80.64 -12.73 L-86.48 -6.19 L-90.54 0 L-93.37 11.32 L-90.54 22.64 L-86.48 28.83 L-80.64 35.37 L-74.1 41.2 L-67.91 45.27 L-62.25 46.86 L-32.54 43.86 L-26.7 43.68 L-22.64 45.27 L-20.51 49.87 L-19.81 56.59 L-20.51 63.31 L-22.64 67.91 L-26.7 69.5 L-45.27 67.91 L-62.25 69.5 L-67.91 67.91 L-74.1 62.78 L-86.48 48.28 L-90.54 45.27 L-92.67 47.75 L-93.37 53.76 L-92.67 61.19 L-90.54 67.91 L-86.48 74.1 L-80.64 80.64 L-74.1 86.48 L-67.91 90.54 L-62.25 92.14 L-45.27 90.54 L-28.29 92.14 L-22.64 90.54 L-16.45 86.48 L-9.9 80.64 L-4.07 74.1 L0 67.91 L2.83 56.59 L0 45.27 L-4.07 39.08 L-9.9 32.54 L-16.45 26.7 L-22.64 22.64 L-28.29 21.04 L-58 24.05 L-63.84 24.23 L-67.91 22.64 L-70.03 18.04 L-70.74 11.32 L-70.03 4.6 L-67.91 0 L-63.84 -1.59 L-45.27 0 L0 0" stroke="none" stroke-width="0" fill="#f2c02c" fill-rule="evenodd"></path><path d="M0 0 C-3.77 -3.77, -15.09 -18.86, -22.64 -22.64 C-30.18 -26.41, -37.73 -22.64, -45.27 -22.64 C-52.82 -22.64, -60.36 -26.41, -67.91 -22.64 C-75.45 -18.86, -86.77 -7.55, -90.54 0 C-94.32 7.55, -94.32 15.09, -90.54 22.64 C-86.77 30.18, -75.45 41.5, -67.91 45.27 C-60.36 49.04, -52.82 45.27, -45.27 45.27 C-37.73 45.27, -26.41 41.5, -22.64 45.27 C-18.86 49.04, -18.86 64.14, -22.64 67.91 C-26.41 71.68, -37.73 67.91, -45.27 67.91 C-52.82 67.91, -60.36 71.68, -67.91 67.91 C-75.45 64.14, -86.77 45.27, -90.54 45.27 C-94.32 45.27, -94.32 60.36, -90.54 67.91 C-86.77 75.45, -75.45 86.77, -67.91 90.54 C-60.36 94.32, -52.82 90.54, -45.27 90.54 C-37.73 90.54, -30.18 94.32, -22.64 90.54 C-15.09 86.77, -3.77 75.45, 0 67.91 C3.77 60.36, 3.77 52.82, 0 45.27 C-3.77 37.73, -15.09 26.41, -22.64 22.64 C-30.18 18.86, -37.73 22.64, -45.27 22.64 C-52.82 22.64, -64.14 26.41, -67.91 22.64 C-71.68 18.86, -71.68 3.77, -67.91 0 C-64.14 -3.77, -52.82 0, -45.27 0 C-37.73 0, -30.18 0, -22.64 0 C-15.09 0, -3.77 0, 0 0 M0 0 C-3.77 -3.77, -15.09 -18.86, -22.64 -22.64 C-30.18 -26.41, -37.73 -22.64, -45.27 -22.64 C-52.82 -22.64, -60.36 -26.41, -67.91 -22.64 C-75.45 -18.86, -86.77 -7.55, -90.54 0 C-94.32 7.55, -94.32 15.09, -90.54 22.64 C-86.77 30.18, -75.45 41.5, -67.91 45.27 C-60.36 49.04, -52.82 45.27, -45.27 45.27 C-37.73 45.27, -26.41 41.5, -22.64 45.27 C-18.86 49.04, -18.86 64.14, -22.64 67.91 C-26.41 71.68, -37.73 67.91, -45.27 67.91 C-52.82 67.91, -60.36 71.68, -67.91 67.91 C-75.45 64.14, -86.77 45.27, -90.54 45.27 C-94.32 45.27, -94.32 60.36, -90.54 67.91 C-86.77 75.45, -75.45 86.77, -67.91 90.54 C-60.36 94.32, -52.82 90.54, -45.27 90.54 C-37.73 90.54, -30.18 94.32, -22.64 90.54 C-15.09 86.77, -3.77 75.45, 0 67.91 C3.77 60.36, 3.77 52.82, 0 45.27 C-3.77 37.73, -15.09 26.41, -22.64 22.64 C-30.18 18.86, -37.73 22.64, -45.27 22.64 C-52.82 22.64, -64.14 26.41, -67.91 22.64 C-71.68 18.86, -71.68 3.77, -67.91 0 C-64.14 -3.77, -52.82 0, -45.27 0 C-37.73 0, -30.18 0, -22.64 0 C-15.09 0, -3.77 0, 0 0" stroke="#1e1e1e" stroke-width="2" fill="none"></path></g></g><mask></mask><g stroke-linecap="round"><g transform="translate(606.3939693180264 173.3454380117759) rotate(0 -11.894350591502644 11.894350591502672)" fill-rule="evenodd"><path d="M0 0 L-18.04 -1.59 L-22.64 0 L-24.76 4.6 L-25.47 11.32 L-24.76 18.04 L-22.64 22.64 L-18.04 24.76 L-11.32 25.47 L-4.6 24.76 L0 22.64 L1.59 18.04 L0 0" stroke="none" stroke-width="0" fill="#f2c02c" fill-rule="evenodd"></path><path d="M0 0 C-3.77 0, -18.86 -3.77, -22.64 0 C-26.41 3.77, -26.41 18.86, -22.64 22.64 C-18.86 26.41, -3.77 26.41, 0 22.64 C3.77 18.86, 0 3.77, 0 0 M0 0 C-3.77 0, -18.86 -3.77, -22.64 0 C-26.41 3.77, -26.41 18.86, -22.64 22.64 C-18.86 26.41, -3.77 26.41, 0 22.64 C3.77 18.86, 0 3.77, 0 0" stroke="#1e1e1e" stroke-width="2" fill="none"></path></g></g><mask></mask><g stroke-linecap="round"><g transform="translate(583.7580245800127 218.61732748780366) rotate(0 11.894350591502644 35.68305177450799)" fill-rule="evenodd"><path d="M0 0 L11.32 -4.24 L18.04 -4.77 L20.73 -3.25 L22.64 0 L23.87 5.7 L25.47 33.95 L23.87 62.2 L22.64 67.91 L18.04 74.27 L11.32 76.4 L4.6 74.27 L0 67.91 L-1.08 62.2 L-1.41 33.95 L0 0" stroke="none" stroke-width="0" fill="#f2c02c" fill-rule="evenodd"></path><path d="M0 0 C3.77 0, 18.86 -11.32, 22.64 0 C26.41 11.32, 26.41 56.59, 22.64 67.91 C18.86 79.23, 3.77 79.23, 0 67.91 C-3.77 56.59, 0 11.32, 0 0 M0 0 C3.77 0, 18.86 -11.32, 22.64 0 C26.41 11.32, 26.41 56.59, 22.64 67.91 C18.86 79.23, 3.77 79.23, 0 67.91 C-3.77 56.59, 0 11.32, 0 0" stroke="#1e1e1e" stroke-width="2" fill="none"></path></g></g><mask></mask><g stroke-linecap="round"><g transform="translate(720.9008607813284 201.71836116338432) rotate(0 -45.27188947602781 33.9539171070208)" fill-rule="evenodd"><path d="M0 0 L-16.45 -18.04 L-22.64 -22.64 L-28.29 -24.23 L-45.27 -22.64 L-62.25 -24.23 L-67.91 -22.64 L-74.1 -18.57 L-80.64 -12.73 L-86.48 -6.19 L-90.54 0 L-93.37 11.32 L-90.54 22.64 L-86.48 28.83 L-80.64 35.37 L-74.1 41.2 L-67.91 45.27 L-62.25 46.86 L-32.54 43.86 L-26.7 43.68 L-22.64 45.27 L-20.51 49.87 L-19.81 56.59 L-20.51 63.31 L-22.64 67.91 L-26.7 69.5 L-45.27 67.91 L-62.25 69.5 L-67.91 67.91 L-74.1 62.78 L-86.48 48.28 L-90.54 45.27 L-92.67 47.75 L-93.37 53.76 L-92.67 61.19 L-90.54 67.91 L-86.48 74.1 L-80.64 80.64 L-74.1 86.48 L-67.91 90.54 L-62.25 92.14 L-45.27 90.54 L-28.29 92.14 L-22.64 90.54 L-16.45 86.48 L-9.9 80.64 L-4.07 74.1 L0 67.91 L2.83 56.59 L0 45.27 L-4.07 39.08 L-9.9 32.54 L-16.45 26.7 L-22.64 22.64 L-28.29 21.04 L-58 24.05 L-63.84 24.23 L-67.91 22.64 L-70.03 18.04 L-70.74 11.32 L-70.03 4.6 L-67.91 0 L-63.84 -1.59 L-45.27 0 L0 0" stroke="none" stroke-width="0" fill="#f2c02c" fill-rule="evenodd"></path><path d="M0 0 C-3.77 -3.77, -15.09 -18.86, -22.64 -22.64 C-30.18 -26.41, -37.73 -22.64, -45.27 -22.64 C-52.82 -22.64, -60.36 -26.41, -67.91 -22.64 C-75.45 -18.86, -86.77 -7.55, -90.54 0 C-94.32 7.55, -94.32 15.09, -90.54 22.64 C-86.77 30.18, -75.45 41.5, -67.91 45.27 C-60.36 49.04, -52.82 45.27, -45.27 45.27 C-37.73 45.27, -26.41 41.5, -22.64 45.27 C-18.86 49.04, -18.86 64.14, -22.64 67.91 C-26.41 71.68, -37.73 67.91, -45.27 67.91 C-52.82 67.91, -60.36 71.68, -67.91 67.91 C-75.45 64.14, -86.77 45.27, -90.54 45.27 C-94.32 45.27, -94.32 60.36, -90.54 67.91 C-86.77 75.45, -75.45 86.77, -67.91 90.54 C-60.36 94.32, -52.82 90.54, -45.27 90.54 C-37.73 90.54, -30.18 94.32, -22.64 90.54 C-15.09 86.77, -3.77 75.45, 0 67.91 C3.77 60.36, 3.77 52.82, 0 45.27 C-3.77 37.73, -15.09 26.41, -22.64 22.64 C-30.18 18.86, -37.73 22.64, -45.27 22.64 C-52.82 22.64, -64.14 26.41, -67.91 22.64 C-71.68 18.86, -71.68 3.77, -67.91 0 C-64.14 -3.77, -52.82 0, -45.27 0 C-37.73 0, -30.18 0, -22.64 0 C-15.09 0, -3.77 0, 0 0 M0 0 C-3.77 -3.77, -15.09 -18.86, -22.64 -22.64 C-30.18 -26.41, -37.73 -22.64, -45.27 -22.64 C-52.82 -22.64, -60.36 -26.41, -67.91 -22.64 C-75.45 -18.86, -86.77 -7.55, -90.54 0 C-94.32 7.55, -94.32 15.09, -90.54 22.64 C-86.77 30.18, -75.45 41.5, -67.91 45.27 C-60.36 49.04, -52.82 45.27, -45.27 45.27 C-37.73 45.27, -26.41 41.5, -22.64 45.27 C-18.86 49.04, -18.86 64.14, -22.64 67.91 C-26.41 71.68, -37.73 67.91, -45.27 67.91 C-52.82 67.91, -60.36 71.68, -67.91 67.91 C-75.45 64.14, -86.77 45.27, -90.54 45.27 C-94.32 45.27, -94.32 60.36, -90.54 67.91 C-86.77 75.45, -75.45 86.77, -67.91 90.54 C-60.36 94.32, -52.82 90.54, -45.27 90.54 C-37.73 90.54, -30.18 94.32, -22.64 90.54 C-15.09 86.77, -3.77 75.45, 0 67.91 C3.77 60.36, 3.77 52.82, 0 45.27 C-3.77 37.73, -15.09 26.41, -22.64 22.64 C-30.18 18.86, -37.73 22.64, -45.27 22.64 C-52.82 22.64, -64.14 26.41, -67.91 22.64 C-71.68 18.86, -71.68 3.77, -67.91 0 C-64.14 -3.77, -52.82 0, -45.27 0 C-37.73 0, -30.18 0, -22.64 0 C-15.09 0, -3.77 0, 0 0" stroke="#1e1e1e" stroke-width="2" fill="none"></path></g></g><mask></mask><g stroke-linecap="round"><g transform="translate(735.3411220713506 198.44008778418754) rotate(0 34.427622370642894 38.19815674539842)" fill-rule="evenodd"><path d="M0 0 L-4.24 -11.32 L-4.77 -18.04 L-3.25 -20.73 L0 -22.64 L13.79 -24.76 L33.95 -25.47 L54.11 -24.76 L67.91 -22.64 L71.31 -20.73 L73.21 -18.04 L73.57 -11.32 L71.09 -4.6 L67.91 0 L66.01 0.46 L56.59 -4.24 L49.87 -5.84 L47.17 -4.18 L45.27 0 L44.21 18.39 L46.2 82.94 L45.27 90.54 L43.37 95.5 L40.67 99.03 L33.95 101.86 L27.23 99.03 L24.54 95.5 L22.64 90.54 L21.71 82.94 L23.7 18.39 L22.64 0 L20.73 -4.33 L18.04 -6.37 L11.32 -5.66 L0 0" stroke="none" stroke-width="0" fill="#f2c02c" fill-rule="evenodd"></path><path d="M0 0 C0 -3.77, -11.32 -18.86, 0 -22.64 C11.32 -26.41, 56.59 -26.41, 67.91 -22.64 C79.23 -18.86, 71.68 -3.77, 67.91 0 C64.14 3.77, 49.04 -15.09, 45.27 0 C41.5 15.09, 49.04 75.45, 45.27 90.54 C41.5 105.63, 26.41 105.63, 22.64 90.54 C18.86 75.45, 26.41 15.09, 22.64 0 C18.86 -15.09, 3.77 0, 0 0 M0 0 C0 -3.77, -11.32 -18.86, 0 -22.64 C11.32 -26.41, 56.59 -26.41, 67.91 -22.64 C79.23 -18.86, 71.68 -3.77, 67.91 0 C64.14 3.77, 49.04 -15.09, 45.27 0 C41.5 15.09, 49.04 75.45, 45.27 90.54 C41.5 105.63, 26.41 105.63, 22.64 90.54 C18.86 75.45, 26.41 15.09, 22.64 0 C18.86 -15.09, 3.77 0, 0 0" stroke="#1e1e1e" stroke-width="2" fill="none"></path></g></g><mask></mask><g stroke-linecap="round"><g transform="translate(813.5913758514189 290.6230034258415) rotate(0 45.27188947602781 -55.84156615121603)" fill-rule="evenodd"><path d="M0 0 L19.81 -63.66 L26.31 -82.34 L32.89 -98.15 L39.3 -109.09 L42.36 -112.12 L45.27 -113.18 L48.27 -112.03 L51.55 -108.78 L58.71 -97.09 L66.23 -80.35 L73.57 -60.83 L85.59 -22.46 L90.2 -3.14 L90.2 1.36 L89.22 1.3 L85.59 -2.3 L58.71 -36.61 L51.55 -42.86 L45.27 -45.27 L39.3 -43.64 L32.89 -39.26 L19.81 -25.47 L0 0" stroke="none" stroke-width="0" fill="#f2c02c" fill-rule="evenodd"></path><path d="M0 0 C7.55 -18.86, 30.18 -113.18, 45.27 -113.18 C60.36 -113.18, 90.54 -11.32, 90.54 0 C90.54 11.32, 60.36 -45.27, 45.27 -45.27 C30.18 -45.27, 7.55 -7.55, 0 0 M0 0 C7.55 -18.86, 30.18 -113.18, 45.27 -113.18 C60.36 -113.18, 90.54 -11.32, 90.54 0 C90.54 11.32, 60.36 -45.27, 45.27 -45.27 C30.18 -45.27, 7.55 -7.55, 0 0" stroke="#1e1e1e" stroke-width="2" fill="none"></path></g></g><mask></mask><g stroke-linecap="round"><g transform="translate(925.9515311966861 288.9838667362431) rotate(0 44.17153105126363 -57.23092840484489)" fill-rule="evenodd"><path d="M0 0 L-4.97 -80.68 L-4.77 -96.56 L-3.25 -108.01 L-1.87 -111.49 L0 -113.18 L2.5 -112.78 L9.5 -106.22 L23.48 -86.19 L54.11 -37.31 L62.2 -26.68 L65.4 -23.69 L67.91 -22.64 L69.73 -23.49 L71 -25.91 L72.15 -34.66 L71.89 -47.31 L67.91 -92.67 L67.29 -104.96 L67.91 -113.18 L72.51 -122.2 L79.23 -125.91 L82.72 -125.45 L85.95 -123.26 L88.64 -119.21 L90.54 -113.18 L91.78 -103.67 L93.37 -56.59 L91.78 -9.51 L90.54 0 L88.95 5.88 L87.01 9.55 L84.71 11.27 L82.06 11.32 L75.69 7.43 L67.91 0 L57.12 -15.39 L31.3 -58.89 L26.28 -65.45 L22.64 -67.91 L20.62 -65.45 L19.98 -58.89 L23.17 -15.39 L23.41 -6.17 L22.64 0 L20.73 3.25 L18.04 4.77 L11.32 4.24 L0 0" stroke="none" stroke-width="0" fill="#f2c02c" fill-rule="evenodd"></path><path d="M0 0 C0 -18.86, -11.32 -109.41, 0 -113.18 C11.32 -116.95, 56.59 -22.64, 67.91 -22.64 C79.23 -22.64, 64.14 -98.09, 67.91 -113.18 C71.68 -128.27, 86.77 -132.04, 90.54 -113.18 C94.32 -94.32, 94.32 -18.86, 90.54 0 C86.77 18.86, 79.23 11.32, 67.91 0 C56.59 -11.32, 30.18 -67.91, 22.64 -67.91 C15.09 -67.91, 26.41 -11.32, 22.64 0 C18.86 11.32, 3.77 0, 0 0 M0 0 C0 -18.86, -11.32 -109.41, 0 -113.18 C11.32 -116.95, 56.59 -22.64, 67.91 -22.64 C79.23 -22.64, 64.14 -98.09, 67.91 -113.18 C71.68 -128.27, 86.77 -132.04, 90.54 -113.18 C94.32 -94.32, 94.32 -18.86, 90.54 0 C86.77 18.86, 79.23 11.32, 67.91 0 C56.59 -11.32, 30.18 -67.91, 22.64 -67.91 C15.09 -67.91, 26.41 -11.32, 22.64 0 C18.86 11.32, 3.77 0, 0 0" stroke="#1e1e1e" stroke-width="2" fill="none"></path></g></g><mask></mask><g stroke-linecap="round"><g transform="translate(1038.8192859703913 195.16181440499048) rotate(0 34.427622370642894 38.19815674539842)" fill-rule="evenodd"><path d="M0 0 L-4.24 -11.32 L-4.77 -18.04 L-3.25 -20.73 L0 -22.64 L13.79 -24.76 L33.95 -25.47 L54.11 -24.76 L67.91 -22.64 L71.31 -20.73 L73.21 -18.04 L73.57 -11.32 L71.09 -4.6 L67.91 0 L66.01 0.46 L56.59 -4.24 L49.87 -5.84 L47.17 -4.18 L45.27 0 L44.21 18.39 L46.2 82.94 L45.27 90.54 L43.37 95.5 L40.67 99.03 L33.95 101.86 L27.23 99.03 L24.54 95.5 L22.64 90.54 L21.71 82.94 L23.7 18.39 L22.64 0 L20.73 -4.33 L18.04 -6.37 L11.32 -5.66 L0 0" stroke="none" stroke-width="0" fill="#f2c02c" fill-rule="evenodd"></path><path d="M0 0 C0 -3.77, -11.32 -18.86, 0 -22.64 C11.32 -26.41, 56.59 -26.41, 67.91 -22.64 C79.23 -18.86, 71.68 -3.77, 67.91 0 C64.14 3.77, 49.04 -15.09, 45.27 0 C41.5 15.09, 49.04 75.45, 45.27 90.54 C41.5 105.63, 26.41 105.63, 22.64 90.54 C18.86 75.45, 26.41 15.09, 22.64 0 C18.86 -15.09, 3.77 0, 0 0 M0 0 C0 -3.77, -11.32 -18.86, 0 -22.64 C11.32 -26.41, 56.59 -26.41, 67.91 -22.64 C79.23 -18.86, 71.68 -3.77, 67.91 0 C64.14 3.77, 49.04 -15.09, 45.27 0 C41.5 15.09, 49.04 75.45, 45.27 90.54 C41.5 105.63, 26.41 105.63, 22.64 90.54 C18.86 75.45, 26.41 15.09, 22.64 0 C18.86 -15.09, 3.77 0, 0 0" stroke="#1e1e1e" stroke-width="2" fill="none"></path></g></g><mask></mask><g stroke-linecap="round"><g transform="translate(295.7276438354884 211.74416188423794) rotate(0 8.623089515644324 4.999097709754096)" fill-rule="evenodd"><path d="M0 0 L-1.15 12.03 L0 15.09 L3.33 16.67 L8.21 17.42 L13.08 17 L16.41 15.09 L17.95 10.45 L18.46 3.63 L17.95 -2.98 L16.41 -6.97 L13.08 -7.1 L0 0" stroke="none" stroke-width="0" fill="#ffffff" fill-rule="evenodd"></path><path d="M0 0 C0 2.52, -2.74 12.58, 0 15.09 C2.74 17.61, 13.68 18.77, 16.41 15.09 C19.15 11.42, 19.15 -4.45, 16.41 -6.97 C13.68 -9.48, 2.74 -1.16, 0 0 M0 0 C0 2.52, -2.74 12.58, 0 15.09 C2.74 17.61, 13.68 18.77, 16.41 15.09 C19.15 11.42, 19.15 -4.45, 16.41 -6.97 C13.68 -9.48, 2.74 -1.16, 0 0" stroke="#1e1e1e" stroke-width="2" fill="none"></path></g></g><mask></mask><g stroke-linecap="round"><g transform="translate(850.8635489254848 212.20698317219626) rotate(0 8.623089515644551 4.999097709754096)" fill-rule="evenodd"><path d="M0 0 L-1.15 12.03 L0 15.09 L3.33 16.67 L8.21 17.42 L13.08 17 L16.41 15.09 L17.95 10.45 L18.46 3.63 L17.95 -2.98 L16.41 -6.97 L13.08 -7.1 L0 0" stroke="none" stroke-width="0" fill="#ffffff" fill-rule="evenodd"></path><path d="M0 0 C0 2.52, -2.74 12.58, 0 15.09 C2.74 17.61, 13.68 18.77, 16.41 15.09 C19.15 11.42, 19.15 -4.45, 16.41 -6.97 C13.68 -9.48, 2.74 -1.16, 0 0 M0 0 C0 2.52, -2.74 12.58, 0 15.09 C2.74 17.61, 13.68 18.77, 16.41 15.09 C19.15 11.42, 19.15 -4.45, 16.41 -6.97 C13.68 -9.48, 2.74 -1.16, 0 0" stroke="#1e1e1e" stroke-width="2" fill="none"></path></g></g><mask></mask><g transform="translate(18.445031822884175 58.37372216474397) rotate(0 -0.5893384979169696 -8.755886254766324)" stroke="none"><path fill="#000000" d="M -4.24,2.23 Q -4.24,2.23 -4.82,1.36 -5.39,0.48 -6.52,-1.73 -7.65,-3.96 -7.93,-6.69 -8.22,-9.43 -7.69,-11.56 -7.16,-13.69 -5.81,-16.63 -4.46,-19.56 -3.97,-20.46 -3.48,-21.36 -2.73,-22.05 -1.98,-22.75 -1.05,-23.17 -0.11,-23.58 0.90,-23.68 1.92,-23.78 2.91,-23.55 3.91,-23.32 4.78,-22.78 5.65,-22.24 6.30,-21.45 6.96,-20.66 7.32,-19.71 7.69,-18.75 7.73,-17.73 7.78,-16.71 7.49,-15.72 7.21,-14.74 6.62,-13.90 6.04,-13.06 5.21,-12.45 4.39,-11.84 3.42,-11.53 2.44,-11.21 1.42,-11.22 0.40,-11.24 -0.56,-11.57 -1.53,-11.91 -2.33,-12.54 -3.14,-13.17 -3.70,-14.03 -4.27,-14.88 -4.53,-15.87 -4.79,-16.86 -4.72,-17.88 -4.66,-18.90 -4.26,-19.85 -3.87,-20.80 -3.20,-21.57 -2.53,-22.34 -1.65,-22.86 -0.76,-23.37 0.23,-23.58 1.23,-23.79 2.25,-23.67 3.26,-23.54 4.19,-23.10 5.11,-22.66 5.85,-21.95 6.58,-21.23 7.05,-20.32 7.52,-19.41 7.67,-18.40 7.82,-17.39 7.64,-16.38 7.47,-15.37 7.47,-15.37 7.47,-15.37 6.73,-13.67 5.99,-11.97 4.21,-10.34 2.44,-8.71 2.94,-6.44 3.45,-4.16 3.85,-3.20 4.24,-2.23 4.45,-1.69 4.66,-1.15 4.73,-0.58 4.80,-0.00 4.73,0.56 4.66,1.14 4.45,1.68 4.25,2.22 3.92,2.70 3.59,3.18 3.16,3.56 2.73,3.94 2.21,4.21 1.70,4.48 1.14,4.62 0.58,4.76 0.00,4.76 -0.57,4.76 -1.13,4.62 -1.69,4.49 -2.21,4.22 -2.72,3.95 -3.15,3.57 -3.59,3.18 -3.92,2.71 -4.24,2.23 -4.24,2.23 L -4.24,2.23 Z"></path></g><g stroke-linecap="round"><g transform="translate(59.87673967409182 146.1156980100888) rotate(0 80.2290889837725 -67.28078357397389)"><path d="M0.28 0.36 C-6.34 -19.65, -73.9 -99.87, -40.79 -120.11 C-7.69 -140.34, 165.45 -141.27, 198.91 -121.05 C232.37 -100.83, 166.24 -19.18, 159.94 1.19 M-1.04 -0.5 C-7.18 -20.31, -72.21 -98.67, -38.5 -118.63 C-4.79 -138.59, 168.12 -139.93, 201.23 -120.28 C234.34 -100.63, 166.99 -20.53, 160.16 -0.73" stroke="#f2c02c" stroke-width="4" fill="none"></path></g></g><mask></mask><g stroke-linecap="round" transform="translate(99.55561139899464 165.79456973499163) rotate(0 40 40)"><path d="M58.16 5.1 C64.31 7.6, 70.09 14.04, 73.71 20.17 C77.33 26.31, 80.21 34.64, 79.87 41.91 C79.52 49.18, 75.69 58.07, 71.66 63.8 C67.62 69.53, 62.1 73.8, 55.64 76.29 C49.18 78.78, 40.18 79.86, 32.89 78.73 C25.61 77.6, 17.05 74.28, 11.91 69.51 C6.78 64.74, 3.68 57.22, 2.1 50.09 C0.52 42.97, 0.11 33.7, 2.45 26.74 C4.79 19.77, 10.65 12.62, 16.13 8.29 C21.61 3.96, 27.92 1.06, 35.32 0.73 C42.72 0.41, 56.11 5.29, 60.53 6.35 C64.94 7.41, 61.98 6.49, 61.81 7.1 M22.21 5.38 C27.6 1.72, 35.25 0.03, 42.28 0.64 C49.31 1.25, 58.34 4.71, 64.39 9.05 C70.44 13.39, 76.31 20.2, 78.6 26.67 C80.9 33.15, 79.93 40.7, 78.15 47.89 C76.38 55.08, 72.74 64.35, 67.94 69.8 C63.15 75.24, 56.3 79.52, 49.38 80.54 C42.45 81.57, 33.1 78.6, 26.4 75.92 C19.7 73.24, 13.41 69.97, 9.18 64.48 C4.95 58.98, 1.68 50.37, 1.02 42.95 C0.36 35.52, 1.65 26.36, 5.21 19.92 C8.78 13.47, 19.93 6.54, 22.44 4.29 C24.95 2.04, 19.98 5.52, 20.27 6.42" stroke="none" stroke-width="0" fill="#ffffff"></path><path d="M34.11 0.57 C40.88 -0.96, 50.42 0.97, 56.95 4.17 C63.48 7.37, 69.51 13.57, 73.32 19.77 C77.12 25.97, 79.87 34.23, 79.79 41.35 C79.71 48.47, 76.94 56.66, 72.86 62.5 C68.78 68.35, 61.74 73.7, 55.29 76.42 C48.83 79.14, 41.22 80.02, 34.14 78.82 C27.05 77.63, 18.24 74.04, 12.77 69.24 C7.29 64.45, 3.04 57.04, 1.29 50.06 C-0.46 43.08, 0.12 34.07, 2.26 27.34 C4.4 20.6, 7.28 14.31, 14.15 9.67 C21.02 5.02, 37.33 0.82, 43.49 -0.54 C49.64 -1.89, 51.35 0.76, 51.1 1.52 M58.25 4.34 C64.28 7, 71.4 14.97, 74.98 21.5 C78.56 28.02, 80.12 36.45, 79.73 43.5 C79.34 50.56, 76.92 58.38, 72.64 63.84 C68.37 69.29, 61.02 73.64, 54.09 76.26 C47.16 78.87, 38.07 80.93, 31.07 79.53 C24.06 78.13, 17.24 73.01, 12.03 67.86 C6.83 62.72, 1.62 55.39, -0.16 48.66 C-1.93 41.93, -1.25 34.15, 1.39 27.49 C4.04 20.84, 9.81 13.26, 15.72 8.72 C21.62 4.18, 29.58 0.82, 36.82 0.26 C44.07 -0.29, 55.79 4.64, 59.2 5.39 C62.61 6.15, 57.66 4.48, 57.28 4.79" stroke="#f2c02c" stroke-width="4" fill="none"></path></g><g transform="translate(31.83062341655068 33.93356894547058) rotate(0 -2.9614076756254235 0.8884223026876725)" stroke="none"><path d="M-0.13 -1.29 L-1.15 0.34 L-0.48 1.5 L-3.38 1.43 L-2.27 -0.68 L-1.53 0.28 L-4.79 2.64 L-5.53 0.54 L-7.32 0.81 L-6.48 3.36 L-5.09 2.66 L-4.26 2.14 L-5.53 0.29" stroke="none" stroke-width="0" fill="#1e1e1e" fill-rule="evenodd"></path><path fill="#000000" d="M 1.11,4.64 Q 1.11,4.64 -0.27,5.09 -1.67,5.54 -1.96,5.37 -2.26,5.21 -2.92,5.69 -3.57,6.17 -4.34,6.42 -5.11,6.67 -5.93,6.66 -6.74,6.65 -7.50,6.38 -8.27,6.11 -8.91,5.61 -9.55,5.11 -9.99,4.43 -10.44,3.76 -10.65,2.97 -10.85,2.19 -10.80,1.38 -10.74,0.57 -10.43,-0.17 -10.12,-0.92 -9.59,-1.53 -9.05,-2.15 -8.35,-2.55 -7.65,-2.96 -6.86,-3.13 -6.06,-3.29 -5.26,-3.19 -4.45,-3.09 -3.72,-2.74 -2.99,-2.39 -2.41,-1.83 -1.82,-1.26 -1.45,-0.54 -1.08,0.17 -0.96,0.98 -0.84,1.78 -0.98,2.58 -1.13,3.38 -1.52,4.09 -1.91,4.80 -2.50,5.35 -3.10,5.90 -3.84,6.23 -4.58,6.56 -5.39,6.64 -6.20,6.72 -6.99,6.53 -7.78,6.35 -8.47,5.92 -9.16,5.49 -9.68,4.86 -10.19,4.24 -10.48,3.48 -10.77,2.72 -10.81,1.91 -10.84,1.10 -10.61,0.32 -10.38,-0.45 -9.92,-1.11 -9.45,-1.78 -9.45,-1.78 -9.45,-1.78 -6.73,-2.98 -4.00,-4.18 -2.56,-4.41 -1.11,-4.64 -0.54,-4.71 0.02,-4.78 0.60,-4.70 1.17,-4.63 1.71,-4.42 2.24,-4.21 2.71,-3.88 3.19,-3.55 3.57,-3.12 3.95,-2.69 4.21,-2.17 4.48,-1.66 4.61,-1.10 4.74,-0.54 4.74,0.02 4.74,0.60 4.60,1.16 4.45,1.72 4.18,2.23 3.91,2.74 3.53,3.16 3.14,3.59 2.67,3.92 2.19,4.24 1.65,4.44 1.11,4.64 1.11,4.64 L 1.11,4.64 Z"></path></g><g stroke-linecap="round"><g transform="translate(109.7632955983795 195.64268578989333) rotate(0 13.36187130806411 9.018266620752826)"><path d="M-1.09 -1.05 C0.58 -2.37, 5.74 -6.89, 9.2 -8.06 C12.66 -9.24, 16.66 -9.36, 19.64 -8.09 C22.63 -6.81, 27.3 -3.4, 27.1 -0.41 C26.9 2.58, 21.44 8.14, 18.45 9.85 C15.45 11.56, 9.03 9.95, 9.12 9.84 C9.21 9.73, 15.87 7.91, 18.98 9.2 C22.09 10.49, 27.96 14.41, 27.81 17.56 C27.67 20.72, 21.17 26.48, 18.11 28.12 C15.06 29.76, 12.63 28.99, 9.47 27.4 C6.31 25.81, 0.85 19.88, -0.87 18.58 M0.54 1.02 C2.11 -0.6, 5.07 -7.75, 8.22 -9.56 C11.38 -11.37, 16.34 -11.49, 19.47 -9.82 C22.6 -8.14, 27.41 -2.91, 26.99 0.48 C26.56 3.87, 19.69 9.11, 16.94 10.55 C14.19 11.98, 9.98 9.56, 10.46 9.11 C10.95 8.65, 17.14 6.56, 19.86 7.83 C22.59 9.09, 26.8 13.54, 26.8 16.72 C26.8 19.9, 22.63 25.25, 19.89 26.92 C17.15 28.59, 13.83 27.97, 10.35 26.75 C6.87 25.53, 0.57 20.76, -1.01 19.6" stroke="#000000" stroke-width="2" fill="none"></path></g></g><mask></mask><g stroke-linecap="round"><g transform="translate(141.61866331501415 196.0064620119366) rotate(0 13.183043997565846 9.469218338837578)"><path d="M-0.06 1.19 C1.85 0.02, 7.4 -6.28, 10.38 -8.09 C13.37 -9.9, 14.95 -11.12, 17.84 -9.67 C20.72 -8.22, 27.62 -2.66, 27.71 0.59 C27.8 3.84, 21.38 6.86, 18.38 9.84 C15.38 12.82, 12.78 15.63, 9.72 18.46 C6.66 21.29, -2.91 25.21, 0.03 26.82 C2.97 28.43, 22.71 28.03, 27.37 28.12 M-1.55 0.78 C0.4 -0.61, 6.98 -8.04, 10.03 -9.6 C13.07 -11.15, 13.73 -9.89, 16.71 -8.57 C19.69 -7.24, 27.9 -4.84, 27.92 -1.66 C27.94 1.52, 20.21 7.36, 16.84 10.54 C13.47 13.71, 10.41 14.37, 7.71 17.39 C5.02 20.41, -2.38 26.88, 0.69 28.64 C3.76 30.4, 21.84 27.82, 26.13 27.96" stroke="#000000" stroke-width="2" fill="none"></path></g></g><mask></mask></svg>